<svg width="32" height="32" viewBox="0 0 32 32" fill="none" xmlns="http://www.w3.org/2000/svg">
<path d="M11.8805 27.5598C11.6271 27.5598 11.3738 27.4664 11.1738 27.2664C10.7871 26.8798 10.7871 26.2398 11.1738 25.8531L19.8671 17.1598C20.5071 16.5198 20.5071 15.4798 19.8671 14.8398L11.1738 6.14645C10.7871 5.75978 10.7871 5.11978 11.1738 4.73312C11.5605 4.34645 12.2005 4.34645 12.5871 4.73312L21.2805 13.4264C21.9605 14.1064 22.3471 15.0264 22.3471 15.9998C22.3471 16.9731 21.9738 17.8931 21.2805 18.5731L12.5871 27.2664C12.3871 27.4531 12.1338 27.5598 11.8805 27.5598Z" fill="#352018"/>
</svg>
