<svg width="31" height="30" viewBox="0 0 31 30" fill="none" xmlns="http://www.w3.org/2000/svg">
<path d="M25.489 4.97195C25.489 2.22495 23.2641 0 20.5171 0C17.7701 0 15.5451 2.22495 15.5451 4.97195C15.5451 6.25222 16.0299 7.42063 16.8254 8.30315L8.9076 16.221C8.02508 15.413 6.84424 14.9158 5.55154 14.9158C2.80454 14.9158 0.57959 17.1408 0.57959 19.8878C0.57959 22.6348 2.77968 24.8349 5.50182 24.8597C5.50182 27.6067 7.72676 29.8317 10.4738 29.8317C13.2208 29.8317 15.4457 27.6067 15.4457 24.8597C15.4457 23.5795 14.9609 22.411 14.1654 21.5285L22.0833 13.6107C22.9658 14.4186 24.1466 14.9158 25.4393 14.9158C28.1863 14.9158 30.4113 12.6909 30.4113 9.94389C30.4113 7.19689 28.2112 4.99681 25.489 4.97195Z" fill="white"/>
</svg>
