<svg width="24" height="25" viewBox="0 0 24 25" fill="none" xmlns="http://www.w3.org/2000/svg">
<path d="M19 5.25539H17.618L17.447 4.91339C17.1992 4.41408 16.8165 3.99413 16.3424 3.7011C15.8682 3.40807 15.3214 3.25367 14.764 3.25539H9.236C8.67856 3.25356 8.13175 3.40791 7.65755 3.70095C7.18335 3.99399 6.80071 4.414 6.553 4.91339L6.382 5.25539H5C4.20435 5.25539 3.44129 5.57146 2.87868 6.13407C2.31607 6.69668 2 7.45974 2 8.25539V19.2554C2 19.7858 2.21071 20.2945 2.58579 20.6696C2.96086 21.0447 3.46957 21.2554 4 21.2554H20C20.5304 21.2554 21.0391 21.0447 21.4142 20.6696C21.7893 20.2945 22 19.7858 22 19.2554V8.25539C22 7.45974 21.6839 6.69668 21.1213 6.13407C20.5587 5.57146 19.7956 5.25539 19 5.25539ZM15.5 12.2554C15.5 12.9476 15.2947 13.6243 14.9101 14.1999C14.5256 14.7755 13.9789 15.2241 13.3394 15.489C12.6999 15.7539 11.9961 15.8232 11.3172 15.6881C10.6382 15.5531 10.0146 15.2197 9.52513 14.7303C9.03564 14.2408 8.7023 13.6171 8.56725 12.9382C8.4322 12.2593 8.50151 11.5555 8.76642 10.916C9.03133 10.2765 9.47993 9.72983 10.0555 9.34524C10.6311 8.96066 11.3078 8.75539 12 8.75539C12.9283 8.75539 13.8185 9.12414 14.4749 9.78051C15.1313 10.4369 15.5 11.3271 15.5 12.2554Z" fill="#8A5642"/>
</svg>
