<svg width="246" height="52" viewBox="0 0 246 52" fill="none" xmlns="http://www.w3.org/2000/svg">
<path d="M17.4418 16.404C17.4418 15.492 17.7058 14.796 18.2338 14.316C18.7858 13.812 19.4698 13.56 20.2858 13.56C21.1018 13.56 21.7738 13.812 22.3018 14.316C22.8538 14.796 23.1298 15.492 23.1298 16.404V24.972H23.5978C23.8138 24.972 23.9698 24.948 24.0658 24.9C24.1858 24.852 24.2458 24.672 24.2458 24.36V16.296C24.2458 15.312 24.5218 14.568 25.0738 14.064C25.6498 13.56 26.3698 13.308 27.2338 13.308C28.1218 13.308 28.8418 13.56 29.3938 14.064C29.9458 14.568 30.2218 15.312 30.2218 16.296V41.352C30.2218 42.336 29.9458 43.08 29.3938 43.584C28.8418 44.112 28.1218 44.376 27.2338 44.376C26.3698 44.376 25.6498 44.112 25.0738 43.584C24.5218 43.08 24.2458 42.336 24.2458 41.352V28.464H23.1298V41.352C23.1298 42.24 22.8538 42.936 22.3018 43.44C21.7738 43.944 21.1018 44.196 20.2858 44.196C19.4698 44.196 18.7858 43.944 18.2338 43.44C17.7058 42.936 17.4418 42.24 17.4418 41.352V16.404ZM4.94984 22.92C3.86984 22.92 2.98184 22.656 2.28584 22.128C1.58984 21.576 1.24184 20.7 1.24184 19.5C1.24184 18.3 1.58984 17.436 2.28584 16.908C2.98184 16.356 3.86984 16.08 4.94984 16.08H12.9058C13.9858 16.08 14.8738 16.356 15.5698 16.908C16.2658 17.436 16.6138 18.3 16.6138 19.5C16.6138 20.676 16.2658 21.54 15.5698 22.092C14.8738 22.644 13.9858 22.92 12.9058 22.92H11.4658C11.2498 24.048 11.0338 24.972 10.8178 25.692C10.6258 26.412 10.5298 26.772 10.5298 26.772C11.6578 26.892 12.6658 27.348 13.5538 28.14C14.4658 28.932 15.1978 29.916 15.7498 31.092C16.3018 32.268 16.5898 33.504 16.6138 34.8C16.6618 36.264 16.3978 37.38 15.8218 38.148C15.2458 38.892 14.4298 39.264 13.3738 39.264C12.3418 39.264 11.5378 38.904 10.9618 38.184C10.3858 37.464 10.0978 36.528 10.0978 35.376C10.0978 34.248 10.2178 33.228 10.4578 32.316C10.6978 31.404 10.9018 30.54 11.0698 29.724C11.1898 29.124 11.0338 28.728 10.6018 28.536C10.0738 28.392 9.72584 28.62 9.55784 29.22C9.22184 30.66 8.89784 31.92 8.58584 33C8.27384 34.08 7.85384 35.292 7.32584 36.636C6.89384 37.62 6.31784 38.268 5.59784 38.58C4.90184 38.892 4.12184 38.904 3.25784 38.616C2.29784 38.304 1.64984 37.776 1.31384 37.032C0.977844 36.288 0.965844 35.364 1.27784 34.26C1.56584 33.276 1.93784 32.22 2.39384 31.092C2.84984 29.94 3.26984 28.908 3.65384 27.996C4.03784 27.036 4.36184 26.148 4.62584 25.332C4.91384 24.516 5.17784 23.712 5.41784 22.92H4.94984ZM53.0349 16.8C53.0349 15.816 53.3589 14.988 54.0069 14.316C54.6549 13.644 55.5309 13.308 56.6349 13.308C57.7149 13.308 58.5549 13.656 59.1549 14.352C59.7789 15.024 60.0909 15.864 60.0909 16.872V41.136C60.0909 42.048 59.7669 42.816 59.1189 43.44C58.4949 44.064 57.6669 44.376 56.6349 44.376C55.6029 44.376 54.7389 44.064 54.0429 43.44C53.3709 42.816 53.0349 42.048 53.0349 41.136V16.8ZM41.7669 38.652C40.4709 38.652 39.2229 38.424 38.0229 37.968C36.8229 37.488 35.8269 36.744 35.0349 35.736C34.2669 34.704 33.8349 33.384 33.7389 31.776C33.6669 30.48 33.7869 29.304 34.0989 28.248C34.4349 27.192 34.8549 26.28 35.3589 25.512C35.8869 24.72 36.4149 24.108 36.9429 23.676L36.5469 22.92C35.9469 22.92 35.3829 22.62 34.8549 22.02C34.3509 21.42 34.0989 20.556 34.0989 19.428C34.0989 18.3 34.3869 17.436 34.9629 16.836C35.5389 16.212 36.3189 15.9 37.3029 15.9H45.3669C46.9989 15.9 48.2229 16.356 49.0389 17.268C49.8789 18.156 50.2989 19.452 50.2989 21.156V33C50.2989 34.824 49.9029 36.228 49.1109 37.212C48.3429 38.172 47.0349 38.652 45.1869 38.652H41.7669ZM38.5989 28.536C38.7189 29.352 38.9229 29.88 39.2109 30.12C39.4989 30.336 39.9789 30.444 40.6509 30.444H42.4869C43.0389 30.444 43.4109 30.336 43.6029 30.12C43.7949 29.904 43.8909 29.556 43.8909 29.076V24.432C43.8909 23.904 43.7949 23.52 43.6029 23.28C43.4109 23.04 43.0389 22.92 42.4869 22.92H39.2829C38.2509 22.92 37.8189 23.424 37.9869 24.432L38.5989 28.536ZM81.4423 16.8C81.4423 15.816 81.7663 14.988 82.4142 14.316C83.0623 13.644 83.9383 13.308 85.0423 13.308C86.1223 13.308 86.9743 13.656 87.5983 14.352C88.2223 15.024 88.5343 15.864 88.5343 16.872V25.584L89.1103 25.764C89.3023 24.972 89.6383 24.348 90.1183 23.892C90.5983 23.412 91.2103 23.172 91.9543 23.172C92.7943 23.172 93.4903 23.496 94.0423 24.144C94.5943 24.768 94.8703 25.608 94.8703 26.664C94.8703 27.768 94.5703 28.632 93.9703 29.256C93.3703 29.856 92.6983 30.156 91.9543 30.156C91.3303 30.156 90.8023 29.988 90.3703 29.652C89.9623 29.316 89.6383 28.92 89.3983 28.464C89.2303 28.176 89.0383 28.08 88.8223 28.176C88.6303 28.248 88.5343 28.452 88.5343 28.788V41.136C88.5343 42.048 88.2103 42.816 87.5623 43.44C86.9143 44.064 86.0743 44.376 85.0423 44.376C84.0103 44.376 83.1463 44.064 82.4503 43.44C81.7783 42.816 81.4423 42.048 81.4423 41.136V16.8ZM72.5143 39.66C70.1623 39.66 68.2783 39.084 66.8623 37.932C65.4703 36.78 64.6543 34.98 64.4143 32.532C64.2463 30.708 64.1503 28.932 64.1263 27.204C64.1023 25.452 64.1503 23.844 64.2703 22.38C64.3903 20.916 64.5703 19.692 64.8103 18.708C65.4103 16.356 66.8143 15.18 69.0223 15.18C70.2463 15.18 71.1943 15.576 71.8663 16.368C72.5383 17.136 72.8743 18.012 72.8743 18.996C72.8743 20.772 72.0223 22.224 70.3183 23.352C69.6223 23.808 68.9743 24.336 68.3743 24.936C67.7743 25.536 67.4743 26.364 67.4743 27.42C67.4743 28.332 67.7743 29.076 68.3743 29.652C68.9743 30.228 69.8263 30.516 70.9303 30.516H75.8623C77.3983 30.516 78.5503 30.924 79.3183 31.74C80.1103 32.532 80.5063 33.66 80.5063 35.124C80.5063 38.148 78.9703 39.66 75.8983 39.66H72.5143ZM121.262 44.376C120.398 44.376 119.678 44.112 119.102 43.584C118.55 43.08 118.274 42.336 118.274 41.352V28.464H117.158V41.352C117.158 42.24 116.882 42.936 116.33 43.44C115.802 43.944 115.13 44.196 114.314 44.196C113.498 44.196 112.814 43.944 112.262 43.44C111.734 42.936 111.47 42.24 111.47 41.352V16.404C111.47 15.492 111.734 14.796 112.262 14.316C112.814 13.812 113.498 13.56 114.314 13.56C115.13 13.56 115.802 13.812 116.33 14.316C116.882 14.796 117.158 15.492 117.158 16.404V24.972H117.626C117.842 24.972 117.998 24.948 118.094 24.9C118.214 24.852 118.274 24.672 118.274 24.36V16.296C118.274 15.312 118.55 14.568 119.102 14.064C119.678 13.56 120.398 13.308 121.262 13.308C122.15 13.308 122.87 13.56 123.422 14.064C123.974 14.568 124.25 15.312 124.25 16.296V41.352C124.25 42.336 123.974 43.08 123.422 43.584C122.87 44.112 122.15 44.376 121.262 44.376ZM96.8176 19.644C96.8176 18.612 97.0936 17.748 97.6456 17.052C98.2216 16.356 99.1336 16.008 100.382 16.008H105.638C107.102 16.008 108.17 16.404 108.842 17.196C109.514 17.988 109.85 19.104 109.85 20.544C109.85 23.568 109.694 26.328 109.382 28.824C109.07 31.296 108.494 33.42 107.654 35.196C106.814 36.948 105.602 38.256 104.018 39.12C103.082 39.624 102.146 39.912 101.21 39.984C100.298 40.032 99.4696 39.84 98.7256 39.408C98.0056 38.976 97.4656 38.304 97.1056 37.392C96.5056 35.928 96.5536 34.62 97.2496 33.468C97.9456 32.292 99.0856 31.452 100.67 30.948C101.726 30.612 102.722 30.168 103.658 29.616C104.618 29.064 105.386 28.392 105.962 27.6C106.562 26.784 106.862 25.836 106.862 24.756C106.862 24.348 106.73 24.024 106.466 23.784C106.226 23.544 105.914 23.424 105.53 23.424L100.382 23.388C99.1336 23.388 98.2216 23.028 97.6456 22.308C97.0936 21.564 96.8176 20.676 96.8176 19.644ZM158.643 32.82C157.371 33.084 156.303 32.892 155.439 32.244C154.575 31.596 153.759 30.54 152.991 29.076C152.535 28.212 152.043 27.504 151.515 26.952C150.987 26.376 150.339 26.088 149.571 26.088C148.755 26.088 148.035 26.304 147.411 26.736C146.811 27.144 146.211 27.672 145.611 28.32C145.035 28.968 144.399 29.64 143.703 30.336C143.007 31.032 142.167 31.644 141.183 32.172C140.415 32.604 139.635 32.796 138.843 32.748C138.075 32.7 137.379 32.448 136.755 31.992C136.155 31.536 135.711 30.924 135.423 30.156C135.111 29.292 135.075 28.5 135.315 27.78C135.555 27.036 135.987 26.328 136.611 25.656C137.235 24.984 137.967 24.336 138.807 23.712C140.055 22.752 141.279 21.78 142.479 20.796C143.679 19.788 144.831 18.744 145.935 17.664C146.487 17.112 147.075 16.62 147.699 16.188C148.347 15.732 149.031 15.444 149.751 15.324C150.471 15.18 151.227 15.324 152.019 15.756C152.739 16.116 153.267 16.644 153.603 17.34C153.963 18.012 154.119 18.732 154.071 19.5C154.023 20.268 153.759 20.964 153.279 21.588C152.751 22.284 152.271 22.8 151.839 23.136C151.431 23.472 151.227 23.64 151.227 23.64L151.515 24.54C152.451 24.18 153.495 24 154.647 24C155.799 23.976 156.903 24.192 157.959 24.648C159.039 25.08 159.903 25.788 160.551 26.772C161.127 27.612 161.391 28.476 161.343 29.364C161.319 30.228 161.067 30.984 160.587 31.632C160.107 32.256 159.459 32.652 158.643 32.82ZM134.019 38.328C134.019 37.272 134.355 36.432 135.027 35.808C135.699 35.16 136.503 34.836 137.439 34.836H144.855C144.759 34.476 144.711 34.02 144.711 33.468C144.711 32.484 145.059 31.608 145.755 30.84C146.451 30.072 147.423 29.688 148.671 29.688C149.943 29.688 150.903 30.072 151.551 30.84C152.199 31.608 152.523 32.484 152.523 33.468C152.523 34.02 152.475 34.476 152.379 34.836H160.227C161.163 34.836 161.943 35.172 162.567 35.844C163.191 36.492 163.503 37.32 163.503 38.328C163.503 39.36 163.191 40.212 162.567 40.884C161.943 41.556 161.163 41.892 160.227 41.892H137.367C136.479 41.892 135.699 41.58 135.027 40.956C134.355 40.308 134.019 39.432 134.019 38.328ZM185.539 16.764C185.539 15.78 185.863 14.988 186.511 14.388C187.159 13.764 188.035 13.452 189.139 13.452C190.219 13.452 191.059 13.764 191.659 14.388C192.283 15.012 192.595 15.828 192.595 16.836V28.572C192.595 29.508 192.271 30.288 191.623 30.912C190.999 31.512 190.171 31.812 189.139 31.812C188.107 31.812 187.243 31.512 186.547 30.912C185.875 30.288 185.539 29.508 185.539 28.572V16.764ZM168.223 31.776C167.287 31.44 166.579 30.864 166.099 30.048C165.619 29.232 165.535 28.272 165.847 27.168C166.063 26.424 166.411 25.668 166.891 24.9C167.395 24.108 167.995 23.136 168.691 21.984C169.387 20.808 170.119 19.296 170.887 17.448C171.367 16.296 171.907 15.432 172.507 14.856C173.107 14.256 173.995 13.968 175.171 13.992C176.251 14.016 177.103 14.388 177.727 15.108C178.351 15.828 178.615 16.788 178.519 17.988C178.471 18.684 178.351 19.32 178.159 19.896C177.967 20.448 177.787 20.88 177.619 21.192C177.451 21.504 177.367 21.66 177.367 21.66C178.327 21.588 179.275 21.708 180.211 22.02C181.171 22.308 181.987 22.86 182.659 23.676C183.331 24.492 183.715 25.62 183.811 27.06C183.883 28.452 183.571 29.556 182.875 30.372C182.203 31.188 181.231 31.596 179.959 31.596C178.855 31.596 177.967 31.248 177.295 30.552C176.623 29.832 176.287 28.992 176.287 28.032C176.287 27.12 176.395 26.424 176.611 25.944C176.851 25.464 177.079 24.924 177.295 24.324C177.487 23.7 177.343 23.352 176.863 23.28C176.431 23.184 176.071 23.472 175.783 24.144C175.399 25.152 174.943 26.256 174.415 27.456C173.887 28.656 173.371 29.652 172.867 30.444C172.411 31.14 171.751 31.62 170.887 31.884C170.047 32.124 169.159 32.088 168.223 31.776ZM169.555 36.024C169.555 34.968 169.867 34.128 170.491 33.504C171.139 32.88 172.039 32.568 173.191 32.568H188.059C189.547 32.568 190.663 32.94 191.407 33.684C192.151 34.404 192.523 35.364 192.523 36.564C192.523 37.428 192.511 38.244 192.487 39.012C192.463 39.78 192.403 40.524 192.307 41.244C192.187 42.468 191.791 43.308 191.119 43.764C190.471 44.22 189.559 44.424 188.383 44.376C187.183 44.304 186.367 43.92 185.935 43.224C185.503 42.552 185.275 41.772 185.251 40.884C185.227 40.38 185.107 40.044 184.891 39.876C184.699 39.684 184.363 39.588 183.883 39.588H173.227C172.051 39.588 171.139 39.276 170.491 38.652C169.867 38.004 169.555 37.128 169.555 36.024Z" fill="#DDAC7E"/>
<path d="M217.874 16.4857C217.874 17.3051 216.873 18.7508 215.061 18.7508C213.25 18.7508 212.249 17.3051 212.249 16.4857C212.249 15.6663 213.25 15.0006 215.061 15.0006C216.873 15.0006 217.874 15.6644 217.874 16.4857ZM231.937 35.6265C233.748 35.6265 234.75 34.1808 234.75 33.3614C234.75 32.542 233.748 31.8763 231.937 31.8763C230.126 31.8763 229.124 32.5401 229.124 33.3614C229.124 34.1827 230.126 35.6265 231.937 35.6265ZM215.672 28.1262H214.452C206.155 28.1262 201 24.4679 201 18.5783C201 17.1607 201.729 15.3794 202.943 13.6806C201.774 13.1855 201 12.158 201 10.3129C200.998 7.50031 207.04 0 209.365 0C211.069 0 212.198 0.686278 213.887 1.93508C214.268 1.9032 214.654 1.87508 215.063 1.87508C215.472 1.87508 215.858 1.9032 216.239 1.93508C217.926 0.686278 219.057 0 220.761 0C223.085 0 229.128 7.50031 229.128 10.3129C229.128 12.158 228.354 13.1855 227.185 13.6806C228.397 15.3794 229.128 17.1588 229.128 18.5783C229.128 24.4679 223.973 28.1262 215.676 28.1262H215.672ZM225.374 18.5783C225.374 18.0214 224.763 16.2607 222.877 14.3743C222.533 14.0331 222.337 13.5699 222.327 13.0862C222.307 12.3286 221.916 5.62523 215.061 5.62523C208.206 5.62523 207.816 12.3286 207.795 13.0937C207.782 13.5718 207.585 14.035 207.248 14.3743C205.361 16.2607 204.75 18.0214 204.75 18.5783C204.75 23.9579 212.175 24.376 214.452 24.376H215.672C217.949 24.376 225.374 23.9579 225.374 18.5783ZM244.882 20.2583L244.125 16.4182C243.902 15.19 242.488 14.5994 241.457 15.3044L237.562 19.2195C236.705 18.8183 235.816 18.5164 234.903 18.3101C233.84 18.0701 232.816 18.8502 232.696 19.9321C232.696 19.9489 232.693 19.9639 232.691 19.9808C232.584 20.9315 233.218 21.7715 234.146 22.004C235.835 22.4278 237.151 23.2247 237.913 23.8116C238.798 24.3516 242.334 26.8755 242.248 32.7595C242.179 37.479 238.263 41.2536 233.544 41.2536H230.441C225.704 41.2536 221.763 37.5184 221.624 32.8157C221.624 31.7807 220.784 30.9406 219.749 30.9406C218.714 30.9406 217.874 31.7807 217.874 32.8157C218.059 39.5566 223.653 45.0037 230.446 45.0037H233.561C240.459 45.0037 246.013 39.3597 246 32.4632C245.991 26.4161 244.929 20.5077 244.882 20.2602V20.2583Z" fill="black"/>
</svg>
