<svg width="128" height="50" viewBox="0 0 128 50" fill="none" xmlns="http://www.w3.org/2000/svg">
<rect width="128" height="50" rx="20" fill="#DDAC7E"/>
<path d="M59.6216 16.28H62.3016V29.58H59.6216V16.28ZM49.9616 32.34H62.7616V34.46H49.9616V32.34ZM49.9616 28.24H52.6216V33.2H49.9616V28.24ZM52.2216 17.44C55.0616 17.44 57.2416 19.4 57.2416 22.14C57.2416 24.86 55.0616 26.84 52.2216 26.84C49.3816 26.84 47.1816 24.86 47.1816 22.14C47.1816 19.4 49.3816 17.44 52.2216 17.44ZM52.2216 19.74C50.8416 19.74 49.7816 20.62 49.7816 22.14C49.7816 23.64 50.8416 24.52 52.2216 24.52C53.5816 24.52 54.6416 23.64 54.6416 22.14C54.6416 20.62 53.5816 19.74 52.2216 19.74ZM69.46 19.88H71.62V20.6C71.62 23.98 69.98 27 66.46 28.1L65.18 26.02C68.18 25.08 69.46 22.84 69.46 20.6V19.88ZM69.94 19.88H72.12V20.6C72.12 22.68 73.42 24.82 76.42 25.72L75.14 27.8C71.64 26.76 69.94 23.84 69.94 20.6V19.88ZM65.82 18.44H75.76V20.52H65.82V18.44ZM69.46 16.4H72.12V19.22H69.46V16.4ZM75.18 21.64H79.48V23.82H75.18V21.64ZM78.14 16.28H80.8V29.98H78.14V16.28ZM68.58 32.34H81.22V34.46H68.58V32.34ZM68.58 28.84H71.24V33.74H68.58V28.84Z" fill="white"/>
</svg>
