<svg width="128" height="50" viewBox="0 0 128 50" fill="none" xmlns="http://www.w3.org/2000/svg">
<rect width="128" height="50" rx="20" fill="#DDAC7E"/>
<path d="M56.2416 22.04H61.1216V24.18H56.2416V22.04ZM51.2016 17.68H53.3616V20.36C53.3616 25.02 51.7816 29.32 48.3016 31.06L46.6416 28.92C49.8016 27.46 51.2016 23.88 51.2016 20.36V17.68ZM51.7616 17.68H53.8816V20.36C53.8816 23.88 55.2216 27.26 58.2816 28.62L56.7016 30.74C53.2216 29.06 51.7616 24.98 51.7616 20.36V17.68ZM59.8016 16.24H62.4416V34.82H59.8016V16.24ZM72.32 25.08H74.98V27.66H72.32V25.08ZM73.68 16.44C77.9 16.44 80.38 17.54 80.38 19.58C80.38 21.62 77.9 22.74 73.68 22.74C69.44 22.74 66.98 21.62 66.98 19.58C66.98 17.54 69.44 16.44 73.68 16.44ZM73.68 18.38C71 18.38 69.74 18.76 69.74 19.58C69.74 20.44 71 20.8 73.68 20.8C76.36 20.8 77.62 20.44 77.62 19.58C77.62 18.76 76.36 18.38 73.68 18.38ZM65.3 23.54H82.04V25.64H65.3V23.54ZM67.22 26.84H80.02V31.6H69.86V33.24H67.24V29.76H77.4V28.82H67.22V26.84ZM67.24 32.66H80.5V34.66H67.24V32.66Z" fill="white"/>
</svg>
