<svg width="1150" height="133" viewBox="0 0 1150 133" fill="none" xmlns="http://www.w3.org/2000/svg">
<rect y="23" width="1150" height="110" rx="30" fill="#352018"/>
<path d="M43 23C43 10.2975 53.2975 0 66 0H245C257.703 0 268 10.2975 268 23C268 35.7025 257.703 46 245 46H66C53.2974 46 43 35.7025 43 23Z" fill="#8A5642"/>
<path d="M105.984 16.744H107.712V18.904C107.712 22.568 106.432 26.008 103.632 27.384L102.352 25.672C104.848 24.504 105.984 21.656 105.984 18.904V16.744ZM106.416 16.744H108.112V18.904C108.112 21.56 109.168 24.264 111.536 25.416L110.256 27.112C107.584 25.752 106.416 22.456 106.416 18.904V16.744ZM112.128 15.608H114.272V30.424H112.128V15.608ZM113.792 21.304H116.416V23.08H113.792V21.304ZM120.782 24.248H122.862V27.736H120.782V24.248ZM125.47 24.232H127.55V27.736H125.47V24.232ZM117.39 27.064H130.798V28.792H117.39V27.064ZM118.894 16.568H129.294V21.48H121.038V23.992H118.926V19.816H127.182V18.248H118.894V16.568ZM118.926 23.096H129.63V24.808H118.926V23.096ZM139.69 29.1705C138.887 29.1705 138.194 29.0265 137.611 28.7386C137.027 28.4508 136.579 28.0606 136.264 27.5682C135.954 27.072 135.798 26.5189 135.798 25.9091C135.798 25.4545 135.889 25.0511 136.071 24.6989C136.253 24.3466 136.507 24.0227 136.832 23.7273C137.158 23.428 137.537 23.1307 137.969 22.8352L140.224 21.3523C140.516 21.1667 140.73 20.9716 140.866 20.767C141.003 20.5587 141.071 20.3333 141.071 20.0909C141.071 19.8598 140.978 19.6458 140.793 19.4489C140.607 19.2519 140.344 19.1553 140.003 19.1591C139.776 19.1591 139.579 19.2102 139.412 19.3125C139.245 19.411 139.115 19.5417 139.02 19.7045C138.929 19.8636 138.884 20.0417 138.884 20.2386C138.884 20.4811 138.952 20.7273 139.088 20.9773C139.224 21.2273 139.406 21.4924 139.634 21.7727C139.861 22.0492 140.109 22.3485 140.378 22.6705L145.895 29H143.372L138.77 23.875C138.467 23.5303 138.164 23.1705 137.861 22.7955C137.562 22.4167 137.312 22.0152 137.111 21.5909C136.91 21.1629 136.81 20.6989 136.81 20.1989C136.81 19.6345 136.94 19.1269 137.202 18.6761C137.467 18.2254 137.838 17.8693 138.315 17.608C138.793 17.3428 139.349 17.2102 139.986 17.2102C140.607 17.2102 141.143 17.3371 141.594 17.5909C142.048 17.8409 142.397 18.1742 142.639 18.5909C142.885 19.0038 143.009 19.4583 143.009 19.9545C143.009 20.5038 142.872 21.0019 142.599 21.4489C142.33 21.892 141.952 22.2898 141.463 22.642L139.088 24.3523C138.766 24.5871 138.527 24.8277 138.372 25.0739C138.221 25.3163 138.145 25.5492 138.145 25.7727C138.145 26.0492 138.213 26.2973 138.349 26.517C138.486 26.7367 138.679 26.911 138.929 27.0398C139.179 27.1648 139.473 27.2273 139.81 27.2273C140.219 27.2273 140.622 27.1345 141.02 26.9489C141.421 26.7595 141.785 26.4924 142.111 26.1477C142.44 25.7992 142.704 25.3864 142.901 24.9091C143.098 24.4318 143.196 23.9034 143.196 23.3239H145.202C145.202 24.036 145.124 24.678 144.969 25.25C144.813 25.8182 144.598 26.3144 144.321 26.7386C144.045 27.1591 143.728 27.5038 143.372 27.7727C143.259 27.8447 143.149 27.9129 143.043 27.9773C142.937 28.0417 142.827 28.1098 142.713 28.1818C142.281 28.5303 141.798 28.7822 141.264 28.9375C140.734 29.0928 140.209 29.1705 139.69 29.1705ZM159.801 15.608H161.945V26.216H159.801V15.608ZM161.337 19.736H163.913V21.48H161.337V19.736ZM155.673 16.712H157.945C157.945 20.744 155.481 23.512 151.065 24.792L150.169 23.096C153.801 22.104 155.673 20.12 155.673 17.768V16.712ZM150.809 16.712H156.825V18.424H150.809V16.712ZM152.361 28.472H162.441V30.168H152.361V28.472ZM152.361 25.144H154.505V29.224H152.361V25.144ZM168.471 16.28H170.231V17.704C170.231 20.504 168.871 23.048 165.975 23.976L164.935 22.296C167.431 21.496 168.471 19.576 168.471 17.704V16.28ZM168.903 16.28H170.647V17.704C170.647 19.528 171.671 21.32 174.087 22.056L173.047 23.72C170.215 22.824 168.903 20.456 168.903 17.704V16.28ZM167.207 25.096H177.319V30.424H175.175V26.792H167.207V25.096ZM175.175 15.608H177.319V24.44H175.175V15.608ZM187.315 29.1705C186.512 29.1705 185.819 29.0265 185.236 28.7386C184.652 28.4508 184.204 28.0606 183.889 27.5682C183.579 27.072 183.423 26.5189 183.423 25.9091C183.423 25.4545 183.514 25.0511 183.696 24.6989C183.878 24.3466 184.132 24.0227 184.457 23.7273C184.783 23.428 185.162 23.1307 185.594 22.8352L187.849 21.3523C188.141 21.1667 188.355 20.9716 188.491 20.767C188.628 20.5587 188.696 20.3333 188.696 20.0909C188.696 19.8598 188.603 19.6458 188.418 19.4489C188.232 19.2519 187.969 19.1553 187.628 19.1591C187.401 19.1591 187.204 19.2102 187.037 19.3125C186.87 19.411 186.74 19.5417 186.645 19.7045C186.554 19.8636 186.509 20.0417 186.509 20.2386C186.509 20.4811 186.577 20.7273 186.713 20.9773C186.849 21.2273 187.031 21.4924 187.259 21.7727C187.486 22.0492 187.734 22.3485 188.003 22.6705L193.52 29H190.997L186.395 23.875C186.092 23.5303 185.789 23.1705 185.486 22.7955C185.187 22.4167 184.937 22.0152 184.736 21.5909C184.535 21.1629 184.435 20.6989 184.435 20.1989C184.435 19.6345 184.565 19.1269 184.827 18.6761C185.092 18.2254 185.463 17.8693 185.94 17.608C186.418 17.3428 186.974 17.2102 187.611 17.2102C188.232 17.2102 188.768 17.3371 189.219 17.5909C189.673 17.8409 190.022 18.1742 190.264 18.5909C190.51 19.0038 190.634 19.4583 190.634 19.9545C190.634 20.5038 190.497 21.0019 190.224 21.4489C189.955 21.892 189.577 22.2898 189.088 22.642L186.713 24.3523C186.391 24.5871 186.152 24.8277 185.997 25.0739C185.846 25.3163 185.77 25.5492 185.77 25.7727C185.77 26.0492 185.838 26.2973 185.974 26.517C186.111 26.7367 186.304 26.911 186.554 27.0398C186.804 27.1648 187.098 27.2273 187.435 27.2273C187.844 27.2273 188.247 27.1345 188.645 26.9489C189.046 26.7595 189.41 26.4924 189.736 26.1477C190.065 25.7992 190.329 25.3864 190.526 24.9091C190.723 24.4318 190.821 23.9034 190.821 23.3239H192.827C192.827 24.036 192.749 24.678 192.594 25.25C192.438 25.8182 192.223 26.3144 191.946 26.7386C191.67 27.1591 191.353 27.5038 190.997 27.7727C190.884 27.8447 190.774 27.9129 190.668 27.9773C190.562 28.0417 190.452 28.1098 190.338 28.1818C189.906 28.5303 189.423 28.7822 188.889 28.9375C188.359 29.0928 187.834 29.1705 187.315 29.1705ZM203.522 22.728H205.65V24.792H203.522V22.728ZM197.906 21.48H211.298V23.144H197.906V21.48ZM199.554 16.04H209.602V20.696H199.554V16.04ZM207.506 17.688H201.65V19.064H207.506V17.688ZM199.442 24.072H209.682V27.88H201.554V29.192H199.458V26.408H207.586V25.656H199.442V24.072ZM199.458 28.728H210.066V30.328H199.458V28.728Z" fill="white"/>
<path d="M58.48 64.24H62.16V66.34H58.48V64.24ZM58.48 67.72H62.16V69.84H58.48V67.72ZM48.26 62.48H58.04V64.6H48.26V62.48ZM48.06 71.9L47.8 69.74C50.78 69.74 54.94 69.7 58.28 69.32L58.42 71.26C54.98 71.84 51 71.9 48.06 71.9ZM49.72 64.26H52.28V70.52H49.72V64.26ZM54.02 64.26H56.56V70.52H54.02V64.26ZM60.64 61.26H63.3V72.58H60.64V61.26ZM57.02 72.86C60.96 72.86 63.36 74.12 63.36 76.34C63.36 78.52 60.96 79.78 57.02 79.78C53.08 79.78 50.68 78.52 50.68 76.34C50.68 74.12 53.08 72.86 57.02 72.86ZM57.02 74.88C54.6 74.88 53.34 75.34 53.34 76.34C53.34 77.3 54.6 77.78 57.02 77.78C59.46 77.78 60.72 77.3 60.72 76.34C60.72 75.34 59.46 74.88 57.02 74.88ZM70.2584 62.26H72.4384V63.9C72.4384 67.58 70.8384 70.82 67.3184 72.04L65.8984 69.94C68.9984 68.9 70.2584 66.42 70.2584 63.9V62.26ZM70.7984 62.26H72.9584V64.16C72.9584 66.38 74.1984 68.54 77.0984 69.44L75.7184 71.5C72.3784 70.38 70.7984 67.5 70.7984 64.16V62.26ZM78.1184 61.26H80.7784V72.2H78.1184V61.26ZM80.0384 65.54H83.2384V67.74H80.0384V65.54ZM74.7384 72.62C78.5784 72.62 80.9984 73.96 80.9984 76.2C80.9984 78.46 78.5784 79.78 74.7384 79.78C70.8784 79.78 68.4584 78.46 68.4584 76.2C68.4584 73.96 70.8784 72.62 74.7384 72.62ZM74.7384 74.68C72.3784 74.68 71.0984 75.18 71.0984 76.2C71.0984 77.24 72.3784 77.72 74.7384 77.72C77.0984 77.72 78.3584 77.24 78.3584 76.2C78.3584 75.18 77.0984 74.68 74.7384 74.68ZM89.1169 62.68H91.2769V65.38C91.2769 70.14 89.6369 74.44 85.9569 76.14L84.3769 73.94C87.5969 72.54 89.1169 68.98 89.1169 65.38V62.68ZM89.6369 62.68H91.7969V65.38C91.7969 68.8 93.2569 72.2 96.4169 73.56L94.8569 75.7C91.2769 74.06 89.6369 69.94 89.6369 65.38V62.68ZM97.2969 61.24H99.9769V79.82H97.2969V61.24ZM110.758 73.08H123.378V79.8H120.718V75.16H110.758V73.08ZM120.718 61.26H123.378V72.22H120.718V61.26ZM116.938 65.68H121.378V67.82H116.938V65.68ZM108.638 62.6H117.398V71.22H108.638V62.6ZM114.778 64.7H111.258V69.14H114.778V64.7ZM127.377 70.18H128.857C132.157 70.18 134.237 70.08 136.597 69.64L136.817 71.76C134.417 72.2 132.237 72.3 128.857 72.3H127.377V70.18ZM127.377 62.52H135.777V64.64H130.017V70.72H127.377V62.52ZM139.117 61.26H141.777V74.74H139.117V61.26ZM134.717 66.08H139.617V68.18H134.717V66.08ZM129.537 77.38H142.197V79.5H129.537V77.38ZM129.537 73.64H132.217V78.76H129.537V73.64ZM153.718 62.68H155.878V65.38C155.878 69.96 154.278 74.26 150.778 75.98L149.178 73.84C152.298 72.38 153.718 68.82 153.718 65.38V62.68ZM154.258 62.68H156.378V65.38C156.378 68.7 157.698 72.08 160.658 73.52L159.058 75.64C155.718 73.94 154.258 69.82 154.258 65.38V62.68ZM161.398 61.26H164.078V79.78H161.398V61.26ZM163.478 68.38H166.758V70.6H163.478V68.38ZM172.216 72.06H174.816V76.42H172.216V72.06ZM178.076 72.04H180.676V76.42H178.076V72.04ZM167.976 75.58H184.736V77.74H167.976V75.58ZM169.856 62.46H182.856V68.6H172.536V71.74H169.896V66.52H180.216V64.56H169.856V62.46ZM169.896 70.62H183.276V72.76H169.896V70.62ZM190.515 70.64H193.175V75.02H190.515V70.64ZM191.815 62.34C194.675 62.34 196.855 64.24 196.855 66.9C196.855 69.56 194.675 71.46 191.815 71.46C188.935 71.46 186.775 69.56 186.775 66.9C186.775 64.24 188.935 62.34 191.815 62.34ZM191.815 64.6C190.415 64.6 189.375 65.44 189.375 66.9C189.375 68.34 190.415 69.2 191.815 69.2C193.215 69.2 194.255 68.34 194.255 66.9C194.255 65.44 193.215 64.6 191.815 64.6ZM198.315 61.26H200.975V79.78H198.315V61.26ZM200.155 68.5H203.415V70.72H200.155V68.5ZM186.475 76.1L186.155 73.96C189.355 73.94 193.675 73.96 197.355 73.46L197.555 75.4C193.715 76.12 189.595 76.12 186.475 76.1ZM221.536 61.26H224.216V74.52H221.536V61.26ZM223.456 66.42H226.676V68.6H223.456V66.42ZM216.376 62.64H219.216C219.216 67.68 216.136 71.14 210.616 72.74L209.496 70.62C214.036 69.38 216.376 66.9 216.376 63.96V62.64ZM210.296 62.64H217.816V64.78H210.296V62.64ZM212.236 77.34H224.836V79.46H212.236V77.34ZM212.236 73.18H214.916V78.28H212.236V73.18ZM232.374 62.1H234.574V63.88C234.574 67.38 232.874 70.56 229.254 71.72L227.954 69.62C231.074 68.62 232.374 66.22 232.374 63.88V62.1ZM232.914 62.1H235.094V63.88C235.094 66.16 236.374 68.4 239.394 69.32L238.094 71.4C234.554 70.28 232.914 67.32 232.914 63.88V62.1ZM230.794 73.12H243.434V79.78H240.754V75.24H230.794V73.12ZM240.754 61.26H243.434V72.3H240.754V61.26ZM254.813 61.52C259.033 61.52 261.513 62.64 261.513 64.68C261.513 66.72 259.033 67.84 254.813 67.84C250.573 67.84 248.113 66.72 248.113 64.68C248.113 62.64 250.573 61.52 254.813 61.52ZM254.813 63.46C252.133 63.46 250.873 63.86 250.873 64.68C250.873 65.54 252.133 65.9 254.813 65.9C257.493 65.9 258.753 65.54 258.753 64.68C258.753 63.86 257.493 63.46 254.813 63.46ZM246.433 68.7H263.173V70.8H246.433V68.7ZM248.353 71.84H261.153V76.6H250.993V78.24H248.373V74.76H258.533V73.82H248.353V71.84ZM248.373 77.66H261.633V79.66H248.373V77.66ZM273.774 62.26H275.954V63.9C275.954 67.58 274.354 70.82 270.834 72.04L269.414 69.94C272.514 68.9 273.774 66.42 273.774 63.9V62.26ZM274.314 62.26H276.474V64.16C276.474 66.38 277.714 68.54 280.614 69.44L279.234 71.5C275.894 70.38 274.314 67.5 274.314 64.16V62.26ZM281.634 61.26H284.294V72.2H281.634V61.26ZM283.554 65.54H286.754V67.74H283.554V65.54ZM278.254 72.62C282.094 72.62 284.514 73.96 284.514 76.2C284.514 78.46 282.094 79.78 278.254 79.78C274.394 79.78 271.974 78.46 271.974 76.2C271.974 73.96 274.394 72.62 278.254 72.62ZM278.254 74.68C275.894 74.68 274.614 75.18 274.614 76.2C274.614 77.24 275.894 77.72 278.254 77.72C280.614 77.72 281.874 77.24 281.874 76.2C281.874 75.18 280.614 74.68 278.254 74.68ZM299.993 61.26H302.633V79.78H299.993V61.26ZM302.033 68.48H305.313V70.7H302.033V68.48ZM288.033 64H298.813V66.12H288.033V64ZM293.453 67.16C296.153 67.16 298.153 69 298.153 71.58C298.153 74.16 296.153 76 293.453 76C290.753 76 288.753 74.16 288.753 71.58C288.753 69 290.753 67.16 293.453 67.16ZM293.453 69.32C292.193 69.32 291.293 70.16 291.293 71.58C291.293 73 292.193 73.84 293.453 73.84C294.713 73.84 295.613 73 295.613 71.58C295.613 70.16 294.713 69.32 293.453 69.32ZM292.113 61.56H294.773V64.8H292.113V61.56ZM310.971 64.18H313.091V66.26C313.091 70.54 311.351 74.72 307.871 76.3L306.371 74.2C309.471 72.82 310.971 69.4 310.971 66.26V64.18ZM311.571 64.18H313.671V66.26C313.671 69.26 315.151 72.46 318.251 73.74L316.811 75.84C313.291 74.32 311.571 70.38 311.571 66.26V64.18ZM307.111 63.04H317.491V65.22H307.111V63.04ZM319.211 61.26H321.891V79.78H319.211V61.26ZM334.852 62.14C337.692 62.14 339.792 63.94 339.792 66.46C339.792 69 337.692 70.8 334.852 70.8C332.032 70.8 329.912 69 329.912 66.46C329.912 63.94 332.032 62.14 334.852 62.14ZM334.852 64.3C333.512 64.3 332.492 65.12 332.492 66.46C332.492 67.82 333.512 68.64 334.852 68.64C336.212 68.64 337.232 67.82 337.232 66.46C337.232 65.12 336.212 64.3 334.852 64.3ZM341.712 61.26H344.372V70.38H341.712V61.26ZM343.312 65.1H346.832V67.26H343.312V65.1ZM331.432 77.18H332.452C334.072 77.18 335.492 77.06 336.852 76.6L337.252 78.68C335.712 79.22 334.272 79.3 332.452 79.3H331.432V77.18ZM331.432 72.16H334.012V77.82H331.432V72.16ZM336.592 72.22H345.852V74.12H336.592V72.22ZM341.232 74.58C343.332 74.58 344.792 75.6 344.792 77.2C344.792 78.8 343.332 79.8 341.232 79.8C339.112 79.8 337.652 78.8 337.652 77.2C337.652 75.6 339.112 74.58 341.232 74.58ZM341.232 76.4C340.512 76.4 340.012 76.66 340.012 77.2C340.012 77.74 340.512 78 341.232 78C341.912 78 342.432 77.74 342.432 77.2C342.432 76.66 341.912 76.4 341.232 76.4ZM339.952 70.9H342.532V73.64H339.952V70.9ZM350.151 69.52H363.171V71.64H350.151V69.52ZM348.211 75.52H364.971V77.7H348.211V75.52ZM355.231 70.48H357.891V76.22H355.231V70.48ZM350.151 62.52H363.031V64.66H352.811V70.44H350.151V62.52ZM366.589 71.18H383.369V73.3H366.589V71.18ZM368.649 61.62H381.329V66.64H371.309V68.64H368.669V64.76H378.709V63.64H368.649V61.62ZM368.669 67.84H381.689V69.86H368.669V67.84ZM373.649 68.82H376.309V72.34H373.649V68.82ZM368.449 74.34H381.449V79.72H378.789V76.44H368.449V74.34ZM390.81 62.18H399.79V70.02H390.81V62.18ZM397.19 64.26H393.41V67.94H397.19V64.26ZM402.59 61.26H405.27V70.6H402.59V61.26ZM392.91 71.4H405.27V76.44H395.55V78.32H392.93V74.54H402.63V73.44H392.91V71.4ZM392.93 77.6H405.73V79.66H392.93V77.6ZM408.269 70.2H425.009V72.3H408.269V70.2ZM415.289 68.02H417.949V70.76H415.289V68.02ZM416.609 73.18C420.629 73.18 423.029 74.38 423.029 76.48C423.029 78.62 420.629 79.78 416.609 79.78C412.589 79.78 410.189 78.62 410.189 76.48C410.189 74.38 412.589 73.18 416.609 73.18ZM416.609 75.18C414.109 75.18 412.869 75.58 412.869 76.48C412.869 77.4 414.109 77.8 416.609 77.8C419.089 77.8 420.329 77.4 420.329 76.48C420.329 75.58 419.089 75.18 416.609 75.18ZM410.409 61.78H413.029V63.34H420.249V61.78H422.889V68.8H410.409V61.78ZM413.029 65.34V66.72H420.249V65.34H413.029ZM431.57 75.54H448.33V77.72H431.57V75.54ZM438.57 71.36H441.23V76.52H438.57V71.36ZM432.85 62.78H446.95V64.9H432.85V62.78ZM432.93 70.16H446.89V72.24H432.93V70.16ZM435.37 64.54H438.03V70.4H435.37V64.54ZM441.79 64.54H444.43V70.4H441.79V64.54ZM454.068 63.32H456.248V64.48C456.248 68.02 454.588 71.2 451.008 72.38L449.688 70.28C452.768 69.26 454.068 66.84 454.068 64.48V63.32ZM454.608 63.32H456.768V64.48C456.768 66.64 458.008 68.76 460.988 69.66L459.728 71.74C456.208 70.68 454.608 67.78 454.608 64.48V63.32ZM450.388 62.5H460.388V64.62H450.388V62.5ZM461.868 61.26H464.528V72.24H461.868V61.26ZM463.788 65.52H466.988V67.7H463.788V65.52ZM458.488 72.58C462.328 72.58 464.748 73.92 464.748 76.18C464.748 78.44 462.328 79.78 458.488 79.78C454.628 79.78 452.208 78.44 452.208 76.18C452.208 73.92 454.628 72.58 458.488 72.58ZM458.488 74.66C456.128 74.66 454.848 75.14 454.848 76.18C454.848 77.22 456.128 77.74 458.488 77.74C460.848 77.74 462.108 77.22 462.108 76.18C462.108 75.14 460.848 74.66 458.488 74.66ZM468.327 64.04H477.187V66.16H468.327V64.04ZM472.787 66.98C475.147 66.98 476.847 68.8 476.847 71.4C476.847 73.98 475.147 75.8 472.787 75.8C470.447 75.8 468.727 73.98 468.727 71.4C468.727 68.8 470.447 66.98 472.787 66.98ZM472.787 69.2C471.787 69.2 471.087 70 471.087 71.4C471.087 72.8 471.787 73.58 472.787 73.58C473.787 73.58 474.507 72.8 474.507 71.4C474.507 70 473.787 69.2 472.787 69.2ZM481.727 61.26H484.267V79.78H481.727V61.26ZM479.507 68.78H482.567V70.92H479.507V68.78ZM477.847 61.6H480.327V79H477.847V61.6ZM471.487 61.76H474.107V65.38H471.487V61.76ZM498.488 63.32H500.788V63.86C500.788 67.12 498.128 69.78 493.428 70.42L492.448 68.34C496.528 67.84 498.488 65.76 498.488 63.86V63.32ZM499.248 63.32H501.548V63.86C501.548 65.76 503.508 67.84 507.588 68.34L506.628 70.42C501.908 69.78 499.248 67.12 499.248 63.86V63.32ZM498.628 73H501.268V79.8H498.628V73ZM491.648 71.48H508.388V73.6H491.648V71.48ZM493.128 62.2H506.868V64.3H493.128V62.2ZM517.327 67.48H520.387V69.64H517.327V67.48ZM513.367 62.86H515.407V65.98C515.407 70.18 514.247 74.28 511.287 76.1L509.687 74.1C512.407 72.42 513.367 69.12 513.367 65.98V62.86ZM513.947 62.86H515.947V65.86C515.947 68.88 516.727 71.96 519.247 73.6L517.807 75.68C514.867 73.86 513.947 69.86 513.947 65.86V62.86ZM523.407 61.26H525.947V79.78H523.407V61.26ZM519.647 61.54H522.127V78.94H519.647V61.54ZM532.125 70.66H534.765V75.86H532.125V70.66ZM538.845 70.66H541.505V75.86H538.845V70.66ZM528.445 75.48H545.205V77.64H528.445V75.48ZM536.805 62.16C540.785 62.16 543.725 64.12 543.725 67.14C543.725 70.16 540.785 72.1 536.805 72.1C532.805 72.1 529.885 70.16 529.885 67.14C529.885 64.12 532.805 62.16 536.805 62.16ZM536.805 64.24C534.225 64.24 532.505 65.3 532.505 67.14C532.505 68.96 534.225 70.04 536.805 70.04C539.385 70.04 541.105 68.96 541.105 67.14C541.105 65.3 539.385 64.24 536.805 64.24ZM58.48 91.24H62.16V93.34H58.48V91.24ZM58.48 94.72H62.16V96.84H58.48V94.72ZM48.26 89.48H58.04V91.6H48.26V89.48ZM48.06 98.9L47.8 96.74C50.78 96.74 54.94 96.7 58.28 96.32L58.42 98.26C54.98 98.84 51 98.9 48.06 98.9ZM49.72 91.26H52.28V97.52H49.72V91.26ZM54.02 91.26H56.56V97.52H54.02V91.26ZM60.64 88.26H63.3V99.58H60.64V88.26ZM57.02 99.86C60.96 99.86 63.36 101.12 63.36 103.34C63.36 105.52 60.96 106.78 57.02 106.78C53.08 106.78 50.68 105.52 50.68 103.34C50.68 101.12 53.08 99.86 57.02 99.86ZM57.02 101.88C54.6 101.88 53.34 102.34 53.34 103.34C53.34 104.3 54.6 104.78 57.02 104.78C59.46 104.78 60.72 104.3 60.72 103.34C60.72 102.34 59.46 101.88 57.02 101.88ZM66.2184 102.44H82.9784V104.62H66.2184V102.44ZM73.1784 98.32H75.8184V103.02H73.1784V98.32ZM73.0784 89.28H75.3984V90.62C75.3984 94.56 72.5384 98.04 67.6984 98.92L66.5984 96.7C70.8184 96.02 73.0784 93.18 73.0784 90.62V89.28ZM73.5984 89.28H75.9184V90.62C75.9184 93.24 78.1784 96.02 82.4184 96.7L81.3184 98.92C76.4584 98.02 73.5984 94.62 73.5984 90.62V89.28ZM84.6169 102.48H101.377V104.64H84.6169V102.48ZM91.6369 98.52H94.2969V103H91.6369V98.52ZM86.3769 89.44H89.0169V92.28H96.9169V89.44H99.5569V99.08H86.3769V89.44ZM89.0169 94.36V96.96H96.9169V94.36H89.0169ZM114.835 88.24H117.515V106.82H114.835V88.24ZM116.915 95.1H120.195V97.28H116.915V95.1ZM103.715 100.16H105.275C108.395 100.16 110.855 100.06 113.575 99.58L113.835 101.78C111.035 102.28 108.495 102.36 105.275 102.36H103.715V100.16ZM103.715 89.96H112.355V92.1H106.355V101.22H103.715V89.96ZM126.797 89.9H129.297V94.06H131.657V89.9H134.117V102.4H126.797V89.9ZM129.297 96.14V100.28H131.657V96.14H129.297ZM139.657 88.26H142.197V106.78H139.657V88.26ZM137.377 95.32H140.457V97.46H137.377V95.32ZM135.597 88.54H138.097V105.94H135.597V88.54ZM146.395 89.82H158.135V91.96H146.395V89.82ZM144.695 102.4H161.435V104.56H144.695V102.4ZM150.615 96.04H153.275V103.46H150.615V96.04ZM157.175 89.82H159.835V91.6C159.835 93.92 159.835 96.52 159.095 100.48L156.435 100.18C157.175 96.5 157.175 93.82 157.175 91.6V89.82ZM163.313 89.96H173.533V92.08H163.313V89.96ZM163.113 102.56L162.833 100.38C166.053 100.38 170.413 100.34 174.073 99.88L174.213 101.82C170.473 102.48 166.273 102.56 163.113 102.56ZM164.893 91.62H167.473V100.96H164.893V91.62ZM169.373 91.62H171.953V100.96H169.373V91.62ZM174.913 88.26H177.593V106.78H174.913V88.26ZM176.993 95.28H180.273V97.46H176.993V95.28ZM193.392 88.24H196.052V98.24H193.392V88.24ZM194.992 92.2H198.512V94.36H194.992V92.2ZM183.812 98.98H196.052V103.68H186.492V105.36H183.852V101.88H193.432V100.9H183.812V98.98ZM183.852 104.7H196.592V106.66H183.852V104.7ZM181.472 89.62H192.372V91.62H181.472V89.62ZM186.932 92.06C189.672 92.06 191.472 93.24 191.472 95.1C191.472 96.96 189.672 98.1 186.932 98.1C184.172 98.1 182.372 96.96 182.372 95.1C182.372 93.24 184.172 92.06 186.932 92.06ZM186.932 93.92C185.692 93.92 184.932 94.32 184.932 95.1C184.932 95.84 185.692 96.24 186.932 96.24C188.172 96.24 188.932 95.84 188.932 95.1C188.932 94.32 188.172 93.92 186.932 93.92ZM185.592 88.12H188.252V91.04H185.592V88.12ZM211.733 88.8H214.073V89.66C214.073 93.22 211.273 96.24 206.413 96.96L205.373 94.82C209.633 94.26 211.733 91.84 211.733 89.66V88.8ZM212.233 88.8H214.553V89.66C214.553 91.82 216.673 94.26 220.913 94.82L219.893 96.96C215.033 96.24 212.233 93.22 212.233 89.66V88.8ZM211.753 100H214.393V106.78H211.753V100ZM204.773 98.32H221.513V100.48H204.773V98.32ZM232.194 99.5H234.194V100.12C234.194 102.92 232.954 105.48 230.054 106.52L228.754 104.58C231.174 103.76 232.194 101.92 232.194 100.12V99.5ZM232.874 99.5H234.774V100.12C234.774 101.92 235.674 103.8 237.934 104.74L236.874 106.7C233.934 105.6 232.874 102.84 232.874 100.12V99.5ZM238.954 99.5H240.854V100.12C240.854 102.68 239.754 105.56 236.874 106.7L235.774 104.74C238.034 103.72 238.954 101.76 238.954 100.12V99.5ZM239.574 99.5H241.574V100.12C241.574 102.04 242.574 103.82 245.014 104.58L243.714 106.52C240.774 105.52 239.574 103.04 239.574 100.12V99.5ZM240.754 88.28H243.434V98.74H240.754V88.28ZM233.354 89.22C236.234 89.22 238.374 91.06 238.374 93.66C238.374 96.24 236.234 98.08 233.354 98.08C230.474 98.08 228.314 96.24 228.314 93.66C228.314 91.06 230.474 89.22 233.354 89.22ZM233.354 91.42C231.954 91.42 230.914 92.24 230.914 93.66C230.914 95.06 231.954 95.88 233.354 95.88C234.754 95.88 235.774 95.06 235.774 93.66C235.774 92.24 234.754 91.42 233.354 91.42ZM254.813 89.18C258.713 89.18 261.733 91.32 261.733 94.54C261.733 97.78 258.713 99.9 254.813 99.9C250.913 99.9 247.893 97.78 247.893 94.54C247.893 91.32 250.913 89.18 254.813 89.18ZM254.813 91.34C252.293 91.34 250.493 92.54 250.493 94.54C250.493 96.52 252.293 97.72 254.813 97.72C257.333 97.72 259.133 96.52 259.133 94.54C259.133 92.54 257.333 91.34 254.813 91.34ZM246.453 102.38H263.213V104.56H246.453V102.38ZM277.651 88.26H280.311V106.78H277.651V88.26ZM265.811 90.02H268.451V101.52H265.811V90.02ZM265.811 99.96H267.451C270.151 99.96 273.151 99.76 276.211 99.16L276.511 101.36C273.331 102.02 270.271 102.22 267.451 102.22H265.811V99.96ZM296.393 92.04H301.433V94.18H296.393V92.04ZM296.393 97.78H301.433V99.92H296.393V97.78ZM293.192 89.54C295.953 89.54 297.973 92.1 297.973 96.14C297.973 100.22 295.953 102.78 293.192 102.78C290.413 102.78 288.413 100.22 288.413 96.14C288.413 92.1 290.413 89.54 293.192 89.54ZM293.192 91.96C291.853 91.96 290.933 93.42 290.933 96.14C290.933 98.9 291.853 100.38 293.192 100.38C294.553 100.38 295.453 98.9 295.453 96.14C295.453 93.42 294.553 91.96 293.192 91.96ZM301.013 88.24H303.653V106.82H301.013V88.24ZM306.511 97.74H323.271V99.84H306.511V97.74ZM313.771 98.86H316.451V102.76H313.771V98.86ZM308.451 104.34H321.431V106.46H308.451V104.34ZM308.451 101.36H311.091V105.24H308.451V101.36ZM308.651 88.84H311.271V90.74H318.491V88.84H321.131V96.46H308.651V88.84ZM311.271 92.74V94.38H318.491V92.74H311.271ZM333.952 89.68H336.112V92.38C336.112 96.96 334.512 101.26 331.012 102.98L329.412 100.84C332.532 99.38 333.952 95.82 333.952 92.38V89.68ZM334.492 89.68H336.612V92.38C336.612 95.7 337.932 99.08 340.892 100.52L339.292 102.64C335.952 100.94 334.492 96.82 334.492 92.38V89.68ZM341.632 88.26H344.312V106.78H341.632V88.26ZM343.712 95.38H346.992V97.6H343.712V95.38ZM352.451 99.06H355.051V103.42H352.451V99.06ZM358.311 99.04H360.911V103.42H358.311V99.04ZM348.211 102.58H364.971V104.74H348.211V102.58ZM350.091 89.46H363.091V95.6H352.771V98.74H350.131V93.52H360.451V91.56H350.091V89.46ZM350.131 97.62H363.511V99.76H350.131V97.62ZM368.549 96.52H381.569V98.64H368.549V96.52ZM366.609 102.52H383.369V104.7H366.609V102.52ZM373.629 97.48H376.289V103.22H373.629V97.48ZM368.549 89.52H381.429V91.66H371.209V97.44H368.549V89.52ZM393.19 91.9H395.17V92.44C395.17 95.42 393.99 98.14 391.09 99.24L389.85 97.3C392.19 96.38 393.19 94.42 393.19 92.44V91.9ZM393.73 91.9H395.69V92.44C395.69 94.26 396.71 96.06 399.03 96.86L397.85 98.84C394.93 97.84 393.73 95.26 393.73 92.44V91.9ZM390.37 90.38H398.49V92.44H390.37V90.38ZM393.19 88.58H395.69V91.44H393.19V88.58ZM403.13 88.28H405.65V99.7H403.13V88.28ZM400.91 92.72H403.85V94.88H400.91V92.72ZM399.27 88.62H401.75V99.08H399.27V88.62ZM399.37 99.86C403.27 99.86 405.75 101.16 405.75 103.34C405.75 105.5 403.27 106.8 399.37 106.8C395.47 106.8 393.01 105.5 393.01 103.34C393.01 101.16 395.47 99.86 399.37 99.86ZM399.37 101.88C396.99 101.88 395.65 102.36 395.65 103.34C395.65 104.32 396.99 104.78 399.37 104.78C401.75 104.78 403.07 104.32 403.07 103.34C403.07 102.36 401.75 101.88 399.37 101.88ZM415.049 90.18H417.669C417.669 95.76 415.669 100.48 409.449 103.6L408.069 101.52C412.969 98.98 415.049 95.62 415.049 90.66V90.18ZM408.949 90.18H416.449V92.28H408.949V90.18ZM421.109 88.26H423.769V106.78H421.109V88.26ZM416.949 93H421.489V95.1H416.949V93ZM416.749 98.06H421.309V100.18H416.749V98.06ZM438.507 88.24H441.187V106.76H438.507V88.24ZM440.487 95.32H443.747V97.5H440.487V95.32ZM433.647 90.16H436.247C436.247 95.72 434.127 100.48 427.967 103.58L426.487 101.56C431.347 99.04 433.647 95.64 433.647 90.62V90.16ZM427.507 90.16H435.007V92.3H427.507V90.16ZM447.146 93.26H459.986V95.36H447.146V93.26ZM445.066 97.28H461.846V99.4H445.066V97.28ZM447.146 88.92H449.786V94.3H447.146V88.92ZM446.966 104.26H460.086V106.38H446.966V104.26ZM446.966 100.88H449.626V104.82H446.966V100.88ZM481.187 88.26H483.847V100.54H481.187V88.26ZM478.007 93.16H481.567V95.3H478.007V93.16ZM475.087 89.66H477.887C477.887 94.72 475.267 98.02 469.687 99.78L468.567 97.7C473.207 96.32 475.087 93.94 475.087 90.82V89.66ZM469.527 89.66H477.047V91.78H469.527V89.66ZM476.287 99.18H478.547V99.8C478.547 103.2 476.047 105.96 471.527 106.74L470.507 104.64C474.427 104.04 476.287 101.9 476.287 99.8V99.18ZM476.667 99.18H478.927V99.8C478.927 101.88 480.767 104.02 484.707 104.62L483.647 106.72C479.127 105.96 476.667 103.2 476.667 99.8V99.18ZM499.445 88.24H502.125V106.82H499.445V88.24ZM492.145 89.54C494.945 89.54 497.005 92.1 497.005 96.14C497.005 100.22 494.945 102.78 492.145 102.78C489.345 102.78 487.285 100.22 487.285 96.14C487.285 92.1 489.345 89.54 492.145 89.54ZM492.145 91.96C490.765 91.96 489.825 93.42 489.825 96.14C489.825 98.9 490.765 100.38 492.145 100.38C493.525 100.38 494.445 98.9 494.445 96.14C494.445 93.42 493.525 91.96 492.145 91.96ZM517.047 93.78H519.687V96.36H517.047V93.78ZM516.567 89.58H518.887V90.04C518.887 92.56 516.347 94.5 511.547 94.82L510.727 92.84C514.787 92.62 516.567 91.28 516.567 90.04V89.58ZM517.927 89.58H520.227V90.04C520.227 91.28 521.987 92.62 526.067 92.84L525.247 94.82C520.467 94.5 517.927 92.58 517.927 90.04V89.58ZM511.547 88.72H525.267V90.74H511.547V88.72ZM511.527 99.42H525.227V101.42H511.527V99.42ZM510.027 95.46H526.807V97.56H510.027V95.46ZM518.367 101.96C521.947 101.96 524.027 102.82 524.027 104.4C524.027 106 521.947 106.84 518.367 106.84C514.787 106.84 512.707 106 512.707 104.4C512.707 102.82 514.787 101.96 518.367 101.96ZM518.367 103.7C516.427 103.7 515.467 103.88 515.467 104.4C515.467 104.9 516.427 105.1 518.367 105.1C520.307 105.1 521.267 104.9 521.267 104.4C521.267 103.88 520.307 103.7 518.367 103.7ZM517.047 98.12H519.707V100.62H517.047V98.12ZM533.385 89.54C536.205 89.54 538.245 92.1 538.245 96.14C538.245 100.22 536.205 102.78 533.385 102.78C530.565 102.78 528.525 100.22 528.525 96.14C528.525 92.1 530.565 89.54 533.385 89.54ZM533.385 91.96C532.005 91.96 531.085 93.42 531.085 96.14C531.085 98.9 532.005 100.38 533.385 100.38C534.765 100.38 535.705 98.9 535.705 96.14C535.705 93.42 534.765 91.96 533.385 91.96ZM540.265 88.26H542.945V106.78H540.265V88.26ZM542.345 95.24H545.625V97.44H542.345V95.24ZM550.523 97.66H553.163V102.86H550.523V97.66ZM557.243 97.66H559.903V102.86H557.243V97.66ZM546.843 102.48H563.603V104.64H546.843V102.48ZM555.203 89.16C559.183 89.16 562.123 91.12 562.123 94.14C562.123 97.16 559.183 99.1 555.203 99.1C551.203 99.1 548.283 97.16 548.283 94.14C548.283 91.12 551.203 89.16 555.203 89.16ZM555.203 91.24C552.623 91.24 550.903 92.3 550.903 94.14C550.903 95.96 552.623 97.04 555.203 97.04C557.783 97.04 559.503 95.96 559.503 94.14C559.503 92.3 557.783 91.24 555.203 91.24Z" fill="white"/>
<path d="M85.1589 24.3344C85.4975 24.6657 85.709 25.1261 85.709 25.6365C85.709 26.6427 84.8923 27.4594 83.886 27.4594C82.8798 27.4594 82.0631 26.6427 82.0631 25.6365C82.0631 25.5469 82.0766 25.4615 82.0891 25.3761H78.912C78.9245 25.4615 78.9381 25.5469 78.9381 25.6365C78.9381 26.6427 78.1214 27.4594 77.1152 27.4594C76.1089 27.4594 75.2922 26.6427 75.2922 25.6365C75.2922 25.1261 75.5037 24.6657 75.8422 24.3344C75.5037 24.0032 75.2922 23.5427 75.2922 23.0323C75.2922 22.0261 76.1089 21.2094 77.1152 21.2094C78.1214 21.2094 78.9381 22.0261 78.9381 23.0323C78.9381 23.1219 78.9245 23.2073 78.912 23.2927H82.0891C82.0766 23.2073 82.0631 23.1219 82.0631 23.0323C82.0631 22.0261 82.8798 21.2094 83.886 21.2094C84.8923 21.2094 85.709 22.0261 85.709 23.0323C85.709 23.5427 85.4975 24.0032 85.1589 24.3344ZM92.0402 31.0042C91.1996 32.0615 89.9423 32.6678 88.5913 32.6678H72.4089C71.0589 32.6678 69.8016 32.0615 68.9599 31.0042C68.1183 29.9469 67.811 28.5865 68.1141 27.2698L69.7256 20.2854C70.3078 17.7625 72.5235 16 75.1131 16H85.8871C88.4767 16 90.6923 17.7625 91.2746 20.2854L92.8861 27.2688C93.1892 28.5855 92.8809 29.9469 92.0402 31.0042ZM90.8558 27.7375L89.2444 20.7542C88.8819 19.1813 87.5017 18.0833 85.8871 18.0833H75.1141C73.5006 18.0833 72.1193 19.1813 71.7568 20.7531L70.1453 27.7365C69.9849 28.4313 70.1474 29.148 70.5912 29.7063C71.0349 30.2646 71.6974 30.5834 72.4099 30.5834H88.5933C89.3058 30.5834 89.9683 30.2636 90.4121 29.7063C90.8558 29.149 91.0183 28.4313 90.8579 27.7365L90.8558 27.7375Z" fill="white"/>
</svg>
