<svg width="1200" height="133" viewBox="0 0 1200 133" fill="none" xmlns="http://www.w3.org/2000/svg">
<rect y="23" width="1200" height="110" rx="30" fill="#352018"/>
<path d="M43 23C43 10.2975 53.2975 0 66 0H245C257.703 0 268 10.2975 268 23C268 35.7025 257.703 46 245 46H66C53.2974 46 43 35.7025 43 23Z" fill="#8A5642"/>
<path d="M113.098 16.592H115.226V31.456H113.098V16.592ZM103.69 26.272H105.002C107.626 26.272 109.722 26.176 112.074 25.776L112.282 27.488C109.882 27.92 107.706 28 105.002 28H103.69V26.272ZM103.674 17.856H110.666V23.584H105.85V26.912H103.69V21.904H108.49V19.552H103.674V17.856ZM119.177 23.44H129.593V25.136H119.177V23.44ZM117.625 27.904H131.033V29.648H117.625V27.904ZM119.177 17.824H129.481V19.552H121.289V24.144H119.177V17.824ZM137.96 23.664H140.088V25.728H137.96V23.664ZM132.328 22.496H145.72V24.16H132.328V22.496ZM133.864 25.088H144.104V28.896H135.976V30.192H133.88V27.44H142.008V26.64H133.864V25.088ZM133.88 29.744H144.488V31.328H133.88V29.744ZM137.752 17.648H139.608V18.016C139.608 20.128 137.512 21.808 133.576 22.096L132.92 20.496C136.296 20.272 137.752 19.088 137.752 18.016V17.648ZM138.44 17.648H140.296V18.016C140.296 19.088 141.752 20.272 145.144 20.496L144.488 22.096C140.552 21.808 138.44 20.144 138.44 18.016V17.648ZM133.544 17.008H144.52V18.656H133.544V17.008ZM154.643 30.1705C153.84 30.1705 153.147 30.0265 152.564 29.7386C151.981 29.4508 151.532 29.0606 151.217 28.5682C150.907 28.072 150.751 27.5189 150.751 26.9091C150.751 26.4545 150.842 26.0511 151.024 25.6989C151.206 25.3466 151.46 25.0227 151.786 24.7273C152.111 24.428 152.49 24.1307 152.922 23.8352L155.178 22.3523C155.469 22.1667 155.683 21.9716 155.82 21.767C155.956 21.5587 156.024 21.3333 156.024 21.0909C156.024 20.8598 155.931 20.6458 155.746 20.4489C155.56 20.2519 155.297 20.1553 154.956 20.1591C154.729 20.1591 154.532 20.2102 154.365 20.3125C154.198 20.411 154.068 20.5417 153.973 20.7045C153.882 20.8636 153.837 21.0417 153.837 21.2386C153.837 21.4811 153.905 21.7273 154.041 21.9773C154.178 22.2273 154.359 22.4924 154.587 22.7727C154.814 23.0492 155.062 23.3485 155.331 23.6705L160.848 30H158.325L153.723 24.875C153.42 24.5303 153.117 24.1705 152.814 23.7955C152.515 23.4167 152.265 23.0152 152.064 22.5909C151.863 22.1629 151.763 21.6989 151.763 21.1989C151.763 20.6345 151.893 20.1269 152.155 19.6761C152.42 19.2254 152.791 18.8693 153.268 18.608C153.746 18.3428 154.303 18.2102 154.939 18.2102C155.56 18.2102 156.096 18.3371 156.547 18.5909C157.001 18.8409 157.35 19.1742 157.592 19.5909C157.839 20.0038 157.962 20.4583 157.962 20.9545C157.962 21.5038 157.825 22.0019 157.553 22.4489C157.284 22.892 156.905 23.2898 156.416 23.642L154.041 25.3523C153.719 25.5871 153.481 25.8277 153.325 26.0739C153.174 26.3163 153.098 26.5492 153.098 26.7727C153.098 27.0492 153.166 27.2973 153.303 27.517C153.439 27.7367 153.632 27.911 153.882 28.0398C154.132 28.1648 154.426 28.2273 154.763 28.2273C155.172 28.2273 155.575 28.1345 155.973 27.9489C156.375 27.7595 156.738 27.4924 157.064 27.1477C157.393 26.7992 157.657 26.3864 157.854 25.9091C158.051 25.4318 158.149 24.9034 158.149 24.3239H160.155C160.155 25.036 160.077 25.678 159.922 26.25C159.767 26.8182 159.551 27.3144 159.274 27.7386C158.998 28.1591 158.681 28.5038 158.325 28.7727C158.212 28.8447 158.102 28.9129 157.996 28.9773C157.89 29.0417 157.78 29.1098 157.666 29.1818C157.234 29.5303 156.751 29.7822 156.217 29.9375C155.687 30.0928 155.162 30.1705 154.643 30.1705ZM175.41 16.624H177.554V27.264H175.41V16.624ZM167.682 29.472H177.922V31.168H167.682V29.472ZM167.682 26.192H169.81V30.16H167.682V26.192ZM169.49 17.552C171.762 17.552 173.506 19.12 173.506 21.312C173.506 23.488 171.762 25.072 169.49 25.072C167.218 25.072 165.458 23.488 165.458 21.312C165.458 19.12 167.218 17.552 169.49 17.552ZM169.49 19.392C168.386 19.392 167.538 20.096 167.538 21.312C167.538 22.512 168.386 23.216 169.49 23.216C170.578 23.216 171.426 22.512 171.426 21.312C171.426 20.096 170.578 19.392 169.49 19.392ZM183.424 17.28H185.185V18.704C185.185 21.504 183.825 24.048 180.929 24.976L179.889 23.296C182.385 22.496 183.424 20.576 183.424 18.704V17.28ZM183.857 17.28H185.601V18.704C185.601 20.528 186.625 22.32 189.041 23.056L188.001 24.72C185.169 23.824 183.857 21.456 183.857 18.704V17.28ZM182.161 26.096H192.273V31.424H190.129V27.792H182.161V26.096ZM190.129 16.608H192.273V25.44H190.129V16.608ZM197.967 24.672H200.095V28.656H197.967V24.672ZM202.623 24.688H204.735V28.672H202.623V24.688ZM194.687 28.08H208.095V29.808H194.687V28.08ZM195.711 17.776H206.991V19.472H195.711V17.776ZM195.775 23.632H206.943V25.312H195.775V23.632ZM197.727 19.184H199.855V23.872H197.727V19.184ZM202.863 19.184H204.975V23.872H202.863V19.184Z" fill="white"/>
<path d="M63.5 61.24H66.18V79.82H63.5V61.24ZM56.2 62.54C59 62.54 61.06 65.1 61.06 69.14C61.06 73.22 59 75.78 56.2 75.78C53.4 75.78 51.34 73.22 51.34 69.14C51.34 65.1 53.4 62.54 56.2 62.54ZM56.2 64.96C54.82 64.96 53.88 66.42 53.88 69.14C53.88 71.9 54.82 73.38 56.2 73.38C57.58 73.38 58.5 71.9 58.5 69.14C58.5 66.42 57.58 64.96 56.2 64.96ZM69.2184 69.96H85.9784V72.08H69.2184V69.96ZM76.2784 67.18H78.9184V70.78H76.2784V67.18ZM71.2384 66.34H84.0784V68.44H71.2384V66.34ZM71.2384 62.06H83.9784V64.14H73.8784V67.68H71.2384V62.06ZM77.5384 73C81.5384 73 83.9584 74.22 83.9584 76.4C83.9584 78.58 81.5384 79.8 77.5384 79.8C73.5384 79.8 71.0984 78.58 71.0984 76.4C71.0984 74.22 73.5384 73 77.5384 73ZM77.5384 75C75.0584 75 73.7984 75.46 73.7984 76.4C73.7984 77.36 75.0584 77.78 77.5384 77.78C80.0184 77.78 81.2784 77.36 81.2784 76.4C81.2784 75.46 80.0184 75 77.5384 75ZM92.1169 62.68H94.2769V65.38C94.2769 70.14 92.6369 74.44 88.9569 76.14L87.3769 73.94C90.5969 72.54 92.1169 68.98 92.1169 65.38V62.68ZM92.6369 62.68H94.7969V65.38C94.7969 68.8 96.2569 72.2 99.4169 73.56L97.8569 75.7C94.2769 74.06 92.6369 69.94 92.6369 65.38V62.68ZM100.297 61.24H102.977V79.82H100.297V61.24ZM120.138 78H110.838V76.14L114.218 72.46C114.898 71.7267 115.445 71.1 115.858 70.58C116.271 70.0467 116.571 69.5533 116.758 69.1C116.958 68.6467 117.058 68.1533 117.058 67.62C117.058 66.9667 116.891 66.48 116.558 66.16C116.238 65.8267 115.811 65.66 115.278 65.66C114.745 65.66 114.238 65.7867 113.758 66.04C113.291 66.28 112.798 66.6267 112.278 67.08L110.818 65.42C111.205 65.0733 111.611 64.76 112.038 64.48C112.465 64.1867 112.958 63.9533 113.518 63.78C114.091 63.6067 114.751 63.52 115.498 63.52C116.365 63.52 117.111 63.6867 117.738 64.02C118.378 64.34 118.871 64.7867 119.218 65.36C119.565 65.9333 119.738 66.6 119.738 67.36C119.738 67.9467 119.651 68.4867 119.478 68.98C119.318 69.4733 119.078 69.96 118.758 70.44C118.438 70.92 118.058 71.4133 117.618 71.92C117.178 72.4267 116.685 72.98 116.138 73.58L114.198 75.7V75.82H120.138V78ZM134.238 66.96C135.412 66.96 136.292 67.2733 136.878 67.9C137.465 68.5267 137.758 69.54 137.758 70.94V78H135.138V71.42C135.138 70.62 135.005 70.02 134.738 69.62C134.472 69.2067 134.058 69 133.498 69C132.725 69 132.178 69.2867 131.858 69.86C131.538 70.4333 131.378 71.2667 131.378 72.36V78H128.738V71.42C128.738 70.8867 128.678 70.44 128.558 70.08C128.438 69.72 128.258 69.4533 128.018 69.28C127.778 69.0933 127.472 69 127.098 69C126.565 69 126.145 69.1467 125.838 69.44C125.532 69.72 125.312 70.1333 125.178 70.68C125.058 71.2267 124.998 71.9 124.998 72.7V78H122.338V67.16H124.378L124.758 68.58H124.878C125.078 68.2067 125.325 67.9 125.618 67.66C125.925 67.42 126.272 67.2467 126.658 67.14C127.058 67.02 127.472 66.96 127.898 66.96C128.658 66.96 129.292 67.1 129.798 67.38C130.318 67.6467 130.718 68.0667 130.998 68.64H131.138C131.472 68.0533 131.912 67.6267 132.458 67.36C133.018 67.0933 133.612 66.96 134.238 66.96ZM157.543 61.24H160.223V79.82H157.543V61.24ZM150.243 62.54C153.043 62.54 155.103 65.1 155.103 69.14C155.103 73.22 153.043 75.78 150.243 75.78C147.443 75.78 145.383 73.22 145.383 69.14C145.383 65.1 147.443 62.54 150.243 62.54ZM150.243 64.96C148.863 64.96 147.923 66.42 147.923 69.14C147.923 71.9 148.863 73.38 150.243 73.38C151.623 73.38 152.543 71.9 152.543 69.14C152.543 66.42 151.623 64.96 150.243 64.96ZM176.561 61.26H179.101V79.78H176.561V61.26ZM174.141 68.4H177.221V70.52H174.141V68.4ZM172.421 61.58H174.901V78.9H172.421V61.58ZM163.961 63.3H166.621V74H163.961V63.3ZM163.961 73H165.241C167.021 73 169.101 72.9 171.401 72.46L171.661 74.74C169.241 75.18 167.121 75.28 165.241 75.28H163.961V73ZM187.6 62.48C190.52 62.48 192.7 64.38 192.7 67.04C192.7 69.72 190.52 71.62 187.6 71.62C184.7 71.62 182.48 69.72 182.48 67.04C182.48 64.38 184.7 62.48 187.6 62.48ZM187.6 64.76C186.18 64.76 185.1 65.6 185.1 67.04C185.1 68.5 186.18 69.34 187.6 69.34C189.02 69.34 190.1 68.5 190.1 67.04C190.1 65.6 189.02 64.76 187.6 64.76ZM194.44 61.24H197.1V79.82H194.44V61.24ZM182.04 76.06L181.72 73.92C184.98 73.92 189.52 73.88 193.42 73.3L193.62 75.22C189.6 76.02 185.24 76.06 182.04 76.06ZM206.981 61.98H219.561V68.54H206.981V61.98ZM216.941 64.06H209.581V66.46H216.941V64.06ZM204.921 70.28H221.661V72.38H204.921V70.28ZM211.941 68.06H214.601V70.88H211.941V68.06ZM206.781 73.72H219.641V79.78H216.981V75.82H206.781V73.72ZM230.36 70.08H233.02V72.66H230.36V70.08ZM223.32 68.62H240.06V70.7H223.32V68.62ZM225.24 71.86H238.04V76.62H227.88V78.24H225.26V74.8H235.42V73.8H225.24V71.86ZM225.26 77.68H238.52V79.66H225.26V77.68ZM230.1 62.56H232.42V63.02C232.42 65.66 229.8 67.76 224.88 68.12L224.06 66.12C228.28 65.84 230.1 64.36 230.1 63.02V62.56ZM230.96 62.56H233.28V63.02C233.28 64.36 235.1 65.84 239.34 66.12L238.52 68.12C233.6 67.76 230.96 65.68 230.96 63.02V62.56ZM224.84 61.76H238.56V63.82H224.84V61.76ZM248.478 63.72L243.478 78H241.058L246.058 63.72H248.478ZM261.214 61.24H263.894V79.76H261.214V61.24ZM263.194 68.32H266.454V70.5H263.194V68.32ZM256.354 63.16H258.954C258.954 68.72 256.834 73.48 250.674 76.58L249.194 74.56C254.054 72.04 256.354 68.64 256.354 63.62V63.16ZM250.214 63.16H257.714V65.3H250.214V63.16ZM269.713 73.26H282.513V79.58H269.713V73.26ZM279.913 75.36H272.333V77.48H279.913V75.36ZM267.773 69.7H284.513V71.8H267.773V69.7ZM274.793 61.5H277.073V62.06C277.073 65.34 274.313 68.04 269.553 68.7L268.593 66.62C272.753 66.12 274.793 64 274.793 62.06V61.5ZM275.233 61.5H277.513V62.06C277.513 63.98 279.553 66.12 283.693 66.62L282.733 68.7C277.973 68.04 275.233 65.32 275.233 62.06V61.5ZM293.211 70.08H295.871V72.66H293.211V70.08ZM286.171 68.62H302.911V70.7H286.171V68.62ZM288.091 71.86H300.891V76.62H290.731V78.24H288.111V74.8H298.271V73.8H288.091V71.86ZM288.111 77.68H301.371V79.66H288.111V77.68ZM292.951 62.56H295.271V63.02C295.271 65.66 292.651 67.76 287.731 68.12L286.911 66.12C291.131 65.84 292.951 64.36 292.951 63.02V62.56ZM293.811 62.56H296.131V63.02C296.131 64.36 297.951 65.84 302.191 66.12L301.371 68.12C296.451 67.76 293.811 65.68 293.811 63.02V62.56ZM287.691 61.76H301.411V63.82H287.691V61.76ZM313.612 64.54H315.752V65.22C315.752 68.46 314.092 71.3 310.572 72.32L309.312 70.26C312.312 69.42 313.612 67.3 313.612 65.22V64.54ZM314.112 64.54H316.272V65.22C316.272 67.14 317.552 69.14 320.532 69.94L319.312 72.02C315.772 71.04 314.112 68.28 314.112 65.22V64.54ZM309.972 63.2H319.912V65.28H309.972V63.2ZM313.612 61.2H316.272V64.08H313.612V61.2ZM321.372 61.26H324.032V72.6H321.372V61.26ZM323.292 65.82H326.492V68H323.292V65.82ZM311.672 73.38H324.032V79.8H321.372V75.5H311.672V73.38ZM331.611 67.46H334.271V70.86H331.611V67.46ZM338.131 67.46H340.771V70.86H338.131V67.46ZM327.851 70.04H344.591V72.14H327.851V70.04ZM336.191 73.08C340.191 73.08 342.611 74.28 342.611 76.42C342.611 78.58 340.191 79.78 336.191 79.78C332.171 79.78 329.751 78.58 329.751 76.42C329.751 74.28 332.171 73.08 336.191 73.08ZM336.191 75.08C333.711 75.08 332.451 75.5 332.451 76.42C332.451 77.36 333.711 77.78 336.191 77.78C338.671 77.78 339.931 77.36 339.931 76.42C339.931 75.5 338.671 75.08 336.191 75.08ZM336.231 61.52C340.311 61.52 342.931 62.88 342.931 65.1C342.931 67.3 340.311 68.62 336.231 68.62C332.131 68.62 329.531 67.3 329.531 65.1C329.531 62.88 332.131 61.52 336.231 61.52ZM336.231 63.56C333.691 63.56 332.271 64.06 332.271 65.1C332.271 66.12 333.691 66.62 336.231 66.62C338.771 66.62 340.191 66.12 340.191 65.1C340.191 64.06 338.771 63.56 336.231 63.56ZM363.892 61.26H366.572V70.74H363.892V61.26ZM354.032 71.48H366.572V76.48H356.692V78.72H354.072V74.58H363.932V73.52H354.032V71.48ZM354.072 77.6H367.072V79.66H354.072V77.6ZM351.932 62.38H361.912V64.42H351.932V62.38ZM351.712 70.42L351.452 68.32C354.692 68.32 359.012 68.26 362.592 67.82L362.732 69.72C359.072 70.32 354.912 70.4 351.712 70.42ZM353.392 63.3H355.932V69.36H353.392V63.3ZM357.872 63.3H360.452V69.36H357.872V63.3ZM376.51 61.8H378.85V62.66C378.85 66.22 376.05 69.24 371.19 69.96L370.15 67.82C374.41 67.26 376.51 64.84 376.51 62.66V61.8ZM377.01 61.8H379.33V62.66C379.33 64.82 381.45 67.26 385.69 67.82L384.67 69.96C379.81 69.24 377.01 66.22 377.01 62.66V61.8ZM376.53 73H379.17V79.78H376.53V73ZM369.55 71.32H386.29V73.48H369.55V71.32ZM391.289 75.9C391.182 76.3667 391.036 76.8733 390.849 77.42C390.676 77.9533 390.489 78.4867 390.289 79.02C390.089 79.5667 389.882 80.0867 389.669 80.58H387.769C387.889 80.06 388.009 79.5067 388.129 78.92C388.249 78.3467 388.356 77.78 388.449 77.22C388.556 76.66 388.636 76.1467 388.689 75.68H391.149L391.289 75.9ZM411.345 61.28H413.865V72.38H411.345V61.28ZM409.125 65.68H412.065V67.84H409.125V65.68ZM407.425 61.62H409.905V71.82H407.425V61.62ZM398.725 62.84H406.065V71.06H398.725V62.84ZM403.585 64.86H401.205V69.08H403.585V64.86ZM407.585 72.7C411.465 72.7 413.965 74.04 413.965 76.24C413.965 78.44 411.465 79.78 407.585 79.78C403.705 79.78 401.225 78.44 401.225 76.24C401.225 74.04 403.705 72.7 407.585 72.7ZM407.585 74.72C405.205 74.72 403.865 75.22 403.865 76.24C403.865 77.26 405.205 77.76 407.585 77.76C409.965 77.76 411.285 77.26 411.285 76.24C411.285 75.22 409.965 74.72 407.585 74.72ZM429.324 61.26H431.984V74.9H429.324V61.26ZM423.564 62.64H426.384C426.384 67.66 423.204 71.32 417.824 72.98L416.724 70.88C421.024 69.52 423.564 66.98 423.564 63.88V62.64ZM417.704 62.64H425.224V64.78H417.704V62.64ZM425.364 64.8H429.704V66.94H425.364V64.8ZM425.184 68.98H429.564V71.1H425.184V68.98ZM419.844 77.34H432.444V79.46H419.844V77.34ZM419.844 73.58H422.524V78.7H419.844V73.58ZM440.842 62.48C443.762 62.48 445.942 64.38 445.942 67.04C445.942 69.72 443.762 71.62 440.842 71.62C437.942 71.62 435.722 69.72 435.722 67.04C435.722 64.38 437.942 62.48 440.842 62.48ZM440.842 64.76C439.422 64.76 438.342 65.6 438.342 67.04C438.342 68.5 439.422 69.34 440.842 69.34C442.262 69.34 443.342 68.5 443.342 67.04C443.342 65.6 442.262 64.76 440.842 64.76ZM447.682 61.24H450.342V79.82H447.682V61.24ZM435.282 76.06L434.962 73.92C438.222 73.92 442.762 73.88 446.662 73.3L446.862 75.22C442.842 76.02 438.482 76.06 435.282 76.06ZM467.083 64.18H471.423V66.3H467.083V64.18ZM466.943 68.02H471.283V70.14H466.943V68.02ZM471.003 61.26H473.663V71.92H471.003V61.26ZM464.963 62.52H467.803C467.803 67.56 464.963 70.8 459.343 72.34L458.303 70.24C463.003 69.02 464.963 66.7 464.963 63.8V62.52ZM459.323 62.52H466.823V64.64H459.323V62.52ZM467.523 72.16C471.283 72.16 473.783 73.6 473.783 75.92C473.783 78.24 471.283 79.7 467.523 79.7C463.763 79.7 461.263 78.24 461.263 75.92C461.263 73.6 463.763 72.16 467.523 72.16ZM467.523 74.2C465.263 74.2 463.903 74.78 463.903 75.92C463.903 77.06 465.263 77.62 467.523 77.62C469.803 77.62 471.163 77.06 471.163 75.92C471.163 74.78 469.803 74.2 467.523 74.2ZM476.562 71.62H493.342V73.76H476.562V71.62ZM483.562 73H486.202V79.8H483.562V73ZM484.902 61.88C488.862 61.88 491.602 63.52 491.602 66.06C491.602 68.58 488.862 70.2 484.902 70.2C480.962 70.2 478.222 68.58 478.222 66.06C478.222 63.52 480.962 61.88 484.902 61.88ZM484.902 64C482.482 64 480.942 64.72 480.942 66.06C480.942 67.38 482.482 68.1 484.902 68.1C487.342 68.1 488.862 67.38 488.862 66.06C488.862 64.72 487.342 64 484.902 64ZM512.563 61.26H515.243V71.22H512.563V61.26ZM502.923 72.02H505.543V73.74H512.603V72.02H515.243V79.58H502.923V72.02ZM505.543 75.78V77.46H512.603V75.78H505.543ZM505.163 62.02C508.043 62.02 510.183 63.84 510.183 66.4C510.183 68.96 508.043 70.78 505.163 70.78C502.283 70.78 500.123 68.96 500.123 66.4C500.123 63.84 502.283 62.02 505.163 62.02ZM505.163 64.22C503.743 64.22 502.723 65.04 502.723 66.4C502.723 67.78 503.743 68.58 505.163 68.58C506.563 68.58 507.583 67.78 507.583 66.4C507.583 65.04 506.563 64.22 505.163 64.22ZM518.801 63H527.661V75.28H518.801V63ZM525.041 65.08H521.421V73.18H525.041V65.08ZM530.081 61.26H532.761V79.78H530.081V61.26ZM532.161 68.24H535.441V70.44H532.161V68.24ZM549.96 61.26H552.5V79.78H549.96V61.26ZM547.62 68.24H550.68V70.36H547.62V68.24ZM542.1 63.52H544.64C544.64 68.74 543.12 72.96 537.94 75.98L536.4 74.14C540.62 71.64 542.1 68.52 542.1 64.08V63.52ZM537.34 63.52H542.88V65.66H537.34V63.52ZM545.86 61.74H548.34V78.98H545.86V61.74ZM572.681 61.26H575.361V70.74H572.681V61.26ZM562.821 71.48H575.361V76.48H565.481V78.72H562.861V74.58H572.721V73.52H562.821V71.48ZM562.861 77.6H575.861V79.66H562.861V77.6ZM560.721 62.38H570.701V64.42H560.721V62.38ZM560.501 70.42L560.241 68.32C563.481 68.32 567.801 68.26 571.381 67.82L571.521 69.72C567.861 70.32 563.701 70.4 560.501 70.42ZM562.181 63.3H564.721V69.36H562.181V63.3ZM566.661 63.3H569.241V69.36H566.661V63.3ZM585.3 61.8H587.64V62.66C587.64 66.22 584.84 69.24 579.98 69.96L578.94 67.82C583.2 67.26 585.3 64.84 585.3 62.66V61.8ZM585.8 61.8H588.12V62.66C588.12 64.82 590.24 67.26 594.48 67.82L593.46 69.96C588.6 69.24 585.8 66.22 585.8 62.66V61.8ZM585.32 73H587.96V79.78H585.32V73ZM578.34 71.32H595.08V73.48H578.34V71.32ZM599.658 73.54H597.498L597.078 63.72H600.098L599.658 73.54ZM597.018 76.72C597.018 76.16 597.165 75.7667 597.458 75.54C597.765 75.3 598.131 75.18 598.558 75.18C598.985 75.18 599.345 75.2933 599.638 75.52C599.945 75.7467 600.098 76.1467 600.098 76.72C600.098 77.2667 599.945 77.66 599.638 77.9C599.345 78.14 598.985 78.26 598.558 78.26C598.131 78.26 597.765 78.14 597.458 77.9C597.165 77.66 597.018 77.2667 597.018 76.72ZM52.86 88.98H65.44V95.54H52.86V88.98ZM62.82 91.06H55.46V93.46H62.82V91.06ZM50.8 97.28H67.54V99.38H50.8V97.28ZM57.82 95.06H60.48V97.88H57.82V95.06ZM52.66 100.72H65.52V106.78H62.86V102.82H52.66V100.72ZM76.2384 97.08H78.8984V99.66H76.2384V97.08ZM69.1984 95.62H85.9384V97.7H69.1984V95.62ZM71.1184 98.86H83.9184V103.62H73.7584V105.24H71.1384V101.8H81.2984V100.8H71.1184V98.86ZM71.1384 104.68H84.3984V106.66H71.1384V104.68ZM75.9784 89.56H78.2984V90.02C78.2984 92.66 75.6784 94.76 70.7584 95.12L69.9384 93.12C74.1584 92.84 75.9784 91.36 75.9784 90.02V89.56ZM76.8384 89.56H79.1584V90.02C79.1584 91.36 80.9784 92.84 85.2184 93.12L84.3984 95.12C79.4784 94.76 76.8384 92.68 76.8384 90.02V89.56ZM70.7184 88.76H84.4384V90.82H70.7184V88.76ZM94.9969 95.08H98.0369V97.22H94.9969V95.08ZM100.977 88.26H103.517V106.78H100.977V88.26ZM97.1969 88.54H99.6969V105.94H97.1969V88.54ZM91.7569 89.56C94.2169 89.56 95.7969 92.1 95.7969 96.28C95.7969 100.48 94.2169 103.02 91.7569 103.02C89.3169 103.02 87.7569 100.48 87.7569 96.28C87.7569 92.1 89.3169 89.56 91.7569 89.56ZM91.7569 92.06C90.7569 92.06 90.1769 93.46 90.1769 96.28C90.1769 99.12 90.7569 100.5 91.7569 100.5C92.7969 100.5 93.3769 99.12 93.3769 96.28C93.3769 93.46 92.7969 92.06 91.7569 92.06ZM108.075 93.26H120.915V95.36H108.075V93.26ZM105.995 97.28H122.775V99.4H105.995V97.28ZM108.075 88.92H110.715V94.3H108.075V88.92ZM107.895 104.26H121.015V106.38H107.895V104.26ZM107.895 100.88H110.555V104.82H107.895V100.88ZM129.297 102.48H146.057V104.64H129.297V102.48ZM136.317 98.52H138.977V103H136.317V98.52ZM131.057 89.44H133.697V92.28H141.597V89.44H144.237V99.08H131.057V89.44ZM133.697 94.36V96.96H141.597V94.36H133.697ZM148.395 90.56H163.675V92.68H148.395V90.56ZM147.695 102.78H164.455V104.92H147.695V102.78ZM154.715 100.34H157.355V103.62H154.715V100.34ZM156.015 93.48C159.875 93.48 162.295 94.82 162.295 97.1C162.295 99.38 159.875 100.72 156.015 100.72C152.155 100.72 149.735 99.38 149.735 97.1C149.735 94.82 152.155 93.48 156.015 93.48ZM156.015 95.54C153.695 95.54 152.455 96.04 152.455 97.1C152.455 98.16 153.695 98.64 156.015 98.64C158.335 98.64 159.575 98.16 159.575 97.1C159.575 96.04 158.335 95.54 156.015 95.54ZM154.715 88.46H157.355V91.88H154.715V88.46ZM170.233 91.18H172.333V93.26C172.333 97.44 170.573 101.7 167.173 103.3L165.673 101.2C168.733 99.76 170.233 96.3 170.233 93.26V91.18ZM170.793 91.18H172.893V93.26C172.893 96.06 174.333 99.34 177.373 100.74L175.913 102.84C172.513 101.26 170.793 97.2 170.793 93.26V91.18ZM166.393 90.04H176.553V92.22H166.393V90.04ZM177.913 88.26H180.593V106.78H177.913V88.26ZM179.993 95.32H183.273V97.52H179.993V95.32ZM190.432 89.48C193.352 89.48 195.532 91.38 195.532 94.04C195.532 96.72 193.352 98.62 190.432 98.62C187.532 98.62 185.312 96.72 185.312 94.04C185.312 91.38 187.532 89.48 190.432 89.48ZM190.432 91.76C189.012 91.76 187.932 92.6 187.932 94.04C187.932 95.5 189.012 96.34 190.432 96.34C191.852 96.34 192.932 95.5 192.932 94.04C192.932 92.6 191.852 91.76 190.432 91.76ZM197.272 88.24H199.932V106.82H197.272V88.24ZM184.872 103.06L184.552 100.92C187.812 100.92 192.352 100.88 196.252 100.3L196.452 102.22C192.432 103.02 188.072 103.06 184.872 103.06ZM216.133 90.84H221.573V92.96H216.133V90.84ZM216.133 95.34H221.573V97.46H216.133V95.34ZM220.593 88.28H223.253V101.82H220.593V88.28ZM211.033 104.34H223.673V106.46H211.033V104.34ZM211.033 100.48H213.693V105.44H211.033V100.48ZM212.873 89.36C215.613 89.36 217.753 91.36 217.753 94.16C217.753 96.92 215.613 98.94 212.873 98.94C210.113 98.94 207.973 96.92 207.973 94.16C207.973 91.36 210.113 89.36 212.873 89.36ZM212.873 91.7C211.513 91.7 210.513 92.62 210.513 94.16C210.513 95.7 211.513 96.62 212.873 96.62C214.213 96.62 215.233 95.7 215.233 94.16C215.233 92.62 214.213 91.7 212.873 91.7ZM226.812 96.72H228.372C232.012 96.72 234.252 96.64 236.812 96.16L237.052 98.28C234.452 98.78 232.112 98.88 228.372 98.88H226.812V96.72ZM226.792 89.28H235.252V94.98H229.452V97.74H226.812V93H232.632V91.4H226.792V89.28ZM238.072 88.28H240.732V99.52H238.072V88.28ZM239.972 92.68H243.192V94.86H239.972V92.68ZM228.372 100.36H240.732V106.78H238.072V102.48H228.372V100.36ZM257.43 88.24H260.09V106.82H257.43V88.24ZM254.17 95.36H258.03V97.5H254.17V95.36ZM248.83 93.06H250.91V94.02C250.91 97.92 249.23 101.86 245.87 103.36L244.45 101.32C247.45 99.94 248.83 96.8 248.83 94.02V93.06ZM249.41 93.06H251.47V94.02C251.47 96.68 252.89 99.68 255.89 101.02L254.49 103.04C251.09 101.6 249.41 97.8 249.41 94.02V93.06ZM245.07 91.28H255.17V93.38H245.07V91.28ZM248.83 88.68H251.49V92.36H248.83V88.68ZM276.768 95.26H280.028V97.44H276.768V95.26ZM274.788 88.24H277.468V106.76H274.788V88.24ZM263.508 90.02H266.168V101.52H263.508V90.02ZM263.508 100.04H265.108C267.748 100.04 270.608 99.86 273.588 99.26L273.868 101.44C270.808 102.08 267.828 102.24 265.108 102.24H263.508V100.04ZM293.09 90.32H295.39V90.86C295.39 94.12 292.73 96.78 288.03 97.42L287.05 95.34C291.13 94.84 293.09 92.76 293.09 90.86V90.32ZM293.85 90.32H296.15V90.86C296.15 92.76 298.11 94.84 302.19 95.34L301.23 97.42C296.51 96.78 293.85 94.12 293.85 90.86V90.32ZM293.23 100H295.87V106.8H293.23V100ZM286.25 98.48H302.99V100.6H286.25V98.48ZM287.73 89.2H301.47V91.3H287.73V89.2ZM304.648 102.44H321.408V104.62H304.648V102.44ZM311.608 98.32H314.248V103.02H311.608V98.32ZM311.508 89.28H313.828V90.62C313.828 94.56 310.968 98.04 306.128 98.92L305.028 96.7C309.248 96.02 311.508 93.18 311.508 90.62V89.28ZM312.028 89.28H314.348V90.62C314.348 93.24 316.608 96.02 320.848 96.7L319.748 98.92C314.888 98.02 312.028 94.62 312.028 90.62V89.28ZM327.929 96.72H344.689V98.88H327.929V96.72ZM329.949 93.34H342.789V95.44H329.949V93.34ZM329.949 88.76H342.689V90.88H332.589V94.38H329.949V88.76ZM336.249 99.98C340.249 99.98 342.669 101.2 342.669 103.38C342.669 105.56 340.249 106.78 336.249 106.78C332.249 106.78 329.809 105.56 329.809 103.38C329.809 101.2 332.249 99.98 336.249 99.98ZM336.249 101.98C333.769 101.98 332.509 102.44 332.509 103.38C332.509 104.34 333.769 104.76 336.249 104.76C338.729 104.76 339.989 104.34 339.989 103.38C339.989 102.44 338.729 101.98 336.249 101.98ZM359.008 88.24H361.688V106.82H359.008V88.24ZM351.708 89.54C354.508 89.54 356.568 92.1 356.568 96.14C356.568 100.22 354.508 102.78 351.708 102.78C348.908 102.78 346.848 100.22 346.848 96.14C346.848 92.1 348.908 89.54 351.708 89.54ZM351.708 91.96C350.328 91.96 349.388 93.42 349.388 96.14C349.388 98.9 350.328 100.38 351.708 100.38C353.088 100.38 354.008 98.9 354.008 96.14C354.008 93.42 353.088 91.96 351.708 91.96ZM373.869 90.1H376.029V91.28C376.029 94.76 374.389 97.98 370.829 99.14L369.489 97.04C372.549 96.04 373.869 93.6 373.869 91.28V90.1ZM374.429 90.1H376.569V91.28C376.569 93.44 377.829 95.72 380.749 96.7L379.449 98.78C376.009 97.64 374.429 94.56 374.429 91.28V90.1ZM379.669 92.68H383.189V94.84H379.669V92.68ZM370.209 89.28H380.169V91.38H370.209V89.28ZM372.469 100.12H385.089V106.78H382.429V102.24H372.469V100.12ZM382.429 88.26H385.089V99.28H382.429V88.26ZM400.708 88.26H403.388V102.14H400.708V88.26ZM391.048 104.34H403.848V106.46H391.048V104.34ZM391.048 101.06H393.708V104.74H391.048V101.06ZM388.208 90.24H399.348V92.32H388.208V90.24ZM393.788 92.94C396.508 92.94 398.428 94.4 398.428 96.52C398.428 98.66 396.508 100.08 393.788 100.08C391.088 100.08 389.168 98.66 389.168 96.52C389.168 94.4 391.088 92.94 393.788 92.94ZM393.788 94.98C392.548 94.98 391.688 95.54 391.688 96.52C391.688 97.52 392.548 98.06 393.788 98.06C395.048 98.06 395.888 97.52 395.888 96.52C395.888 95.54 395.048 94.98 393.788 94.98ZM392.448 88.24H395.128V91.44H392.448V88.24ZM423.989 88.28H426.669V101.58H423.989V88.28ZM414.329 104.34H427.129V106.46H414.329V104.34ZM414.329 100.24H416.989V105.2H414.329V100.24ZM416.589 89.44C419.429 89.44 421.609 91.4 421.609 94.14C421.609 96.86 419.429 98.84 416.589 98.84C413.749 98.84 411.549 96.86 411.549 94.14C411.549 91.4 413.749 89.44 416.589 89.44ZM416.589 91.74C415.209 91.74 414.149 92.62 414.149 94.14C414.149 95.64 415.209 96.52 416.589 96.52C417.949 96.52 419.009 95.64 419.009 94.14C419.009 92.62 417.949 91.74 416.589 91.74ZM434.007 89.1H436.207V90.88C436.207 94.38 434.507 97.56 430.887 98.72L429.587 96.62C432.707 95.62 434.007 93.22 434.007 90.88V89.1ZM434.547 89.1H436.727V90.88C436.727 93.16 438.007 95.4 441.027 96.32L439.727 98.4C436.187 97.28 434.547 94.32 434.547 90.88V89.1ZM432.427 100.12H445.067V106.78H442.387V102.24H432.427V100.12ZM442.387 88.26H445.067V99.3H442.387V88.26ZM452.186 98.34H454.846V103.32H452.186V98.34ZM458.006 98.36H460.646V103.34H458.006V98.36ZM448.086 102.6H464.846V104.76H448.086V102.6ZM449.366 89.72H463.466V91.84H449.366V89.72ZM449.446 97.04H463.406V99.14H449.446V97.04ZM451.886 91.48H454.546V97.34H451.886V91.48ZM458.306 91.48H460.946V97.34H458.306V91.48ZM466.464 96.56H483.244V98.5H466.464V96.56ZM468.344 99.42H481.244V103.82H471.024V105.4H468.384V102.14H478.624V101.22H468.344V99.42ZM468.384 104.84H481.764V106.64H468.384V104.84ZM468.524 88.58H481.204V92.94H471.184V94.46H468.544V91.28H478.584V90.36H468.524V88.58ZM468.544 93.9H481.544V95.7H468.544V93.9ZM490.385 94.98H491.925C495.785 94.98 497.885 94.86 500.225 94.38L500.505 96.44C498.125 96.98 495.885 97.06 491.925 97.06H490.385V94.98ZM490.385 89.22H498.665V91.3H493.025V96.14H490.385V89.22ZM501.665 88.26H504.325V97.46H501.665V88.26ZM503.585 91.74H506.785V93.9H503.585V91.74ZM492.085 98.22H504.325V103.34H494.765V105.56H492.125V101.38H501.705V100.3H492.085V98.22ZM492.125 104.48H504.865V106.58H492.125V104.48ZM513.104 89.54C515.924 89.54 517.964 92.1 517.964 96.14C517.964 100.22 515.924 102.78 513.104 102.78C510.284 102.78 508.244 100.22 508.244 96.14C508.244 92.1 510.284 89.54 513.104 89.54ZM513.104 91.96C511.724 91.96 510.804 93.42 510.804 96.14C510.804 98.9 511.724 100.38 513.104 100.38C514.484 100.38 515.424 98.9 515.424 96.14C515.424 93.42 514.484 91.96 513.104 91.96ZM519.984 88.26H522.664V106.78H519.984V88.26ZM522.064 95.24H525.344V97.44H522.064V95.24ZM533.402 90.32H535.702V90.86C535.702 94.12 533.042 96.78 528.342 97.42L527.362 95.34C531.442 94.84 533.402 92.76 533.402 90.86V90.32ZM534.162 90.32H536.462V90.86C536.462 92.76 538.422 94.84 542.502 95.34L541.542 97.42C536.822 96.78 534.162 94.12 534.162 90.86V90.32ZM533.542 100H536.182V106.8H533.542V100ZM526.562 98.48H543.302V100.6H526.562V98.48ZM528.042 89.2H541.782V91.3H528.042V89.2ZM552.241 94.48H555.301V96.64H552.241V94.48ZM548.281 89.86H550.321V92.98C550.321 97.18 549.161 101.28 546.201 103.1L544.601 101.1C547.321 99.42 548.281 96.12 548.281 92.98V89.86ZM548.861 89.86H550.861V92.86C550.861 95.88 551.641 98.96 554.161 100.6L552.721 102.68C549.781 100.86 548.861 96.86 548.861 92.86V89.86ZM558.321 88.26H560.861V106.78H558.321V88.26ZM554.561 88.54H557.041V105.94H554.561V88.54ZM567.039 97.66H569.679V102.86H567.039V97.66ZM573.759 97.66H576.419V102.86H573.759V97.66ZM563.359 102.48H580.119V104.64H563.359V102.48ZM571.719 89.16C575.699 89.16 578.639 91.12 578.639 94.14C578.639 97.16 575.699 99.1 571.719 99.1C567.719 99.1 564.799 97.16 564.799 94.14C564.799 91.12 567.719 89.16 571.719 89.16ZM571.719 91.24C569.139 91.24 567.419 92.3 567.419 94.14C567.419 95.96 569.139 97.04 571.719 97.04C574.299 97.04 576.019 95.96 576.019 94.14C576.019 92.3 574.299 91.24 571.719 91.24Z" fill="white"/>
<path d="M85.1589 24.3344C85.4975 24.6657 85.709 25.1261 85.709 25.6365C85.709 26.6427 84.8923 27.4594 83.886 27.4594C82.8798 27.4594 82.0631 26.6427 82.0631 25.6365C82.0631 25.5469 82.0766 25.4615 82.0891 25.3761H78.912C78.9245 25.4615 78.9381 25.5469 78.9381 25.6365C78.9381 26.6427 78.1214 27.4594 77.1152 27.4594C76.1089 27.4594 75.2922 26.6427 75.2922 25.6365C75.2922 25.1261 75.5037 24.6657 75.8422 24.3344C75.5037 24.0032 75.2922 23.5427 75.2922 23.0323C75.2922 22.0261 76.1089 21.2094 77.1152 21.2094C78.1214 21.2094 78.9381 22.0261 78.9381 23.0323C78.9381 23.1219 78.9245 23.2073 78.912 23.2927H82.0891C82.0766 23.2073 82.0631 23.1219 82.0631 23.0323C82.0631 22.0261 82.8798 21.2094 83.886 21.2094C84.8923 21.2094 85.709 22.0261 85.709 23.0323C85.709 23.5427 85.4975 24.0032 85.1589 24.3344ZM92.0402 31.0042C91.1996 32.0615 89.9423 32.6678 88.5913 32.6678H72.4089C71.0589 32.6678 69.8016 32.0615 68.9599 31.0042C68.1183 29.9469 67.811 28.5865 68.1141 27.2698L69.7256 20.2854C70.3078 17.7625 72.5235 16 75.1131 16H85.8871C88.4767 16 90.6923 17.7625 91.2746 20.2854L92.8861 27.2688C93.1892 28.5855 92.8809 29.9469 92.0402 31.0042ZM90.8558 27.7375L89.2444 20.7542C88.8819 19.1813 87.5017 18.0833 85.8871 18.0833H75.1141C73.5006 18.0833 72.1193 19.1813 71.7568 20.7531L70.1453 27.7365C69.9849 28.4313 70.1474 29.148 70.5912 29.7063C71.0349 30.2646 71.6974 30.5834 72.4099 30.5834H88.5933C89.3058 30.5834 89.9683 30.2636 90.4121 29.7063C90.8558 29.149 91.0183 28.4313 90.8579 27.7365L90.8558 27.7375Z" fill="white"/>
</svg>
