<svg width="1200" height="133" viewBox="0 0 1200 133" fill="none" xmlns="http://www.w3.org/2000/svg">
<rect y="23" width="1200" height="110" rx="30" fill="#352018"/>
<path d="M43 23C43 10.2975 53.2975 0 66 0H245C257.703 0 268 10.2975 268 23C268 35.7025 257.703 46 245 46H66C53.2974 46 43 35.7025 43 23Z" fill="#8A5642"/>
<path d="M112.207 16.624H114.335V27.52H112.207V16.624ZM113.727 20.784H116.303V22.528H113.727V20.784ZM104.783 29.472H114.863V31.168H104.783V29.472ZM104.783 26.416H106.911V29.84H104.783V26.416ZM103.103 17.664H105.215V19.792H108.111V17.664H110.223V25.184H103.103V17.664ZM105.215 21.408V23.52H108.111V21.408H105.215ZM127.662 16.592H129.79V31.456H127.662V16.592ZM125.23 19.744H128.014V21.456H125.23V19.744ZM117.902 26.416H119.07C121.262 26.416 123.086 26.368 125.214 26.048L125.39 27.776C123.214 28.112 121.326 28.16 119.07 28.16H117.902V26.416ZM117.87 17.84H124.494V23.584H120.014V26.8H117.902V21.904H122.398V19.536H117.87V17.84ZM125.198 23.776H127.982V25.488H125.198V23.776ZM137.693 17.04H139.565V17.728C139.565 20.576 137.325 22.992 133.437 23.568L132.605 21.856C136.013 21.408 137.693 19.472 137.693 17.728V17.04ZM138.093 17.04H139.949V17.728C139.949 19.456 141.645 21.408 145.037 21.856L144.221 23.568C140.333 22.992 138.093 20.576 138.093 17.728V17.04ZM137.709 26H139.821V31.424H137.709V26ZM132.125 24.656H145.517V26.384H132.125V24.656ZM150.156 19.04H151.868V19.584C151.868 22.096 150.524 24.288 147.692 25.056L146.715 23.392C149.116 22.752 150.156 21.168 150.156 19.584V19.04ZM150.556 19.04H152.284V19.584C152.284 21.072 153.34 22.56 155.724 23.152L154.78 24.784C151.916 24.08 150.556 21.984 150.556 19.584V19.04ZM147.243 18H155.196V19.664H147.243V18ZM150.156 16.56H152.284V18.8H150.156V16.56ZM154.844 20.32H157.66V22.032H154.844V20.32ZM157.1 16.608H159.228V24.848H157.1V16.608ZM149.388 25.424H151.5V26.72H157.116V25.424H159.228V31.264H149.388V25.424ZM151.5 28.336V29.568H157.116V28.336H151.5ZM169.143 30.1705C168.34 30.1705 167.647 30.0265 167.064 29.7386C166.481 29.4508 166.032 29.0606 165.717 28.5682C165.407 28.072 165.251 27.5189 165.251 26.9091C165.251 26.4545 165.342 26.0511 165.524 25.6989C165.706 25.3466 165.96 25.0227 166.286 24.7273C166.611 24.428 166.99 24.1307 167.422 23.8352L169.678 22.3523C169.969 22.1667 170.183 21.9716 170.32 21.767C170.456 21.5587 170.524 21.3333 170.524 21.0909C170.524 20.8598 170.431 20.6458 170.246 20.4489C170.06 20.2519 169.797 20.1553 169.456 20.1591C169.229 20.1591 169.032 20.2102 168.865 20.3125C168.698 20.411 168.568 20.5417 168.473 20.7045C168.382 20.8636 168.337 21.0417 168.337 21.2386C168.337 21.4811 168.405 21.7273 168.541 21.9773C168.678 22.2273 168.859 22.4924 169.087 22.7727C169.314 23.0492 169.562 23.3485 169.831 23.6705L175.348 30H172.825L168.223 24.875C167.92 24.5303 167.617 24.1705 167.314 23.7955C167.015 23.4167 166.765 23.0152 166.564 22.5909C166.363 22.1629 166.263 21.6989 166.263 21.1989C166.263 20.6345 166.393 20.1269 166.655 19.6761C166.92 19.2254 167.291 18.8693 167.768 18.608C168.246 18.3428 168.803 18.2102 169.439 18.2102C170.06 18.2102 170.596 18.3371 171.047 18.5909C171.501 18.8409 171.85 19.1742 172.092 19.5909C172.339 20.0038 172.462 20.4583 172.462 20.9545C172.462 21.5038 172.325 22.0019 172.053 22.4489C171.784 22.892 171.405 23.2898 170.916 23.642L168.541 25.3523C168.219 25.5871 167.981 25.8277 167.825 26.0739C167.674 26.3163 167.598 26.5492 167.598 26.7727C167.598 27.0492 167.666 27.2973 167.803 27.517C167.939 27.7367 168.132 27.911 168.382 28.0398C168.632 28.1648 168.926 28.2273 169.263 28.2273C169.672 28.2273 170.075 28.1345 170.473 27.9489C170.875 27.7595 171.238 27.4924 171.564 27.1477C171.893 26.7992 172.157 26.3864 172.354 25.9091C172.551 25.4318 172.649 24.9034 172.649 24.3239H174.655C174.655 25.036 174.577 25.678 174.422 26.25C174.267 26.8182 174.051 27.3144 173.774 27.7386C173.498 28.1591 173.181 28.5038 172.825 28.7727C172.712 28.8447 172.602 28.9129 172.496 28.9773C172.39 29.0417 172.28 29.1098 172.166 29.1818C171.734 29.5303 171.251 29.7822 170.717 29.9375C170.187 30.0928 169.662 30.1705 169.143 30.1705ZM185.622 19.872H188.086V21.584H185.622V19.872ZM185.622 24.448H188.086V26.176H185.622V24.448ZM190.438 16.608H192.47V31.424H190.438V16.608ZM187.478 16.832H189.462V30.752H187.478V16.832ZM183.062 17.648C185.03 17.648 186.294 19.68 186.294 23.024C186.294 26.384 185.03 28.416 183.062 28.416C181.11 28.416 179.862 26.384 179.862 23.024C179.862 19.68 181.11 17.648 183.062 17.648ZM183.062 19.648C182.246 19.648 181.766 20.768 181.766 23.024C181.766 25.296 182.246 26.4 183.062 26.4C183.894 26.4 184.374 25.296 184.374 23.024C184.374 20.768 183.894 19.648 183.062 19.648ZM201.285 25.664C204.357 25.664 206.293 26.736 206.293 28.544C206.293 30.368 204.357 31.44 201.285 31.44C198.197 31.44 196.261 30.368 196.261 28.544C196.261 26.736 198.197 25.664 201.285 25.664ZM201.285 27.328C199.397 27.328 198.373 27.712 198.373 28.544C198.373 29.392 199.397 29.792 201.285 29.792C203.173 29.792 204.181 29.392 204.181 28.544C204.181 27.712 203.173 27.328 201.285 27.328ZM203.989 16.608H206.117V25.328H203.989V16.608ZM205.525 20.048H208.085V21.808H205.525V20.048ZM194.885 17.552H196.997V19.376H199.893V17.552H202.005V24.512H194.885V17.552ZM196.997 21.024V22.848H199.893V21.024H196.997ZM217.187 19.92H220.003V21.632H217.187V19.92ZM219.443 16.608H221.571V24.704H219.443V16.608ZM211.731 25.312H213.843V26.656H219.459V25.312H221.571V31.264H211.731V25.312ZM213.843 28.304V29.568H219.459V28.304H213.843ZM212.595 17.744H214.323V18.688C214.323 21.472 213.011 24.048 210.163 24.992L209.091 23.296C211.539 22.496 212.595 20.56 212.595 18.688V17.744ZM213.043 17.744H214.755V18.688C214.755 20.416 215.763 22.256 218.099 23.04L217.059 24.688C214.307 23.776 213.043 21.328 213.043 18.688V17.744ZM209.667 17.28H217.635V18.976H209.667V17.28ZM229.506 21.92H231.618V24.576H229.506V21.92ZM223.89 23.696H237.282V25.376H223.89V23.696ZM230.562 26.192C233.778 26.192 235.698 27.136 235.698 28.816C235.698 30.496 233.778 31.424 230.562 31.424C227.346 31.424 225.41 30.496 225.41 28.816C225.41 27.136 227.346 26.192 230.562 26.192ZM230.562 27.792C228.562 27.792 227.57 28.112 227.57 28.816C227.57 29.536 228.562 29.84 230.562 29.84C232.562 29.84 233.554 29.536 233.554 28.816C233.554 28.112 232.562 27.792 230.562 27.792ZM229.122 18H231.01V18.368C231.01 20.592 229.01 22.4 225.186 22.768L224.45 21.088C227.698 20.816 229.122 19.52 229.122 18.368V18ZM230.162 18H232.05V18.368C232.05 19.52 233.458 20.816 236.722 21.088L235.986 22.768C232.178 22.4 230.162 20.608 230.162 18.368V18ZM225.106 17.216H236.082V18.896H225.106V17.216Z" fill="white"/>
<path d="M55.8763 72.28H58.5363V85.9H55.8763V72.28ZM57.7763 77.48H60.9963V79.66H57.7763V77.48ZM46.5963 88.34H59.1963V90.46H46.5963V88.34ZM46.5963 84.52H49.2563V88.8H46.5963V84.52ZM44.4963 73.58H47.1363V76.24H50.7563V73.58H53.3963V82.98H44.4963V73.58ZM47.1363 78.26V80.9H50.7563V78.26H47.1363ZM75.1947 72.24H77.8547V90.82H75.1947V72.24ZM72.1547 76.18H75.6347V78.32H72.1547V76.18ZM62.9947 84.52H64.4547C67.1947 84.52 69.4747 84.46 72.1347 84.06L72.3547 86.22C69.6347 86.64 67.2747 86.7 64.4547 86.7H62.9947V84.52ZM62.9547 73.8H71.2347V80.98H65.6347V85H62.9947V78.88H68.6147V75.92H62.9547V73.8ZM72.1147 81.22H75.5947V83.36H72.1147V81.22ZM80.7731 80.96H97.5331V83.08H80.7731V80.96ZM87.8331 78.18H90.4731V81.78H87.8331V78.18ZM82.7931 77.34H95.6331V79.44H82.7931V77.34ZM82.7931 73.06H95.5331V75.14H85.4331V78.68H82.7931V73.06ZM89.0931 84C93.0931 84 95.5131 85.22 95.5131 87.4C95.5131 89.58 93.0931 90.8 89.0931 90.8C85.0931 90.8 82.6531 89.58 82.6531 87.4C82.6531 85.22 85.0931 84 89.0931 84ZM89.0931 86C86.6131 86 85.3531 86.46 85.3531 87.4C85.3531 88.36 86.6131 88.78 89.0931 88.78C91.5731 88.78 92.8331 88.36 92.8331 87.4C92.8331 86.46 91.5731 86 89.0931 86ZM106.172 81.16H108.832V83.74H106.172V81.16ZM99.1516 79.6H115.892V81.68H99.1516V79.6ZM101.212 72.8H113.772V78.62H101.212V72.8ZM111.152 74.86H103.832V76.58H111.152V74.86ZM101.072 82.84H113.872V87.6H103.712V89.24H101.092V85.76H111.252V84.82H101.072V82.84ZM101.092 88.66H114.352V90.66H101.092V88.66ZM130.25 72.24H132.93V90.82H130.25V72.24ZM122.95 73.54C125.75 73.54 127.81 76.1 127.81 80.14C127.81 84.22 125.75 86.78 122.95 86.78C120.15 86.78 118.09 84.22 118.09 80.14C118.09 76.1 120.15 73.54 122.95 73.54ZM122.95 75.96C121.57 75.96 120.63 77.42 120.63 80.14C120.63 82.9 121.57 84.38 122.95 84.38C124.33 84.38 125.25 82.9 125.25 80.14C125.25 77.42 124.33 75.96 122.95 75.96ZM149.111 76.04H154.151V78.18H149.111V76.04ZM149.111 81.78H154.151V83.92H149.111V81.78ZM145.911 73.54C148.671 73.54 150.691 76.1 150.691 80.14C150.691 84.22 148.671 86.78 145.911 86.78C143.131 86.78 141.131 84.22 141.131 80.14C141.131 76.1 143.131 73.54 145.911 73.54ZM145.911 75.96C144.571 75.96 143.651 77.42 143.651 80.14C143.651 82.9 144.571 84.38 145.911 84.38C147.271 84.38 148.171 82.9 148.171 80.14C148.171 77.42 147.271 75.96 145.911 75.96ZM153.731 72.24H156.371V90.82H153.731V72.24ZM172.49 72.26H175.01V83.86H172.49V72.26ZM170.23 76.82H173.19V78.98H170.23V76.82ZM168.65 72.62H171.13V83.26H168.65V72.62ZM159.15 74.16H168.13V76.2H159.15V74.16ZM163.67 76.8C165.99 76.8 167.67 78.12 167.67 80.04C167.67 81.96 165.99 83.26 163.67 83.26C161.35 83.26 159.67 81.96 159.67 80.04C159.67 78.12 161.35 76.8 163.67 76.8ZM163.67 78.7C162.69 78.7 162.03 79.18 162.03 80.04C162.03 80.9 162.69 81.38 163.67 81.38C164.63 81.38 165.29 80.9 165.29 80.04C165.29 79.18 164.63 78.7 163.67 78.7ZM162.33 72.44H164.95V75.56H162.33V72.44ZM168.75 84.06C172.71 84.06 175.11 85.26 175.11 87.42C175.11 89.56 172.71 90.78 168.75 90.78C164.77 90.78 162.37 89.56 162.37 87.42C162.37 85.26 164.77 84.06 168.75 84.06ZM168.75 86.04C166.27 86.04 165.03 86.46 165.03 87.42C165.03 88.36 166.27 88.8 168.75 88.8C171.21 88.8 172.45 88.36 172.45 87.42C172.45 86.46 171.21 86.04 168.75 86.04ZM194.351 72.24H197.031V90.76H194.351V72.24ZM196.331 79.32H199.591V81.5H196.331V79.32ZM189.491 74.16H192.091C192.091 79.72 189.971 84.48 183.811 87.58L182.331 85.56C187.191 83.04 189.491 79.64 189.491 74.62V74.16ZM183.351 74.16H190.851V76.3H183.351V74.16ZM203.029 76.86H215.809V78.98H203.029V76.86ZM203.029 72.56H205.669V77.82H203.029V72.56ZM200.929 80.56H217.689V82.68H200.929V80.56ZM209.249 83.86C213.249 83.86 215.669 85.1 215.669 87.3C215.669 89.48 213.249 90.74 209.249 90.74C205.249 90.74 202.809 89.48 202.809 87.3C202.809 85.1 205.249 83.86 209.249 83.86ZM209.249 85.9C206.769 85.9 205.509 86.34 205.509 87.3C205.509 88.24 206.769 88.7 209.249 88.7C211.729 88.7 212.989 88.24 212.989 87.3C212.989 86.34 211.729 85.9 209.249 85.9ZM231.228 72.28H233.888V86.12H231.228V72.28ZM233.128 77.92H236.348V80.1H233.128V77.92ZM219.308 74.2H230.208V76.28H219.308V74.2ZM224.768 76.94C227.428 76.94 229.308 78.4 229.308 80.52C229.308 82.64 227.428 84.08 224.768 84.08C222.088 84.08 220.208 82.64 220.208 80.52C220.208 78.4 222.088 76.94 224.768 76.94ZM224.768 78.96C223.588 78.96 222.768 79.52 222.768 80.52C222.768 81.52 223.588 82.06 224.768 82.06C225.948 82.06 226.768 81.52 226.768 80.52C226.768 79.52 225.948 78.96 224.768 78.96ZM223.428 72.24H226.088V75.22H223.428V72.24ZM221.948 88.34H234.548V90.46H221.948V88.34ZM221.948 85.08H224.608V89.26H221.948V85.08ZM246.649 73.26H248.829V74.9C248.829 78.58 247.229 81.82 243.709 83.04L242.289 80.94C245.389 79.9 246.649 77.42 246.649 74.9V73.26ZM247.189 73.26H249.349V75.16C249.349 77.38 250.589 79.54 253.489 80.44L252.109 82.5C248.769 81.38 247.189 78.5 247.189 75.16V73.26ZM254.509 72.26H257.169V83.2H254.509V72.26ZM256.429 76.54H259.629V78.74H256.429V76.54ZM251.129 83.62C254.969 83.62 257.389 84.96 257.389 87.2C257.389 89.46 254.969 90.78 251.129 90.78C247.269 90.78 244.849 89.46 244.849 87.2C244.849 84.96 247.269 83.62 251.129 83.62ZM251.129 85.68C248.769 85.68 247.489 86.18 247.489 87.2C247.489 88.24 248.769 88.72 251.129 88.72C253.489 88.72 254.749 88.24 254.749 87.2C254.749 86.18 253.489 85.68 251.129 85.68ZM261.608 84.36H262.908C265.608 84.36 267.328 84.32 269.408 84L269.628 86.16C267.508 86.52 265.668 86.56 262.908 86.56H261.608V84.36ZM261.608 74.18H269.088V76.3H264.128V85.24H261.608V74.18ZM263.408 79.02H268.728V81.08H263.408V79.02ZM274.368 72.26H276.908V90.78H274.368V72.26ZM272.148 79.42H275.208V81.56H272.148V79.42ZM270.368 72.54H272.868V89.94H270.368V72.54ZM292.106 72.28H294.786V85.58H292.106V72.28ZM282.446 88.34H295.246V90.46H282.446V88.34ZM282.446 84.24H285.106V89.2H282.446V84.24ZM284.706 73.44C287.546 73.44 289.726 75.4 289.726 78.14C289.726 80.86 287.546 82.84 284.706 82.84C281.866 82.84 279.666 80.86 279.666 78.14C279.666 75.4 281.866 73.44 284.706 73.44ZM284.706 75.74C283.326 75.74 282.266 76.62 282.266 78.14C282.266 79.64 283.326 80.52 284.706 80.52C286.066 80.52 287.126 79.64 287.126 78.14C287.126 76.62 286.066 75.74 284.706 75.74ZM302.244 75.18H304.364V77.26C304.364 81.54 302.624 85.72 299.144 87.3L297.644 85.2C300.744 83.82 302.244 80.4 302.244 77.26V75.18ZM302.844 75.18H304.944V77.26C304.944 80.26 306.424 83.46 309.524 84.74L308.084 86.84C304.564 85.32 302.844 81.38 302.844 77.26V75.18ZM298.384 74.04H308.764V76.22H298.384V74.04ZM310.484 72.26H313.164V90.78H310.484V72.26ZM330.646 77.86H334.226V80H330.646V77.86ZM328.026 73.66H330.766C330.766 78.88 328.586 82.36 322.366 84.38L321.326 82.3C326.566 80.66 328.026 78.14 328.026 74.74V73.66ZM322.306 73.66H329.746V75.78H322.306V73.66ZM328.346 77.26V79.08L321.746 79.58L321.366 77.5L328.346 77.26ZM333.906 72.26H336.566V85.94H333.906V72.26ZM324.466 88.34H337.066V90.46H324.466V88.34ZM324.466 84.62H327.126V89.72H324.466V84.62ZM352.164 72.26H354.844V90.84H352.164V72.26ZM340.584 84.2H342.184C346.084 84.2 348.284 84.12 350.764 83.66L351.004 85.84C348.504 86.34 346.164 86.42 342.184 86.42H340.584V84.2ZM340.584 73.9H349.524V76.04H343.224V85.04H340.584V73.9ZM367.643 74.66H371.323V76.8H367.643V74.66ZM367.643 78.24H371.323V80.36H367.643V78.24ZM362.103 73.32H364.243V75.44C364.243 79.28 362.683 82.6 359.183 83.9L357.763 81.82C360.823 80.74 362.103 78.14 362.103 75.44V73.32ZM362.663 73.32H364.803V75.44C364.803 77.98 366.003 80.52 368.923 81.62L367.463 83.68C364.183 82.38 362.663 79.12 362.663 75.44V73.32ZM370.703 72.28H373.363V85.98H370.703V72.28ZM361.103 88.34H373.763V90.46H361.103V88.34ZM361.103 84.72H363.783V89.68H361.103V84.72ZM388.684 79.28H391.624V81.42H388.684V79.28ZM384.384 77.4H386.384V77.88C386.384 81.74 385.264 85.6 382.304 87.3L380.804 85.3C383.444 83.76 384.384 80.72 384.384 77.88V77.4ZM384.904 77.4H386.904V77.88C386.904 80.68 387.864 83.5 390.484 84.9L389.044 86.86C386.044 85.3 384.904 81.68 384.904 77.88V77.4ZM381.504 75.36H389.764V77.5H381.504V75.36ZM384.384 72.88H386.904V77.1H384.384V72.88ZM394.524 72.26H397.044V90.78H394.524V72.26ZM390.784 72.56H393.264V89.94H390.784V72.56ZM401.442 73.88H413.102V76H401.442V73.88ZM399.562 86.42H416.302V88.6H399.562V86.42ZM411.982 73.88H414.602V76.02C414.602 78.72 414.602 81.28 413.742 85.32L411.122 85.08C411.982 81.34 411.982 78.64 411.982 76.02V73.88ZM412.542 78.96V80.92L401.222 81.48L400.902 79.34L412.542 78.96ZM423.623 74.18H438.703V76.28H423.623V74.18ZM422.843 84.24H439.603V86.38H422.843V84.24ZM429.863 86.12H432.523V90.8H429.863V86.12ZM431.203 77C435.183 77 437.543 78.12 437.543 80.18C437.543 82.22 435.183 83.36 431.203 83.36C427.203 83.36 424.843 82.22 424.843 80.18C424.843 78.12 427.203 77 431.203 77ZM431.203 78.98C428.783 78.98 427.603 79.34 427.603 80.18C427.603 81.02 428.783 81.38 431.203 81.38C433.623 81.38 434.803 81.02 434.803 80.18C434.803 79.34 433.623 78.98 431.203 78.98ZM429.863 72.24H432.523V75.58H429.863V72.24ZM458.945 72.26H461.605V85.8H458.945V72.26ZM455.745 77.64H459.325V79.8H455.745V77.64ZM453.105 73.64H455.905C455.905 78.64 452.805 82.3 447.425 84L446.325 81.88C450.585 80.54 453.105 77.98 453.105 74.84V73.64ZM447.285 73.64H454.805V75.78H447.285V73.64ZM449.465 88.34H462.065V90.46H449.465V88.34ZM449.465 84.46H452.145V89.56H449.465V84.46ZM476.423 72.26H479.083V82.98H476.423V72.26ZM478.343 76.58H481.543V78.76H478.343V76.58ZM471.123 73.46H473.983C473.983 78.44 470.903 81.9 465.443 83.42L464.363 81.3C468.823 80.08 471.123 77.66 471.123 74.8V73.46ZM465.243 73.46H472.743V75.6H465.243V73.46ZM473.083 83.22C476.823 83.22 479.283 84.68 479.283 87C479.283 89.34 476.823 90.8 473.083 90.8C469.343 90.8 466.843 89.34 466.843 87C466.843 84.68 469.343 83.22 473.083 83.22ZM473.083 85.28C470.823 85.28 469.483 85.88 469.483 87C469.483 88.14 470.823 88.74 473.083 88.74C475.343 88.74 476.683 88.14 476.683 87C476.683 85.88 475.343 85.28 473.083 85.28ZM491.844 73.26H494.024V74.9C494.024 78.58 492.424 81.82 488.904 83.04L487.484 80.94C490.584 79.9 491.844 77.42 491.844 74.9V73.26ZM492.384 73.26H494.544V75.16C494.544 77.38 495.784 79.54 498.684 80.44L497.304 82.5C493.964 81.38 492.384 78.5 492.384 75.16V73.26ZM499.704 72.26H502.364V83.2H499.704V72.26ZM501.624 76.54H504.824V78.74H501.624V76.54ZM496.324 83.62C500.164 83.62 502.584 84.96 502.584 87.2C502.584 89.46 500.164 90.78 496.324 90.78C492.464 90.78 490.044 89.46 490.044 87.2C490.044 84.96 492.464 83.62 496.324 83.62ZM496.324 85.68C493.964 85.68 492.684 86.18 492.684 87.2C492.684 88.24 493.964 88.72 496.324 88.72C498.684 88.72 499.944 88.24 499.944 87.2C499.944 86.18 498.684 85.68 496.324 85.68ZM506.803 84.36H508.103C510.803 84.36 512.523 84.32 514.603 84L514.823 86.16C512.703 86.52 510.863 86.56 508.103 86.56H506.803V84.36ZM506.803 74.18H514.283V76.3H509.323V85.24H506.803V74.18ZM508.603 79.02H513.923V81.08H508.603V79.02ZM519.563 72.26H522.103V90.78H519.563V72.26ZM517.343 79.42H520.403V81.56H517.343V79.42ZM515.563 72.54H518.063V89.94H515.563V72.54ZM536.421 72.24H539.101V90.76H536.421V72.24ZM538.401 79.32H541.661V81.5H538.401V79.32ZM531.561 74.16H534.161C534.161 79.72 532.041 84.48 525.881 87.58L524.401 85.56C529.261 83.04 531.561 79.64 531.561 74.62V74.16ZM525.421 74.16H532.921V76.3H525.421V74.16ZM560.623 72.26H563.303V90.78H560.623V72.26ZM555.163 74.18H557.803C557.803 79.84 555.883 84.48 549.303 87.66L547.923 85.54C553.243 82.98 555.163 79.62 555.163 74.66V74.18ZM548.903 74.18H556.423V76.28H548.903V74.18ZM579.781 72.26H582.301V90.78H579.781V72.26ZM577.561 79.36H580.641V81.52H577.561V79.36ZM575.801 72.54H578.281V89.94H575.801V72.54ZM569.561 75.14H571.581V76.78C571.581 81.36 570.581 85.4 567.501 87.26L565.901 85.22C568.681 83.62 569.561 80.34 569.561 76.78V75.14ZM570.101 75.14H572.141V76.78C572.141 80.04 573.081 83.12 575.841 84.56L574.321 86.58C571.201 84.9 570.101 81.08 570.101 76.78V75.14ZM566.501 74.14H574.921V76.28H566.501V74.14ZM586.279 77.92H595.359V80.04H586.279V77.92ZM589.459 79.28H592.119V82.82H589.459V79.28ZM586.279 73.38H595.239V75.5H588.939V78.8H586.279V73.38ZM597.419 72.24H600.099V86.18H597.419V72.24ZM587.559 88.34H600.599V90.46H587.559V88.34ZM587.559 85.2H590.219V89.14H587.559V85.2ZM585.079 84.1L584.759 82C588.259 82 592.599 81.96 596.319 81.56L596.499 83.46C592.639 84.02 588.479 84.1 585.079 84.1ZM612.101 73.56C614.561 73.56 616.141 76.1 616.141 80.28C616.141 84.48 614.561 87.02 612.101 87.02C609.661 87.02 608.101 84.48 608.101 80.28C608.101 76.1 609.661 73.56 612.101 73.56ZM612.101 76.06C611.101 76.06 610.521 77.46 610.521 80.28C610.521 83.12 611.101 84.5 612.101 84.5C613.121 84.5 613.701 83.12 613.701 80.28C613.701 77.46 613.121 76.06 612.101 76.06ZM621.321 72.26H623.861V90.78H621.321V72.26ZM619.101 79.32H622.161V81.46H619.101V79.32ZM617.261 72.54H619.761V89.94H617.261V72.54ZM639.179 72.26H641.839V85.9H639.179V72.26ZM633.419 73.64H636.239C636.239 78.66 633.059 82.32 627.679 83.98L626.579 81.88C630.879 80.52 633.419 77.98 633.419 74.88V73.64ZM627.559 73.64H635.079V75.78H627.559V73.64ZM635.219 75.8H639.559V77.94H635.219V75.8ZM635.039 79.98H639.419V82.1H635.039V79.98ZM629.699 88.34H642.299V90.46H629.699V88.34ZM629.699 84.58H632.379V89.7H629.699V84.58ZM656.6 72.8H658.94V73.66C658.94 77.22 656.14 80.24 651.28 80.96L650.24 78.82C654.5 78.26 656.6 75.84 656.6 73.66V72.8ZM657.1 72.8H659.42V73.66C659.42 75.82 661.54 78.26 665.78 78.82L664.76 80.96C659.9 80.24 657.1 77.22 657.1 73.66V72.8ZM656.62 84H659.26V90.78H656.62V84ZM649.64 82.32H666.38V84.48H649.64V82.32ZM672.179 75.3H674.319V75.98C674.319 79.12 672.639 81.86 669.099 82.82L667.879 80.74C670.879 79.94 672.179 77.96 672.179 75.98V75.3ZM672.679 75.3H674.839V75.98C674.839 77.84 676.159 79.7 679.139 80.44L677.959 82.48C674.379 81.6 672.679 78.98 672.679 75.98V75.3ZM668.539 74H678.479V76.08H668.539V74ZM672.179 72.2H674.839V75H672.179V72.2ZM678.039 76.9H681.559V79.04H678.039V76.9ZM680.859 72.26H683.519V82.56H680.859V72.26ZM671.219 83.28H673.859V84.9H680.879V83.28H683.519V90.58H671.219V83.28ZM673.859 86.92V88.46H680.879V86.92H673.859ZM687.197 74.1H695.177V76.2H687.197V74.1ZM689.577 79.4H692.197V85.68H689.577V79.4ZM694.117 74.1H696.737V75.6C696.737 77.4 696.737 79.64 696.237 82.72L693.637 82.48C694.117 79.52 694.117 77.38 694.117 75.6V74.1ZM698.317 72.26H700.977V90.78H698.317V72.26ZM700.197 79.7H703.457V81.9H700.197V79.7ZM686.497 87.04L686.257 84.9C689.517 84.9 693.837 84.84 697.477 84.38L697.617 86.32C693.877 86.96 689.717 87.04 686.497 87.04ZM717.058 76.34H720.138V78.48H717.058V76.34ZM717.058 82.06H720.138V84.22H717.058V82.06ZM723.078 72.26H725.618V90.78H723.078V72.26ZM719.378 72.54H721.858V89.94H719.378V72.54ZM713.858 73.56C716.318 73.56 717.898 76.1 717.898 80.28C717.898 84.48 716.318 87.02 713.858 87.02C711.418 87.02 709.858 84.48 709.858 80.28C709.858 76.1 711.418 73.56 713.858 73.56ZM713.858 76.06C712.838 76.06 712.238 77.46 712.238 80.28C712.238 83.12 712.838 84.5 713.858 84.5C714.898 84.5 715.498 83.12 715.498 80.28C715.498 77.46 714.898 76.06 713.858 76.06ZM736.637 83.58C740.477 83.58 742.897 84.92 742.897 87.18C742.897 89.46 740.477 90.8 736.637 90.8C732.777 90.8 730.357 89.46 730.357 87.18C730.357 84.92 732.777 83.58 736.637 83.58ZM736.637 85.66C734.277 85.66 732.997 86.14 732.997 87.18C732.997 88.24 734.277 88.74 736.637 88.74C738.997 88.74 740.257 88.24 740.257 87.18C740.257 86.14 738.997 85.66 736.637 85.66ZM740.017 72.26H742.677V83.16H740.017V72.26ZM741.937 76.56H745.137V78.76H741.937V76.56ZM728.637 73.44H731.277V75.72H734.897V73.44H737.537V82.14H728.637V73.44ZM731.277 77.78V80.06H734.897V77.78H731.277ZM761.398 76.4H764.918V78.54H761.398V76.4ZM764.218 72.26H766.878V82.38H764.218V72.26ZM754.578 83.14H757.218V84.82H764.238V83.14H766.878V90.58H754.578V83.14ZM757.218 86.88V88.46H764.238V86.88H757.218ZM755.658 73.68H757.818V74.86C757.818 78.34 756.178 81.56 752.618 82.74L751.278 80.62C754.338 79.62 755.658 77.2 755.658 74.86V73.68ZM756.218 73.68H758.358V74.86C758.358 77.02 759.618 79.32 762.538 80.3L761.238 82.36C757.798 81.22 756.218 78.16 756.218 74.86V73.68ZM751.998 73.1H761.958V75.22H751.998V73.1ZM776.797 78.9H779.437V82.22H776.797V78.9ZM769.777 81.12H786.517V83.22H769.777V81.12ZM778.117 84.24C782.137 84.24 784.537 85.42 784.537 87.52C784.537 89.62 782.137 90.78 778.117 90.78C774.097 90.78 771.677 89.62 771.677 87.52C771.677 85.42 774.097 84.24 778.117 84.24ZM778.117 86.24C775.617 86.24 774.377 86.64 774.377 87.52C774.377 88.42 775.617 88.8 778.117 88.8C780.617 88.8 781.857 88.42 781.857 87.52C781.857 86.64 780.617 86.24 778.117 86.24ZM776.317 74H778.677V74.46C778.677 77.24 776.177 79.5 771.397 79.96L770.477 77.86C774.537 77.52 776.317 75.9 776.317 74.46V74ZM777.617 74H779.977V74.46C779.977 75.9 781.737 77.52 785.817 77.86L784.897 79.96C780.137 79.5 777.617 77.26 777.617 74.46V74ZM771.297 73.02H785.017V75.12H771.297V73.02ZM793.058 80.8H809.798V82.9H793.058V80.8ZM801.398 83.92C805.398 83.92 807.818 85.18 807.818 87.36C807.818 89.54 805.398 90.78 801.398 90.78C797.398 90.78 794.958 89.54 794.958 87.36C794.958 85.18 797.398 83.92 801.398 83.92ZM801.398 85.98C798.918 85.98 797.658 86.4 797.658 87.36C797.658 88.3 798.918 88.74 801.398 88.74C803.878 88.74 805.138 88.3 805.138 87.36C805.138 86.4 803.878 85.98 801.398 85.98ZM799.598 74.16H801.958V74.62C801.958 77.38 799.458 79.68 794.678 80.1L793.758 78.04C797.818 77.68 799.598 76.06 799.598 74.62V74.16ZM800.898 74.16H803.258V74.62C803.258 76.06 805.018 77.68 809.098 78.04L808.178 80.1C803.418 79.68 800.898 77.4 800.898 74.62V74.16ZM794.578 73.12H808.298V75.22H794.578V73.12ZM820.416 74.94H825.136V77.04H820.416V74.94ZM820.416 78.64H825.216V80.76H820.416V78.64ZM824.296 72.26H826.956V83.1H824.296V72.26ZM812.216 73.6H820.976V82.1H812.216V73.6ZM818.356 75.7H814.836V80.02H818.356V75.7ZM820.676 83.58C824.596 83.58 827.016 84.92 827.016 87.18C827.016 89.46 824.596 90.78 820.676 90.78C816.756 90.78 814.336 89.46 814.336 87.18C814.336 84.92 816.756 83.58 820.676 83.58ZM820.676 85.62C818.276 85.62 816.996 86.12 816.996 87.18C816.996 88.24 818.276 88.76 820.676 88.76C823.096 88.76 824.376 88.24 824.376 87.18C824.376 86.12 823.096 85.62 820.676 85.62ZM839.195 78.04H844.075V80.18H839.195V78.04ZM834.155 73.68H836.315V76.36C836.315 81.02 834.735 85.32 831.255 87.06L829.595 84.92C832.755 83.46 834.155 79.88 834.155 76.36V73.68ZM834.715 73.68H836.835V76.36C836.835 79.88 838.175 83.26 841.235 84.62L839.655 86.74C836.175 85.06 834.715 80.98 834.715 76.36V73.68ZM842.755 72.24H845.395V90.82H842.755V72.24ZM850.333 77.26H863.173V79.36H850.333V77.26ZM848.253 81.28H865.033V83.4H848.253V81.28ZM850.333 72.92H852.973V78.3H850.333V72.92ZM850.153 88.26H863.273V90.38H850.153V88.26ZM850.153 84.88H852.813V88.82H850.153V84.88ZM884.294 72.26H886.974V81.74H884.294V72.26ZM874.434 82.48H886.974V87.48H877.094V89.72H874.474V85.58H884.334V84.52H874.434V82.48ZM874.474 88.6H887.474V90.66H874.474V88.6ZM872.334 73.38H882.314V75.42H872.334V73.38ZM872.114 81.42L871.854 79.32C875.094 79.32 879.414 79.26 882.994 78.82L883.134 80.72C879.474 81.32 875.314 81.4 872.114 81.42ZM873.794 74.3H876.334V80.36H873.794V74.3ZM878.274 74.3H880.854V80.36H878.274V74.3ZM896.913 72.8H899.253V73.66C899.253 77.22 896.453 80.24 891.593 80.96L890.553 78.82C894.813 78.26 896.913 75.84 896.913 73.66V72.8ZM897.413 72.8H899.733V73.66C899.733 75.82 901.853 78.26 906.093 78.82L905.073 80.96C900.213 80.24 897.413 77.22 897.413 73.66V72.8ZM896.933 84H899.573V90.78H896.933V84ZM889.953 82.32H906.693V84.48H889.953V82.32ZM911.271 84.54H909.111L908.691 74.72H911.711L911.271 84.54ZM908.631 87.72C908.631 87.16 908.778 86.7667 909.071 86.54C909.378 86.3 909.745 86.18 910.171 86.18C910.598 86.18 910.958 86.2933 911.251 86.52C911.558 86.7467 911.711 87.1467 911.711 87.72C911.711 88.2667 911.558 88.66 911.251 88.9C910.958 89.14 910.598 89.26 910.171 89.26C909.745 89.26 909.378 89.14 909.071 88.9C908.778 88.66 908.631 88.2667 908.631 87.72Z" fill="white"/>
<path d="M85.1589 24.3344C85.4975 24.6657 85.709 25.1261 85.709 25.6365C85.709 26.6427 84.8923 27.4594 83.886 27.4594C82.8798 27.4594 82.0631 26.6427 82.0631 25.6365C82.0631 25.5469 82.0766 25.4615 82.0891 25.3761H78.912C78.9245 25.4615 78.9381 25.5469 78.9381 25.6365C78.9381 26.6427 78.1214 27.4594 77.1152 27.4594C76.1089 27.4594 75.2922 26.6427 75.2922 25.6365C75.2922 25.1261 75.5037 24.6657 75.8422 24.3344C75.5037 24.0032 75.2922 23.5427 75.2922 23.0323C75.2922 22.0261 76.1089 21.2094 77.1152 21.2094C78.1214 21.2094 78.9381 22.0261 78.9381 23.0323C78.9381 23.1219 78.9245 23.2073 78.912 23.2927H82.0891C82.0766 23.2073 82.0631 23.1219 82.0631 23.0323C82.0631 22.0261 82.8798 21.2094 83.886 21.2094C84.8923 21.2094 85.709 22.0261 85.709 23.0323C85.709 23.5427 85.4975 24.0032 85.1589 24.3344ZM92.0402 31.0042C91.1996 32.0615 89.9423 32.6678 88.5913 32.6678H72.4089C71.0589 32.6678 69.8016 32.0615 68.9599 31.0042C68.1183 29.9469 67.811 28.5865 68.1141 27.2698L69.7256 20.2854C70.3078 17.7625 72.5235 16 75.1131 16H85.8871C88.4767 16 90.6923 17.7625 91.2746 20.2854L92.8861 27.2688C93.1892 28.5855 92.8809 29.9469 92.0402 31.0042ZM90.8558 27.7375L89.2444 20.7542C88.8819 19.1813 87.5017 18.0833 85.8871 18.0833H75.1141C73.5006 18.0833 72.1193 19.1813 71.7568 20.7531L70.1453 27.7365C69.9849 28.4313 70.1474 29.148 70.5912 29.7063C71.0349 30.2646 71.6974 30.5834 72.4099 30.5834H88.5933C89.3058 30.5834 89.9683 30.2636 90.4121 29.7063C90.8558 29.149 91.0183 28.4313 90.8579 27.7365L90.8558 27.7375Z" fill="white"/>
</svg>
