<svg width="128" height="50" viewBox="0 0 128 50" fill="none" xmlns="http://www.w3.org/2000/svg">
<rect width="128" height="50" rx="20" fill="#DDAC7E"/>
<path d="M49.1223 16.26H51.7823V26.98H49.1223V16.26ZM51.0423 20.58H54.2423V22.76H51.0423V20.58ZM43.8223 17.46H46.6823C46.6823 22.44 43.6023 25.9 38.1423 27.42L37.0623 25.3C41.5223 24.08 43.8223 21.66 43.8223 18.8V17.46ZM37.9423 17.46H45.4423V19.6H37.9423V17.46ZM45.7823 27.22C49.5223 27.22 51.9823 28.68 51.9823 31C51.9823 33.34 49.5223 34.8 45.7823 34.8C42.0423 34.8 39.5423 33.34 39.5423 31C39.5423 28.68 42.0423 27.22 45.7823 27.22ZM45.7823 29.28C43.5223 29.28 42.1823 29.88 42.1823 31C42.1823 32.14 43.5223 32.74 45.7823 32.74C48.0423 32.74 49.3823 32.14 49.3823 31C49.3823 29.88 48.0423 29.28 45.7823 29.28ZM60.4208 25.76H63.0808V29.82H60.4208V25.76ZM68.5408 16.26H71.2008V30.28H68.5408V16.26ZM57.8608 32.34H71.6008V34.46H57.8608V32.34ZM57.8608 28.96H60.5208V32.9H57.8608V28.96ZM55.8608 26.56L55.5408 24.44C58.9208 24.44 63.4408 24.4 67.3208 23.9L67.4808 25.8C63.5408 26.46 59.2008 26.56 55.8608 26.56ZM65.0408 27.02H69.1208V28.84H65.0408V27.02ZM61.5008 16.9C64.2008 16.9 66.1008 18.24 66.1008 20.2C66.1008 22.18 64.2008 23.5 61.5008 23.5C58.7808 23.5 56.8808 22.18 56.8808 20.2C56.8808 18.24 58.7808 16.9 61.5008 16.9ZM61.5008 18.84C60.2608 18.84 59.4008 19.3 59.4008 20.2C59.4008 21.1 60.2608 21.56 61.5008 21.56C62.7208 21.56 63.5808 21.1 63.5808 20.2C63.5808 19.3 62.7208 18.84 61.5008 18.84ZM75.9592 24.52H88.9792V26.64H75.9592V24.52ZM74.0192 30.52H90.7792V32.7H74.0192V30.52ZM81.0392 25.48H83.6992V31.22H81.0392V25.48ZM75.9592 17.52H88.8392V19.66H78.6192V25.44H75.9592V17.52Z" fill="white"/>
</svg>
