<svg width="128" height="50" viewBox="0 0 128 50" fill="none" xmlns="http://www.w3.org/2000/svg">
<rect width="128" height="50" rx="20" fill="#DDAC7E"/>
<path d="M55.8216 19.18H60.1616V21.3H55.8216V19.18ZM55.6816 23.02H60.0216V25.14H55.6816V23.02ZM59.7416 16.26H62.4016V26.92H59.7416V16.26ZM53.7016 17.52H56.5416C56.5416 22.56 53.7016 25.8 48.0816 27.34L47.0416 25.24C51.7416 24.02 53.7016 21.7 53.7016 18.8V17.52ZM48.0616 17.52H55.5616V19.64H48.0616V17.52ZM56.2616 27.16C60.0216 27.16 62.5216 28.6 62.5216 30.92C62.5216 33.24 60.0216 34.7 56.2616 34.7C52.5016 34.7 50.0016 33.24 50.0016 30.92C50.0016 28.6 52.5016 27.16 56.2616 27.16ZM56.2616 29.2C54.0016 29.2 52.6416 29.78 52.6416 30.92C52.6416 32.06 54.0016 32.62 56.2616 32.62C58.5416 32.62 59.9016 32.06 59.9016 30.92C59.9016 29.78 58.5416 29.2 56.2616 29.2ZM78.06 16.26H80.74V34.78H78.06V16.26ZM72.6 18.18H75.24C75.24 23.84 73.32 28.48 66.74 31.66L65.36 29.54C70.68 26.98 72.6 23.62 72.6 18.66V18.18ZM66.34 18.18H73.86V20.28H66.34V18.18Z" fill="white"/>
</svg>
