<svg width="458" height="33" viewBox="0 0 458 33" fill="none" xmlns="http://www.w3.org/2000/svg">
<path d="M19.1664 4.764C19.1664 3.78 19.4904 2.988 20.1384 2.388C20.7864 1.764 21.6624 1.452 22.7664 1.452C23.8464 1.452 24.6984 1.764 25.3224 2.388C25.9464 3.012 26.2584 3.828 26.2584 4.836V10.776L26.7624 10.992C26.9304 10.248 27.2184 9.672 27.6264 9.264C28.0584 8.832 28.6344 8.616 29.3544 8.616C30.0984 8.616 30.7104 8.904 31.1904 9.48C31.6944 10.032 31.9464 10.8 31.9464 11.784C31.9464 12.792 31.6824 13.572 31.1544 14.124C30.6264 14.676 30.0264 14.952 29.3544 14.952C28.7784 14.952 28.2984 14.808 27.9144 14.52C27.5304 14.208 27.2304 13.836 27.0144 13.404C26.8704 13.14 26.7024 13.044 26.5104 13.116C26.3424 13.164 26.2584 13.356 26.2584 13.692V19.632C26.2584 20.544 25.9344 21.312 25.2864 21.936C24.6384 22.56 23.7984 22.872 22.7664 22.872C21.7344 22.872 20.8704 22.56 20.1744 21.936C19.5024 21.312 19.1664 20.544 19.1664 19.632V4.764ZM7.75442 20.028C6.02642 20.028 4.64642 19.74 3.61442 19.164C2.60642 18.588 1.89842 17.832 1.49042 16.896C1.08242 15.936 0.926422 14.904 1.02242 13.8C1.09442 13.08 1.20242 12.516 1.34642 12.108C1.51442 11.676 1.67042 11.304 1.81442 10.992C1.95842 10.68 2.03042 10.32 2.03042 9.912L1.99442 5.484C1.99442 4.428 2.27042 3.636 2.82242 3.108C3.39842 2.58 4.09442 2.316 4.91042 2.316C5.75042 2.316 6.43442 2.544 6.96242 3C7.51442 3.432 7.79042 4.092 7.79042 4.98V7.14H11.1744V4.98C11.1744 4.116 11.4744 3.456 12.0744 3C12.6744 2.544 13.3944 2.316 14.2344 2.316C15.0744 2.316 15.7824 2.58 16.3584 3.108C16.9344 3.612 17.2224 4.404 17.2224 5.484V14.592C17.2224 16.44 16.8384 17.808 16.0704 18.696C15.3264 19.584 14.0904 20.028 12.3624 20.028H7.75442ZM3.72242 12.036C3.86642 12.348 4.05842 12.54 4.29842 12.612C4.56242 12.684 5.01842 12.72 5.66642 12.72H10.7064C11.1144 12.72 11.3784 12.684 11.4984 12.612C11.6184 12.516 11.6784 12.312 11.6784 12V11.604C11.6784 11.34 11.6184 11.172 11.4984 11.1C11.3784 11.004 11.1144 10.956 10.7064 10.956H4.22642C3.91442 10.956 3.69842 11.016 3.57842 11.136C3.45842 11.256 3.45842 11.436 3.57842 11.676L3.72242 12.036ZM3.57842 26.508C3.55442 26.1 3.54242 25.788 3.54242 25.572C3.56642 25.332 3.59042 24.888 3.61442 24.24C3.78242 22.08 4.92242 21 7.03442 21C8.09042 21 8.89442 21.24 9.44642 21.72C10.0224 22.2 10.3104 22.836 10.3104 23.628C10.3104 24.012 10.4064 24.336 10.5984 24.6C10.7904 24.84 11.2944 24.96 12.1104 24.96H22.8024C23.9784 24.96 24.8904 25.272 25.5384 25.896C26.1864 26.496 26.5104 27.42 26.5104 28.668C26.5104 29.844 26.1864 30.756 25.5384 31.404C24.8904 32.052 23.9784 32.376 22.8024 32.376H10.3104C8.84642 32.376 7.62242 32.196 6.63842 31.836C5.65442 31.5 4.91042 30.9 4.40642 30.036C3.90242 29.196 3.62642 28.02 3.57842 26.508ZM40.5538 27.192C39.2578 27.192 38.0818 27.024 37.0258 26.688C35.9938 26.352 35.1658 25.812 34.5418 25.068C33.9178 24.324 33.6058 23.34 33.6058 22.116C33.6058 21.276 33.7378 20.58 34.0018 20.028C34.2658 19.452 34.5778 19.008 34.9378 18.696C35.2978 18.36 35.6098 18.12 35.8738 17.976C36.1378 17.832 36.2698 17.76 36.2698 17.76L35.9098 17.148C35.4298 17.052 34.9738 16.812 34.5418 16.428C34.1338 16.02 33.9298 15.36 33.9298 14.448C33.9298 13.536 34.1578 12.864 34.6138 12.432C35.0938 11.976 35.7058 11.748 36.4498 11.748H44.8018C45.1138 11.748 45.3298 11.7 45.4498 11.604C45.5698 11.484 45.6298 11.256 45.6298 10.92C45.6298 10.584 45.5698 10.368 45.4498 10.272C45.3298 10.176 45.1018 10.128 44.7658 10.128H37.4938C36.5818 10.128 35.8018 9.84 35.1538 9.264C34.5058 8.688 34.1818 7.836 34.1818 6.708C34.1818 5.58 34.4938 4.74 35.1178 4.188C35.7658 3.612 36.5458 3.324 37.4578 3.324H44.5138C45.9778 3.324 47.0458 3.72 47.7178 4.512C48.4138 5.28 48.7618 6.372 48.7618 7.788V9.444C49.0258 8.94 49.3978 8.544 49.8778 8.256C50.3818 7.944 50.9338 7.788 51.5338 7.788C51.7978 7.788 52.0378 7.8 52.2538 7.824C52.4698 7.824 52.6618 7.848 52.8298 7.896V4.8C52.8298 3.816 53.1538 2.988 53.8018 2.316C54.4498 1.644 55.3258 1.308 56.4298 1.308C57.5098 1.308 58.3498 1.656 58.9498 2.352C59.5738 3.024 59.8858 3.864 59.8858 4.872V29.136C59.8858 30.048 59.5618 30.816 58.9138 31.44C58.2898 32.064 57.4618 32.376 56.4298 32.376C55.3978 32.376 54.5338 32.064 53.8378 31.44C53.1658 30.816 52.8298 30.048 52.8298 29.136V22.008C52.4458 22.08 52.0138 22.116 51.5338 22.116C51.1978 22.116 50.8858 22.08 50.5978 22.008C50.6938 22.32 50.7418 22.704 50.7418 23.16C50.7418 25.848 49.2538 27.192 46.2778 27.192H40.5538ZM37.4218 17.976C37.5658 18.264 37.7218 18.504 37.8898 18.696C38.0578 18.864 38.3218 18.996 38.6818 19.092C39.0658 19.164 39.6298 19.2 40.3738 19.2H46.2778C46.6858 19.2 47.0698 19.236 47.4298 19.308C47.8138 19.356 48.1618 19.428 48.4738 19.524C48.4498 19.428 48.4258 19.32 48.4018 19.2C48.4018 19.08 48.4018 18.96 48.4018 18.84C48.4018 17.856 48.7018 17.064 49.3018 16.464C49.9018 15.84 50.6458 15.528 51.5338 15.528C52.0378 15.528 52.4698 15.564 52.8298 15.636V14.268C52.4458 14.34 52.0138 14.376 51.5338 14.376C50.9338 14.376 50.3818 14.232 49.8778 13.944C49.3978 13.656 49.0258 13.248 48.7618 12.72V12.972C48.7618 14.436 48.4738 15.504 47.8978 16.176C47.3218 16.824 46.3018 17.148 44.8378 17.148H38.1418C37.8298 17.148 37.6018 17.22 37.4578 17.364C37.3138 17.508 37.3018 17.712 37.4218 17.976ZM64.0292 17.508C64.0292 16.548 64.3172 15.816 64.8932 15.312C65.4932 14.784 66.2252 14.52 67.0892 14.52H76.4492V13.44H72.3452C71.5532 13.44 70.7972 13.344 70.0772 13.152C69.3812 12.936 68.8172 12.588 68.3852 12.108C67.9532 11.604 67.7132 10.92 67.6652 10.056C67.6412 9.36 67.7612 8.772 68.0252 8.292C68.2892 7.812 68.6012 7.44 68.9612 7.176C69.3452 6.888 69.6572 6.732 69.8972 6.708V6.672C69.2012 6.672 68.6372 6.42 68.2052 5.916C67.7972 5.412 67.5932 4.8 67.5932 4.08C67.5932 3.36 67.8212 2.748 68.2772 2.244C68.7332 1.716 69.4172 1.452 70.3292 1.452H86.7812C87.7652 1.452 88.4612 1.728 88.8692 2.28C89.2772 2.808 89.4812 3.432 89.4812 4.152C89.4812 4.872 89.2772 5.508 88.8692 6.06C88.4612 6.612 87.7652 6.888 86.7812 6.888H73.2092C72.5852 6.888 72.3452 7.044 72.4892 7.356C72.6092 7.572 72.7892 7.716 73.0292 7.788C73.2692 7.836 73.6772 7.86 74.2532 7.86H86.7092C87.9092 7.86 88.7132 8.124 89.1212 8.652C89.5532 9.18 89.7692 9.864 89.7692 10.704C89.7692 11.544 89.5532 12.216 89.1212 12.72C88.7132 13.2 87.9092 13.44 86.7092 13.44H80.3372C80.4092 14.16 80.8532 14.52 81.6692 14.52H90.7052C91.5212 14.52 92.1932 14.796 92.7212 15.348C93.2492 15.876 93.5132 16.596 93.5132 17.508C93.5132 18.42 93.2492 19.164 92.7212 19.74C92.1932 20.316 91.5212 20.604 90.7052 20.604H66.9812C66.1652 20.604 65.4692 20.328 64.8932 19.776C64.3172 19.224 64.0292 18.468 64.0292 17.508ZM78.8252 32.772C75.9212 32.772 73.6292 32.508 71.9492 31.98C70.2932 31.476 69.1172 30.792 68.4212 29.928C67.7492 29.04 67.4132 28.068 67.4132 27.012C67.4132 26.172 67.5692 25.416 67.8812 24.744C68.2172 24.048 68.7932 23.448 69.6092 22.944C70.4252 22.44 71.5772 22.056 73.0652 21.792C74.5772 21.528 76.4972 21.396 78.8252 21.396C81.1292 21.396 83.0132 21.528 84.4772 21.792C85.9652 22.056 87.1172 22.44 87.9332 22.944C88.7732 23.448 89.3612 24.048 89.6972 24.744C90.0332 25.416 90.2012 26.172 90.2012 27.012C90.2012 28.068 89.8652 29.04 89.1932 29.928C88.5212 30.792 87.3572 31.476 85.7012 31.98C84.0452 32.508 81.7532 32.772 78.8252 32.772ZM73.7492 24.78C73.7492 24.972 73.8692 25.14 74.1092 25.284C74.3732 25.404 74.8532 25.5 75.5492 25.572C76.2452 25.62 77.2532 25.644 78.5732 25.644C80.5172 25.644 81.8372 25.572 82.5332 25.428C83.2532 25.284 83.6132 25.068 83.6132 24.78C83.6132 24.396 83.2532 24.144 82.5332 24.024C81.8372 23.904 80.5172 23.844 78.5732 23.844C77.2532 23.844 76.2452 23.88 75.5492 23.952C74.8532 24 74.3732 24.096 74.1092 24.24C73.8692 24.36 73.7492 24.54 73.7492 24.78ZM98.5925 9.084C98.5925 8.34 98.7365 7.764 99.0245 7.356C99.3365 6.924 99.6845 6.624 100.069 6.456C100.453 6.264 100.753 6.168 100.969 6.168V6.132C100.441 6.132 99.9485 5.94 99.4925 5.556C99.0365 5.148 98.8085 4.548 98.8085 3.756C98.8085 2.94 99.0725 2.352 99.6005 1.992C100.129 1.632 100.873 1.452 101.833 1.452H116.125C117.373 1.452 118.357 1.56 119.077 1.776C119.821 1.968 120.349 2.388 120.661 3.036C120.997 3.66 121.165 4.62 121.165 5.916V8.256C121.165 9.456 120.997 10.368 120.661 10.992C120.349 11.592 119.821 12 119.077 12.216C118.357 12.408 117.373 12.504 116.125 12.504H104.245C102.397 12.504 100.993 12.24 100.033 11.712C99.0725 11.184 98.5925 10.308 98.5925 9.084ZM103.345 6.708C103.465 6.924 103.693 7.044 104.029 7.068C104.365 7.092 104.785 7.104 105.289 7.104H114.145C114.553 7.104 114.817 7.08 114.937 7.032C115.057 6.984 115.117 6.864 115.117 6.672C115.117 6.48 115.057 6.372 114.937 6.348C114.817 6.3 114.553 6.276 114.145 6.276H104.497C104.041 6.276 103.705 6.3 103.489 6.348C103.297 6.396 103.249 6.516 103.345 6.708ZM98.2685 19.416C97.4765 19.416 96.7925 19.164 96.2165 18.66C95.6645 18.132 95.3885 17.4 95.3885 16.464C95.3885 15.528 95.6765 14.82 96.2525 14.34C96.8285 13.836 97.5245 13.584 98.3405 13.584H121.957C122.797 13.584 123.493 13.836 124.045 14.34C124.597 14.844 124.873 15.552 124.873 16.464C124.873 17.328 124.597 18.036 124.045 18.588C123.493 19.14 122.797 19.416 121.957 19.416H112.633C112.105 19.536 111.841 19.908 111.841 20.532V20.568H118.105C119.233 20.568 119.989 20.796 120.373 21.252C120.757 21.684 120.949 22.428 120.949 23.484C120.949 24.516 120.733 25.212 120.301 25.572C119.869 25.932 119.089 26.112 117.961 26.112H102.553C102.241 26.112 102.025 26.136 101.905 26.184C101.809 26.232 101.761 26.34 101.761 26.508C101.761 26.676 101.809 26.784 101.905 26.832C102.025 26.88 102.241 26.904 102.553 26.904H118.717C119.917 26.904 120.805 27.096 121.381 27.48C121.957 27.864 122.245 28.596 122.245 29.676C122.245 30.708 121.957 31.416 121.381 31.8C120.805 32.208 119.917 32.412 118.717 32.412H103.057C101.905 32.412 100.957 32.304 100.213 32.088C99.4685 31.896 98.9165 31.524 98.5565 30.972C98.1965 30.42 98.0165 29.604 98.0165 28.524C98.0405 27.228 98.3525 26.34 98.9525 25.86C99.5765 25.38 100.693 25.14 102.301 25.14H115.297C115.561 25.14 115.729 25.116 115.801 25.068C115.897 25.02 115.945 24.912 115.945 24.744C115.945 24.576 115.897 24.48 115.801 24.456C115.729 24.408 115.561 24.384 115.297 24.384H101.113C100.513 24.384 99.9965 24.24 99.5645 23.952C99.1565 23.64 98.9525 23.136 98.9525 22.44C98.9525 21.768 99.1565 21.288 99.5645 21C99.9725 20.712 100.489 20.568 101.113 20.568H107.953V19.416H98.2685ZM147.556 32.376C146.524 32.376 145.66 32.064 144.964 31.44C144.292 30.816 143.956 30.036 143.956 29.1V21.504H143.308C142.972 22.632 142.408 23.676 141.616 24.636C140.824 25.596 139.828 26.388 138.628 27.012C137.452 27.612 136.072 27.96 134.488 28.056C133.312 28.128 132.352 28.164 131.608 28.164C130.864 28.164 130.144 28.14 129.448 28.092C128.296 27.996 127.42 27.66 126.82 27.084C126.244 26.508 125.968 25.632 125.992 24.456C126.016 23.256 126.352 22.392 127 21.864C127.648 21.336 128.428 21.072 129.34 21.072H130.276L130.672 20.388C130.408 20.244 130.072 19.944 129.664 19.488C129.256 19.008 129.052 18.312 129.052 17.4C129.052 16.584 129.34 15.828 129.916 15.132C130.516 14.436 131.368 14.088 132.472 14.088C133.528 14.088 134.332 14.436 134.884 15.132C135.436 15.828 135.712 16.584 135.712 17.4C135.712 18.096 135.58 18.66 135.316 19.092C135.052 19.5 134.8 19.836 134.56 20.1C134.392 20.316 134.356 20.532 134.452 20.748C134.572 20.964 134.764 21.072 135.028 21.072H136.792C137.992 21.072 139.132 20.94 140.212 20.676C141.316 20.388 142.216 19.932 142.912 19.308C143.608 18.66 143.956 17.808 143.956 16.752V4.296C143.956 3.312 144.28 2.52 144.928 1.92C145.576 1.296 146.452 0.983998 147.556 0.983998C148.636 0.983998 149.488 1.296 150.112 1.92C150.736 2.544 151.048 3.36 151.048 4.368V13.368L151.624 13.584C151.816 12.792 152.152 12.156 152.632 11.676C153.112 11.196 153.724 10.956 154.468 10.956C155.308 10.956 156.004 11.28 156.556 11.928C157.108 12.552 157.384 13.416 157.384 14.52C157.384 15.624 157.084 16.488 156.484 17.112C155.884 17.736 155.212 18.048 154.468 18.048C153.844 18.048 153.316 17.868 152.884 17.508C152.476 17.148 152.152 16.74 151.912 16.284C151.744 15.996 151.552 15.888 151.336 15.96C151.144 16.032 151.048 16.248 151.048 16.608V29.1C151.048 30.036 150.724 30.816 150.076 31.44C149.428 32.064 148.588 32.376 147.556 32.376ZM126.568 6.78C126.568 5.724 126.856 4.86 127.432 4.188C128.032 3.516 128.896 3.18 130.024 3.18H136.792C138.76 3.18 140.176 3.54 141.04 4.26C141.904 4.98 142.348 6.3 142.372 8.22C142.42 9.396 142.432 10.608 142.408 11.856C142.408 13.08 142.372 14.28 142.3 15.456C142.18 17.904 141.16 19.128 139.24 19.128C138.352 19.104 137.644 18.816 137.116 18.264C136.612 17.712 136.36 16.992 136.36 16.104C136.36 15.456 136.48 14.94 136.72 14.556C136.96 14.148 137.2 13.776 137.44 13.44C137.68 13.08 137.8 12.672 137.8 12.216C137.8 10.992 137.164 10.38 135.892 10.38H130.024C128.896 10.38 128.032 10.044 127.432 9.372C126.856 8.676 126.568 7.812 126.568 6.78ZM184.736 4.8C184.736 3.816 185.06 2.988 185.708 2.316C186.356 1.644 187.232 1.308 188.336 1.308C189.416 1.308 190.256 1.656 190.856 2.352C191.48 3.024 191.792 3.864 191.792 4.872V29.136C191.792 30.048 191.468 30.816 190.82 31.44C190.196 32.064 189.368 32.376 188.336 32.376C187.304 32.376 186.44 32.064 185.744 31.44C185.072 30.816 184.736 30.048 184.736 29.136V4.8ZM165.548 19.092C165.524 17.652 165.716 16.464 166.124 15.528C166.532 14.592 167.024 13.884 167.6 13.404C168.2 12.9 168.74 12.576 169.22 12.432L168.86 11.64C168.26 11.64 167.672 11.388 167.096 10.884C166.52 10.356 166.208 9.624 166.16 8.688C166.064 7.2 166.616 5.988 167.816 5.052C169.04 4.092 170.9 3.612 173.396 3.612C176.204 3.612 178.448 4.56 180.128 6.456C181.832 8.328 182.684 11.256 182.684 15.24C182.684 17.976 182.312 20.208 181.568 21.936C180.848 23.64 179.828 24.9 178.508 25.716C177.188 26.508 175.652 26.904 173.9 26.904C172.532 26.904 171.212 26.628 169.94 26.076C168.692 25.524 167.66 24.672 166.844 23.52C166.052 22.368 165.62 20.892 165.548 19.092ZM173.036 18.768C174.044 18.768 174.788 18.48 175.268 17.904C175.748 17.304 175.988 16.26 175.988 14.772C175.988 13.212 175.736 12.144 175.232 11.568C174.728 10.992 173.984 10.704 173 10.704C171.968 10.704 171.212 10.992 170.732 11.568C170.276 12.144 170.048 13.212 170.048 14.772C170.048 16.236 170.288 17.268 170.768 17.868C171.248 18.468 172.004 18.768 173.036 18.768ZM209.568 13.296C208.68 13.608 207.768 13.596 206.832 13.26C205.92 12.924 205.296 12.252 204.96 11.244C204.504 9.996 204.564 8.964 205.14 8.148C205.716 7.308 206.52 6.648 207.552 6.168C209.04 5.472 210.276 4.872 211.26 4.368C212.244 3.864 213.18 3.324 214.068 2.748C214.716 2.292 215.4 1.872 216.12 1.488C216.84 1.08 217.56 0.827999 218.28 0.731999C219.024 0.635999 219.732 0.815999 220.404 1.272C221.004 1.656 221.424 2.172 221.664 2.82C221.928 3.444 222.036 4.068 221.988 4.692C221.94 5.316 221.736 5.82 221.376 6.204C221.112 6.516 220.884 6.756 220.692 6.924C220.524 7.068 220.44 7.14 220.44 7.14L220.8 8.112C221.448 7.464 222.228 6.984 223.14 6.672C224.076 6.36 225 6.264 225.912 6.384C226.824 6.48 227.58 6.876 228.18 7.572C228.588 8.028 228.852 8.544 228.972 9.12C229.116 9.672 229.14 10.2 229.044 10.704C228.924 11.376 228.636 11.964 228.18 12.468C227.748 12.972 227.148 13.284 226.38 13.404C225.492 13.548 224.664 13.44 223.896 13.08C223.152 12.72 222.552 12.24 222.096 11.64C221.568 10.92 221.1 10.344 220.692 9.912C220.308 9.48 219.912 9.18 219.504 9.012C219.096 8.82 218.58 8.724 217.956 8.724C217.236 8.724 216.516 8.916 215.796 9.3C215.1 9.66 214.404 10.116 213.708 10.668C213.012 11.196 212.316 11.712 211.62 12.216C210.948 12.696 210.264 13.056 209.568 13.296ZM202.44 17.544C202.44 16.584 202.728 15.852 203.304 15.348C203.904 14.82 204.636 14.556 205.5 14.556H229.116C229.932 14.556 230.604 14.832 231.132 15.384C231.66 15.912 231.924 16.632 231.924 17.544C231.924 18.456 231.66 19.2 231.132 19.776C230.604 20.352 229.932 20.64 229.116 20.64H219.792C218.904 20.64 218.46 21.048 218.46 21.864V21.936H224.148C226.956 21.936 228.396 23.124 228.468 25.5C228.492 26.316 228.48 26.976 228.432 27.48C228.408 27.984 228.372 28.548 228.324 29.172C228.204 30.348 227.856 31.2 227.28 31.728C226.728 32.256 225.912 32.52 224.832 32.52C223.944 32.52 223.164 32.316 222.492 31.908C221.844 31.5 221.52 30.852 221.52 29.964V29.064C221.52 28.752 221.424 28.524 221.232 28.38C221.064 28.212 220.74 28.128 220.26 28.128H208.74C207.564 28.128 206.7 27.84 206.148 27.264C205.62 26.688 205.356 25.92 205.356 24.96C205.356 23.976 205.62 23.232 206.148 22.728C206.7 22.2 207.564 21.936 208.74 21.936H214.572V20.64H205.392C204.576 20.64 203.88 20.364 203.304 19.812C202.728 19.26 202.44 18.504 202.44 17.544ZM258.388 20.82C257.116 21.084 256.048 20.892 255.184 20.244C254.32 19.596 253.504 18.54 252.736 17.076C252.28 16.212 251.788 15.504 251.26 14.952C250.732 14.376 250.084 14.088 249.316 14.088C248.5 14.088 247.78 14.304 247.156 14.736C246.556 15.144 245.956 15.672 245.356 16.32C244.78 16.968 244.144 17.64 243.448 18.336C242.752 19.032 241.912 19.644 240.928 20.172C240.16 20.604 239.38 20.796 238.588 20.748C237.82 20.7 237.124 20.448 236.5 19.992C235.9 19.536 235.456 18.924 235.168 18.156C234.856 17.292 234.82 16.5 235.06 15.78C235.3 15.036 235.732 14.328 236.356 13.656C236.98 12.984 237.712 12.336 238.552 11.712C239.8 10.752 241.024 9.78 242.224 8.796C243.424 7.788 244.576 6.744 245.68 5.664C246.232 5.112 246.82 4.62 247.444 4.188C248.092 3.732 248.776 3.444 249.496 3.324C250.216 3.18 250.972 3.324 251.764 3.756C252.484 4.116 253.012 4.644 253.348 5.34C253.708 6.012 253.864 6.732 253.816 7.5C253.768 8.268 253.504 8.964 253.024 9.588C252.496 10.284 252.016 10.8 251.584 11.136C251.176 11.472 250.972 11.64 250.972 11.64L251.26 12.54C252.196 12.18 253.24 12 254.392 12C255.544 11.976 256.648 12.192 257.704 12.648C258.784 13.08 259.648 13.788 260.296 14.772C260.872 15.612 261.136 16.476 261.088 17.364C261.064 18.228 260.812 18.984 260.332 19.632C259.852 20.256 259.204 20.652 258.388 20.82ZM233.764 26.328C233.764 25.272 234.1 24.432 234.772 23.808C235.444 23.16 236.248 22.836 237.184 22.836H244.6C244.504 22.476 244.456 22.02 244.456 21.468C244.456 20.484 244.804 19.608 245.5 18.84C246.196 18.072 247.168 17.688 248.416 17.688C249.688 17.688 250.648 18.072 251.296 18.84C251.944 19.608 252.268 20.484 252.268 21.468C252.268 22.02 252.22 22.476 252.124 22.836H259.972C260.908 22.836 261.688 23.172 262.312 23.844C262.936 24.492 263.248 25.32 263.248 26.328C263.248 27.36 262.936 28.212 262.312 28.884C261.688 29.556 260.908 29.892 259.972 29.892H237.112C236.224 29.892 235.444 29.58 234.772 28.956C234.1 28.308 233.764 27.432 233.764 26.328ZM288.307 4.296C288.307 3.312 288.571 2.568 289.099 2.064C289.651 1.56 290.359 1.308 291.223 1.308C292.087 1.308 292.783 1.56 293.311 2.064C293.863 2.568 294.139 3.312 294.139 4.296V29.352C294.139 30.336 293.863 31.08 293.311 31.584C292.783 32.112 292.087 32.376 291.223 32.376C290.359 32.376 289.651 32.112 289.099 31.584C288.571 31.08 288.307 30.336 288.307 29.352V4.296ZM265.555 19.092C265.531 17.652 265.687 16.464 266.023 15.528C266.359 14.592 266.779 13.884 267.283 13.404C267.787 12.9 268.255 12.576 268.687 12.432L268.399 11.64C267.847 11.64 267.331 11.388 266.851 10.884C266.371 10.356 266.107 9.624 266.059 8.688C265.963 7.2 266.443 5.988 267.499 5.052C268.579 4.092 270.163 3.612 272.251 3.612C274.411 3.612 276.127 4.236 277.399 5.484C278.671 6.708 279.511 8.604 279.919 11.172H280.675C281.395 11.172 281.755 10.788 281.755 10.02V4.692C281.755 3.804 282.019 3.108 282.547 2.604C283.075 2.1 283.747 1.848 284.563 1.848C285.355 1.848 286.015 2.1 286.543 2.604C287.095 3.108 287.371 3.804 287.371 4.692V28.956C287.371 29.844 287.095 30.54 286.543 31.044C286.015 31.548 285.355 31.8 284.563 31.8C283.747 31.8 283.075 31.548 282.547 31.044C282.019 30.54 281.755 29.844 281.755 28.956V15.06H280.207V15.24C280.207 17.976 279.895 20.208 279.271 21.936C278.647 23.64 277.771 24.9 276.643 25.716C275.515 26.508 274.195 26.904 272.683 26.904C271.555 26.904 270.451 26.628 269.371 26.076C268.291 25.524 267.391 24.672 266.671 23.52C265.975 22.368 265.603 20.892 265.555 19.092ZM271.639 18.768C272.335 18.768 272.851 18.48 273.187 17.904C273.523 17.304 273.691 16.26 273.691 14.772C273.691 13.212 273.511 12.144 273.151 11.568C272.815 10.992 272.311 10.704 271.639 10.704C270.895 10.704 270.343 10.992 269.983 11.568C269.623 12.144 269.443 13.212 269.443 14.772C269.443 16.236 269.623 17.268 269.983 17.868C270.343 18.468 270.895 18.768 271.639 18.768ZM311.242 13.224C311.242 12.024 311.566 11.1 312.214 10.452C312.862 9.804 313.666 9.48 314.626 9.48C315.034 9.48 315.394 9.516 315.706 9.588C316.018 9.66 316.294 9.756 316.534 9.876V4.8C316.534 3.816 316.846 2.988 317.47 2.316C318.094 1.644 318.958 1.308 320.062 1.308C321.118 1.308 321.946 1.656 322.546 2.352C323.146 3.024 323.446 3.864 323.446 4.872V29.136C323.446 30.048 323.134 30.816 322.51 31.44C321.886 32.064 321.07 32.376 320.062 32.376C319.03 32.376 318.178 32.064 317.506 31.44C316.858 30.816 316.534 30.048 316.534 29.136V16.536C316.03 16.824 315.394 16.968 314.626 16.968C313.666 16.968 312.862 16.632 312.214 15.96C311.566 15.288 311.242 14.376 311.242 13.224ZM310.162 26.904C308.986 26.904 308.038 26.556 307.318 25.86C306.622 25.14 306.274 24.168 306.274 22.944C306.274 22.176 306.382 21.432 306.598 20.712C306.838 19.992 307.09 19.308 307.354 18.66C307.642 18.012 307.846 17.424 307.966 16.896C308.134 16.296 307.954 15.912 307.426 15.744C307.138 15.648 306.898 15.672 306.706 15.816C306.514 15.96 306.37 16.164 306.274 16.428C305.866 17.868 305.458 19.212 305.05 20.46C304.642 21.684 304.138 22.968 303.538 24.312C303.082 25.32 302.434 25.98 301.594 26.292C300.754 26.58 299.842 26.568 298.858 26.256C297.898 25.944 297.202 25.392 296.77 24.6C296.362 23.808 296.278 22.836 296.518 21.684C296.734 20.7 297.094 19.668 297.598 18.588C298.102 17.508 298.546 16.524 298.93 15.636C299.434 14.484 299.842 13.428 300.154 12.468C300.49 11.508 300.79 10.548 301.054 9.588C301.318 8.628 301.582 7.596 301.846 6.492C302.134 5.292 302.554 4.428 303.106 3.9C303.682 3.348 304.51 3.072 305.59 3.072C306.67 3.072 307.522 3.384 308.146 4.008C308.77 4.632 309.034 5.568 308.938 6.816C308.866 8.16 308.71 9.372 308.47 10.452C308.254 11.532 308.038 12.384 307.822 13.008C307.63 13.632 307.534 13.944 307.534 13.944C308.758 14.16 309.85 14.676 310.81 15.492C311.794 16.308 312.574 17.304 313.15 18.48C313.726 19.632 314.026 20.856 314.05 22.152C314.098 23.712 313.75 24.9 313.006 25.716C312.262 26.508 311.314 26.904 310.162 26.904ZM334.634 6.78C334.634 5.7 334.934 4.92 335.534 4.44C336.134 3.96 336.83 3.72 337.622 3.72H339.638C339.686 2.856 339.998 2.232 340.574 1.848C341.174 1.464 341.966 1.272 342.95 1.272C343.862 1.272 344.594 1.464 345.146 1.848C345.722 2.232 346.046 2.856 346.118 3.72H348.53C349.322 3.72 350.006 3.96 350.582 4.44C351.182 4.92 351.482 5.7 351.482 6.78C351.482 7.812 351.182 8.604 350.582 9.156C350.006 9.684 349.322 9.948 348.53 9.948V9.984C348.602 10.008 348.818 10.176 349.178 10.488C349.538 10.776 349.886 11.196 350.222 11.748C350.558 12.276 350.726 12.948 350.726 13.764C350.726 15.468 350.102 16.8 348.854 17.76C347.606 18.72 345.71 19.2 343.166 19.2C340.766 19.2 338.87 18.756 337.478 17.868C336.086 16.98 335.39 15.792 335.39 14.304C335.39 13.56 335.534 12.936 335.822 12.432C336.11 11.928 336.446 11.532 336.83 11.244C337.238 10.932 337.586 10.728 337.874 10.632L337.622 9.948C336.83 9.948 336.134 9.696 335.534 9.192C334.934 8.664 334.634 7.86 334.634 6.78ZM355.766 19.416C354.734 19.416 353.894 19.104 353.246 18.48C352.598 17.856 352.274 17.088 352.274 16.176V4.764C352.274 3.78 352.586 2.988 353.21 2.388C353.834 1.764 354.686 1.452 355.766 1.452C356.822 1.452 357.638 1.764 358.214 2.388C358.814 3.012 359.114 3.828 359.114 4.836V9.336L359.618 9.516C359.786 8.796 360.074 8.22 360.482 7.788C360.914 7.356 361.478 7.14 362.174 7.14C362.87 7.14 363.458 7.428 363.938 8.004C364.418 8.58 364.658 9.36 364.658 10.344C364.658 11.328 364.394 12.108 363.866 12.684C363.362 13.236 362.798 13.512 362.174 13.512C361.598 13.512 361.118 13.356 360.734 13.044C360.374 12.732 360.098 12.372 359.906 11.964C359.738 11.7 359.558 11.604 359.366 11.676C359.198 11.724 359.114 11.916 359.114 12.252V16.176C359.114 17.088 358.802 17.856 358.178 18.48C357.554 19.104 356.75 19.416 355.766 19.416ZM338.846 11.316C338.846 11.796 339.062 12.144 339.494 12.36C339.95 12.552 340.706 12.648 341.762 12.648C342.962 12.648 343.79 12.552 344.246 12.36C344.702 12.168 344.93 11.82 344.93 11.316C344.93 10.836 344.702 10.5 344.246 10.308C343.79 10.092 342.962 9.984 341.762 9.984C340.706 9.984 339.95 10.092 339.494 10.308C339.062 10.5 338.846 10.836 338.846 11.316ZM337.946 28.38C337.946 27.588 338.078 26.964 338.342 26.508C338.63 26.028 338.954 25.68 339.314 25.464C339.674 25.224 339.95 25.092 340.142 25.068V25.032C339.494 25.032 338.966 24.792 338.558 24.312C338.15 23.832 337.946 23.22 337.946 22.476C337.946 21.78 338.162 21.204 338.594 20.748C339.026 20.268 339.65 20.028 340.466 20.028H354.866C357.602 20.028 358.97 21.396 358.97 24.132V28.38C358.97 31.044 357.602 32.376 354.866 32.376H343.706C339.866 32.376 337.946 31.044 337.946 28.38ZM341.474 25.608C341.474 25.848 341.534 26.016 341.654 26.112C341.798 26.184 342.05 26.22 342.41 26.22H352.202C352.562 26.22 352.802 26.184 352.922 26.112C353.042 26.016 353.102 25.848 353.102 25.608C353.102 25.368 353.042 25.212 352.922 25.14C352.802 25.068 352.562 25.032 352.202 25.032H342.41C342.05 25.032 341.798 25.068 341.654 25.14C341.534 25.212 341.474 25.368 341.474 25.608ZM388.746 4.224C388.746 3.264 389.01 2.544 389.538 2.064C390.09 1.56 390.774 1.308 391.59 1.308C392.43 1.308 393.126 1.56 393.678 2.064C394.23 2.544 394.506 3.264 394.506 4.224V29.424C394.506 30.384 394.23 31.116 393.678 31.62C393.126 32.124 392.43 32.376 391.59 32.376C390.774 32.376 390.09 32.124 389.538 31.62C389.01 31.116 388.746 30.384 388.746 29.424V4.224ZM385.038 31.728C384.27 31.728 383.622 31.476 383.094 30.972C382.566 30.492 382.302 29.808 382.302 28.92V14.448H380.646V22.116C380.646 23.772 380.442 25.056 380.034 25.968C379.65 26.856 379.146 27.456 378.522 27.768C377.922 28.056 377.274 28.14 376.578 28.02C375.618 27.852 374.874 27.36 374.346 26.544C373.818 25.728 373.698 24.636 373.986 23.268C374.178 22.452 374.478 21.672 374.886 20.928C375.294 20.16 375.714 19.368 376.146 18.552C376.602 17.712 376.986 16.764 377.298 15.708C377.61 14.652 377.766 13.428 377.766 12.036C377.766 11.604 377.634 11.304 377.37 11.136C377.13 10.944 376.806 10.848 376.398 10.848H374.886C374.862 13.032 374.706 15.108 374.418 17.076C374.154 19.044 373.77 20.784 373.266 22.296C372.786 23.808 372.186 24.996 371.466 25.86C370.698 26.748 369.822 27.216 368.838 27.264C367.854 27.288 367.014 26.964 366.318 26.292C365.814 25.788 365.502 25.152 365.382 24.384C365.262 23.616 365.382 22.812 365.742 21.972C366.102 21.132 366.738 20.4 367.65 19.776C368.61 19.104 369.402 18.444 370.026 17.796C370.674 17.124 371.154 16.344 371.466 15.456C371.778 14.568 371.934 13.476 371.934 12.18C371.934 11.748 371.814 11.448 371.574 11.28C371.334 11.088 371.022 10.992 370.638 10.992H369.09C368.13 10.992 367.374 10.668 366.822 10.02C366.27 9.348 365.994 8.496 365.994 7.464C365.994 6.456 366.27 5.616 366.822 4.944C367.374 4.272 368.13 3.936 369.09 3.936H370.746C371.25 3.936 371.694 4.032 372.078 4.224C372.486 4.392 372.822 4.62 373.086 4.908C373.614 4.26 374.37 3.936 375.354 3.936H377.262C378.462 3.936 379.326 4.308 379.854 5.052C380.382 5.772 380.646 6.732 380.646 7.932V10.56H381.222C381.942 10.56 382.302 10.176 382.302 9.408V4.62C382.302 3.756 382.566 3.084 383.094 2.604C383.622 2.1 384.27 1.848 385.038 1.848C385.806 1.848 386.454 2.1 386.982 2.604C387.534 3.084 387.81 3.756 387.81 4.62V28.92C387.81 29.808 387.534 30.492 386.982 30.972C386.454 31.476 385.806 31.728 385.038 31.728ZM414.453 4.8C414.453 3.816 414.765 2.988 415.389 2.316C416.037 1.644 416.913 1.308 418.017 1.308C419.073 1.308 419.901 1.656 420.501 2.352C421.125 3.024 421.437 3.864 421.437 4.872V13.584L422.013 13.764C422.205 12.972 422.541 12.348 423.021 11.892C423.501 11.412 424.113 11.172 424.857 11.172C425.697 11.172 426.381 11.496 426.909 12.144C427.461 12.768 427.737 13.608 427.737 14.664C427.737 15.768 427.437 16.632 426.837 17.256C426.261 17.856 425.601 18.156 424.857 18.156C424.233 18.156 423.717 17.988 423.309 17.652C422.901 17.316 422.565 16.92 422.301 16.464C422.133 16.176 421.941 16.08 421.725 16.176C421.533 16.248 421.437 16.452 421.437 16.788V29.136C421.437 30.048 421.113 30.816 420.465 31.44C419.841 32.064 419.025 32.376 418.017 32.376C416.985 32.376 416.133 32.064 415.461 31.44C414.789 30.816 414.453 30.048 414.453 29.136V4.8ZM405.273 27.336C403.713 27.336 402.345 27.012 401.169 26.364C400.017 25.716 399.117 24.804 398.469 23.628C397.821 22.452 397.497 21.072 397.497 19.488C397.497 18.288 397.665 17.22 398.001 16.284C398.337 15.348 398.757 14.568 399.261 13.944C399.765 13.32 400.245 12.9 400.701 12.684L400.377 11.892H399.981C399.021 11.892 398.253 11.628 397.677 11.1C397.125 10.548 396.849 9.672 396.849 8.472C396.849 7.272 397.125 6.408 397.677 5.88C398.253 5.328 399.021 5.052 399.981 5.052H401.493V4.656C401.493 3.672 401.793 2.916 402.393 2.388C403.017 1.86 403.881 1.596 404.985 1.596C406.113 1.596 406.977 1.872 407.577 2.424C408.201 2.952 408.513 3.72 408.513 4.728V5.052H410.313C411.369 5.052 412.185 5.328 412.761 5.88C413.361 6.408 413.661 7.272 413.661 8.472C413.661 9.648 413.361 10.512 412.761 11.064C412.185 11.616 411.369 11.892 410.313 11.892H410.097V11.928C410.361 12.12 410.709 12.48 411.141 13.008C411.573 13.512 411.957 14.232 412.293 15.168C412.629 16.104 412.797 17.34 412.797 18.876C412.797 21.492 412.149 23.556 410.853 25.068C409.557 26.58 407.697 27.336 405.273 27.336ZM401.421 15.564C401.421 17.052 401.613 18.072 401.997 18.624C402.381 19.176 402.981 19.452 403.797 19.452C404.637 19.452 405.225 19.188 405.561 18.66C405.921 18.108 406.101 17.076 406.101 15.564C406.101 14.22 405.909 13.284 405.525 12.756C405.141 12.204 404.553 11.928 403.761 11.928C402.945 11.928 402.345 12.192 401.961 12.72C401.601 13.248 401.421 14.196 401.421 15.564ZM454.057 32.376C453.193 32.376 452.473 32.112 451.897 31.584C451.345 31.08 451.069 30.336 451.069 29.352V16.464H449.953V29.352C449.953 30.24 449.677 30.936 449.125 31.44C448.597 31.944 447.925 32.196 447.109 32.196C446.293 32.196 445.609 31.944 445.057 31.44C444.529 30.936 444.265 30.24 444.265 29.352V4.404C444.265 3.492 444.529 2.796 445.057 2.316C445.609 1.812 446.293 1.56 447.109 1.56C447.925 1.56 448.597 1.812 449.125 2.316C449.677 2.796 449.953 3.492 449.953 4.404V12.972H450.421C450.637 12.972 450.793 12.948 450.889 12.9C451.009 12.852 451.069 12.672 451.069 12.36V4.296C451.069 3.312 451.345 2.568 451.897 2.064C452.473 1.56 453.193 1.308 454.057 1.308C454.945 1.308 455.665 1.56 456.217 2.064C456.769 2.568 457.045 3.312 457.045 4.296V29.352C457.045 30.336 456.769 31.08 456.217 31.584C455.665 32.112 454.945 32.376 454.057 32.376ZM429.613 7.644C429.613 6.612 429.889 5.748 430.441 5.052C431.017 4.356 431.929 4.008 433.177 4.008H438.433C439.897 4.008 440.965 4.404 441.637 5.196C442.309 5.988 442.645 7.104 442.645 8.544C442.645 11.568 442.489 14.328 442.177 16.824C441.865 19.296 441.289 21.42 440.449 23.196C439.609 24.948 438.397 26.256 436.813 27.12C435.877 27.624 434.941 27.912 434.005 27.984C433.093 28.032 432.265 27.84 431.521 27.408C430.801 26.976 430.261 26.304 429.901 25.392C429.301 23.928 429.349 22.62 430.045 21.468C430.741 20.292 431.881 19.452 433.465 18.948C434.521 18.612 435.517 18.168 436.453 17.616C437.413 17.064 438.181 16.392 438.757 15.6C439.357 14.784 439.657 13.836 439.657 12.756C439.657 12.348 439.525 12.024 439.261 11.784C439.021 11.544 438.709 11.424 438.325 11.424L433.177 11.388C431.929 11.388 431.017 11.028 430.441 10.308C429.889 9.564 429.613 8.676 429.613 7.644Z" fill="#DDAC7E"/>
</svg>
