<svg width="351" height="52" viewBox="0 0 351 52" fill="none" xmlns="http://www.w3.org/2000/svg">
<path d="M22.6004 34.872C21.5684 34.872 20.7044 34.56 20.0084 33.936C19.3364 33.312 19.0004 32.544 19.0004 31.632V16.764C19.0004 15.78 19.3244 14.988 19.9724 14.388C20.6204 13.764 21.4964 13.452 22.6004 13.452C23.6804 13.452 24.5324 13.764 25.1564 14.388C25.7804 15.012 26.0924 15.828 26.0924 16.836V22.452L26.5964 22.668C26.7644 21.924 27.0524 21.348 27.4604 20.94C27.8924 20.508 28.4684 20.292 29.1884 20.292C29.9324 20.292 30.5444 20.58 31.0244 21.156C31.5284 21.708 31.7804 22.476 31.7804 23.46C31.7804 24.468 31.5164 25.248 30.9884 25.8C30.4604 26.352 29.8604 26.628 29.1884 26.628C28.6124 26.628 28.1324 26.484 27.7484 26.196C27.3644 25.884 27.0644 25.512 26.8484 25.08C26.7044 24.816 26.5364 24.72 26.3444 24.792C26.1764 24.84 26.0924 25.032 26.0924 25.368V31.632C26.0924 32.544 25.7684 33.312 25.1204 33.936C24.4724 34.56 23.6324 34.872 22.6004 34.872ZM1.03641 26.88C0.916406 25.872 0.988406 25.032 1.25241 24.36C1.54041 23.664 1.90041 23.124 2.33241 22.74C2.78841 22.356 3.22041 22.116 3.62841 22.02L3.30441 21.192C2.84841 21.144 2.35641 20.892 1.82841 20.436C1.32441 19.956 1.07241 19.2 1.07241 18.168C1.07241 16.896 1.68441 15.876 2.90841 15.108C4.15641 14.34 6.05241 13.956 8.59641 13.956C10.3484 13.956 11.8844 14.256 13.2044 14.856C14.5244 15.456 15.5564 16.416 16.3004 17.736C17.0684 19.032 17.4524 20.748 17.4524 22.884C17.4524 26.076 16.6844 28.404 15.1484 29.868C13.6124 31.332 11.4644 32.064 8.70441 32.064C7.38441 32.064 6.16041 31.884 5.03241 31.524C3.92841 31.164 3.01641 30.6 2.29641 29.832C1.60041 29.064 1.18041 28.08 1.03641 26.88ZM4.34841 22.704C4.34841 23.28 4.60041 23.7 5.10441 23.964C5.63241 24.204 6.59241 24.324 7.98441 24.324C9.42441 24.324 10.4204 24.204 10.9724 23.964C11.5244 23.724 11.8004 23.304 11.8004 22.704C11.8004 22.152 11.5244 21.744 10.9724 21.48C10.4204 21.216 9.42441 21.084 7.98441 21.084C6.59241 21.084 5.63241 21.216 5.10441 21.48C4.60041 21.72 4.34841 22.128 4.34841 22.704ZM3.41241 38.508C3.38841 38.1 3.37641 37.788 3.37641 37.572C3.40041 37.332 3.42441 36.888 3.44841 36.24C3.61641 34.08 4.75641 33 6.86841 33C7.92441 33 8.72841 33.24 9.28041 33.72C9.85641 34.2 10.1444 34.836 10.1444 35.628C10.1444 36.012 10.2404 36.336 10.4324 36.6C10.6244 36.84 11.1284 36.96 11.9444 36.96H22.6364C23.8124 36.96 24.7244 37.272 25.3724 37.896C26.0204 38.496 26.3444 39.42 26.3444 40.668C26.3444 41.844 26.0204 42.756 25.3724 43.404C24.7244 44.052 23.8124 44.376 22.6364 44.376H10.1444C8.68041 44.376 7.45641 44.196 6.47241 43.836C5.48841 43.5 4.74441 42.9 4.24041 42.036C3.73641 41.196 3.46041 40.02 3.41241 38.508ZM55.9398 34.872C54.9078 34.872 54.0438 34.56 53.3478 33.936C52.6758 33.312 52.3398 32.544 52.3398 31.632V27.456C51.9798 27.6 51.5478 27.672 51.0438 27.672C50.4678 27.672 49.9518 27.504 49.4958 27.168C49.6158 27.6 49.6758 28.056 49.6758 28.536C49.6758 29.976 49.3638 31.056 48.7398 31.776C48.1158 32.472 47.2398 32.82 46.1118 32.82C45.1038 32.82 44.2878 32.484 43.6638 31.812C43.0398 31.14 42.7278 30.288 42.7278 29.256C42.7278 28.512 42.7998 27.924 42.9438 27.492C43.1118 27.036 43.1958 26.616 43.1958 26.232C43.1958 26.016 43.1478 25.824 43.0518 25.656C42.9558 25.464 42.7998 25.356 42.5838 25.332C42.3438 25.308 42.1398 25.368 41.9718 25.512C41.8038 25.656 41.6598 25.848 41.5398 26.088C40.8678 27.36 40.3158 28.488 39.8838 29.472C39.4518 30.432 38.9718 31.188 38.4438 31.74C37.9158 32.268 37.1598 32.532 36.1758 32.532C35.1918 32.532 34.3278 32.208 33.5838 31.56C32.8638 30.912 32.5038 30.06 32.5038 29.004C32.5038 28.236 32.6838 27.528 33.0438 26.88C33.4278 26.208 33.8838 25.5 34.4118 24.756C34.9158 24.06 35.3598 23.412 35.7438 22.812C36.1518 22.212 36.5238 21.588 36.8598 20.94H36.2478C35.1918 20.94 34.3278 20.676 33.6558 20.148C33.0078 19.62 32.6838 18.768 32.6838 17.592C32.6838 16.416 33.0078 15.564 33.6558 15.036C34.3278 14.508 35.1918 14.244 36.2478 14.244H46.0758C47.1318 14.244 47.9838 14.508 48.6318 15.036C49.2798 15.564 49.6038 16.416 49.6038 17.592C49.6038 18.768 49.2798 19.62 48.6318 20.148C47.9838 20.676 47.1318 20.94 46.0758 20.94H43.5558L42.8718 23.352C43.9278 23.256 44.9238 23.352 45.8598 23.64C46.7958 23.904 47.5758 24.348 48.1998 24.972C48.1278 24.636 48.0918 24.312 48.0918 24C48.0918 23.016 48.3678 22.176 48.9198 21.48C49.4718 20.784 50.1678 20.436 51.0078 20.436C51.2718 20.436 51.5118 20.448 51.7278 20.472C51.9678 20.496 52.1718 20.544 52.3398 20.616V16.764C52.3398 15.78 52.6638 14.988 53.3118 14.388C53.9598 13.764 54.8358 13.452 55.9398 13.452C57.0198 13.452 57.8598 13.764 58.4598 14.388C59.0838 15.012 59.3958 15.828 59.3958 16.836V31.632C59.3958 32.544 59.0718 33.312 58.4238 33.936C57.7998 34.56 56.9718 34.872 55.9398 34.872ZM36.2118 38.508C36.1878 38.1 36.1758 37.74 36.1758 37.428C36.1998 37.092 36.2358 36.6 36.2838 35.952C36.3558 34.824 36.6798 34.008 37.2558 33.504C37.8318 33 38.6358 32.748 39.6678 32.748C41.8518 32.748 42.9438 33.708 42.9438 35.628C42.9438 36.012 43.0398 36.336 43.2318 36.6C43.4478 36.864 43.9638 36.996 44.7798 36.996H55.6518C56.8278 36.996 57.7398 37.296 58.3878 37.896C59.0358 38.496 59.3598 39.42 59.3598 40.668C59.3598 41.844 59.0358 42.756 58.3878 43.404C57.7398 44.052 56.8278 44.376 55.6518 44.376H42.9438C41.5038 44.376 40.2918 44.196 39.3078 43.836C38.3238 43.5 37.5678 42.9 37.0398 42.036C36.5358 41.196 36.2598 40.02 36.2118 38.508ZM81.2872 16.8C81.2872 15.816 81.5992 14.988 82.2232 14.316C82.8712 13.644 83.7472 13.308 84.8512 13.308C85.9072 13.308 86.7352 13.656 87.3352 14.352C87.9592 15.024 88.2712 15.864 88.2712 16.872V25.584L88.8472 25.764C89.0392 24.972 89.3752 24.348 89.8552 23.892C90.3352 23.412 90.9472 23.172 91.6912 23.172C92.5312 23.172 93.2152 23.496 93.7432 24.144C94.2952 24.768 94.5712 25.608 94.5712 26.664C94.5712 27.768 94.2712 28.632 93.6712 29.256C93.0952 29.856 92.4352 30.156 91.6912 30.156C91.0672 30.156 90.5512 29.988 90.1432 29.652C89.7352 29.316 89.3992 28.92 89.1352 28.464C88.9672 28.176 88.7752 28.08 88.5592 28.176C88.3672 28.248 88.2712 28.452 88.2712 28.788V41.136C88.2712 42.048 87.9472 42.816 87.2992 43.44C86.6752 44.064 85.8592 44.376 84.8512 44.376C83.8192 44.376 82.9672 44.064 82.2952 43.44C81.6232 42.816 81.2872 42.048 81.2872 41.136V16.8ZM72.1072 39.336C70.5472 39.336 69.1792 39.012 68.0032 38.364C66.8512 37.716 65.9512 36.804 65.3032 35.628C64.6552 34.452 64.3312 33.072 64.3312 31.488C64.3312 30.288 64.4992 29.22 64.8352 28.284C65.1712 27.348 65.5912 26.568 66.0952 25.944C66.5992 25.32 67.0792 24.9 67.5352 24.684L67.2112 23.892H66.8152C65.8552 23.892 65.0872 23.628 64.5112 23.1C63.9592 22.548 63.6832 21.672 63.6832 20.472C63.6832 19.272 63.9592 18.408 64.5112 17.88C65.0872 17.328 65.8552 17.052 66.8152 17.052H68.3272V16.656C68.3272 15.672 68.6272 14.916 69.2272 14.388C69.8512 13.86 70.7152 13.596 71.8192 13.596C72.9472 13.596 73.8112 13.872 74.4112 14.424C75.0352 14.952 75.3472 15.72 75.3472 16.728V17.052H77.1472C78.2032 17.052 79.0192 17.328 79.5952 17.88C80.1952 18.408 80.4952 19.272 80.4952 20.472C80.4952 21.648 80.1952 22.512 79.5952 23.064C79.0192 23.616 78.2032 23.892 77.1472 23.892H76.9312V23.928C77.1952 24.12 77.5432 24.48 77.9752 25.008C78.4072 25.512 78.7912 26.232 79.1272 27.168C79.4632 28.104 79.6312 29.34 79.6312 30.876C79.6312 33.492 78.9832 35.556 77.6872 37.068C76.3912 38.58 74.5312 39.336 72.1072 39.336ZM68.2552 27.564C68.2552 29.052 68.4472 30.072 68.8312 30.624C69.2152 31.176 69.8152 31.452 70.6312 31.452C71.4712 31.452 72.0592 31.188 72.3952 30.66C72.7552 30.108 72.9352 29.076 72.9352 27.564C72.9352 26.22 72.7432 25.284 72.3592 24.756C71.9752 24.204 71.3872 23.928 70.5952 23.928C69.7792 23.928 69.1792 24.192 68.7952 24.72C68.4352 25.248 68.2552 26.196 68.2552 27.564ZM120.891 44.376C120.027 44.376 119.307 44.112 118.731 43.584C118.179 43.08 117.903 42.336 117.903 41.352V28.464H116.787V41.352C116.787 42.24 116.511 42.936 115.959 43.44C115.431 43.944 114.759 44.196 113.943 44.196C113.127 44.196 112.443 43.944 111.891 43.44C111.363 42.936 111.099 42.24 111.099 41.352V16.404C111.099 15.492 111.363 14.796 111.891 14.316C112.443 13.812 113.127 13.56 113.943 13.56C114.759 13.56 115.431 13.812 115.959 14.316C116.511 14.796 116.787 15.492 116.787 16.404V24.972H117.255C117.471 24.972 117.627 24.948 117.723 24.9C117.843 24.852 117.903 24.672 117.903 24.36V16.296C117.903 15.312 118.179 14.568 118.731 14.064C119.307 13.56 120.027 13.308 120.891 13.308C121.779 13.308 122.499 13.56 123.051 14.064C123.603 14.568 123.879 15.312 123.879 16.296V41.352C123.879 42.336 123.603 43.08 123.051 43.584C122.499 44.112 121.779 44.376 120.891 44.376ZM96.4465 19.644C96.4465 18.612 96.7225 17.748 97.2745 17.052C97.8505 16.356 98.7625 16.008 100.011 16.008H105.267C106.731 16.008 107.799 16.404 108.471 17.196C109.143 17.988 109.479 19.104 109.479 20.544C109.479 23.568 109.323 26.328 109.011 28.824C108.699 31.296 108.123 33.42 107.283 35.196C106.443 36.948 105.231 38.256 103.647 39.12C102.711 39.624 101.775 39.912 100.839 39.984C99.9265 40.032 99.0985 39.84 98.3545 39.408C97.6345 38.976 97.0945 38.304 96.7345 37.392C96.1345 35.928 96.1825 34.62 96.8785 33.468C97.5745 32.292 98.7145 31.452 100.299 30.948C101.355 30.612 102.351 30.168 103.287 29.616C104.247 29.064 105.015 28.392 105.591 27.6C106.191 26.784 106.491 25.836 106.491 24.756C106.491 24.348 106.359 24.024 106.095 23.784C105.855 23.544 105.543 23.424 105.159 23.424L100.011 23.388C98.7625 23.388 97.8505 23.028 97.2745 22.308C96.7225 21.564 96.4465 20.676 96.4465 19.644ZM148.408 25.224C148.408 24.024 148.732 23.1 149.38 22.452C150.028 21.804 150.832 21.48 151.792 21.48C152.2 21.48 152.56 21.516 152.872 21.588C153.184 21.66 153.46 21.756 153.7 21.876V16.8C153.7 15.816 154.012 14.988 154.636 14.316C155.26 13.644 156.124 13.308 157.228 13.308C158.284 13.308 159.112 13.656 159.712 14.352C160.312 15.024 160.612 15.864 160.612 16.872V41.136C160.612 42.048 160.3 42.816 159.676 43.44C159.052 44.064 158.236 44.376 157.228 44.376C156.196 44.376 155.344 44.064 154.672 43.44C154.024 42.816 153.7 42.048 153.7 41.136V28.536C153.196 28.824 152.56 28.968 151.792 28.968C150.832 28.968 150.028 28.632 149.38 27.96C148.732 27.288 148.408 26.376 148.408 25.224ZM147.328 38.904C146.152 38.904 145.204 38.556 144.484 37.86C143.788 37.14 143.44 36.168 143.44 34.944C143.44 34.176 143.548 33.432 143.764 32.712C144.004 31.992 144.256 31.308 144.52 30.66C144.808 30.012 145.012 29.424 145.132 28.896C145.3 28.296 145.12 27.912 144.592 27.744C144.304 27.648 144.064 27.672 143.872 27.816C143.68 27.96 143.536 28.164 143.44 28.428C143.032 29.868 142.624 31.212 142.216 32.46C141.808 33.684 141.304 34.968 140.704 36.312C140.248 37.32 139.6 37.98 138.76 38.292C137.92 38.58 137.008 38.568 136.024 38.256C135.064 37.944 134.368 37.392 133.936 36.6C133.528 35.808 133.444 34.836 133.684 33.684C133.9 32.7 134.26 31.668 134.764 30.588C135.268 29.508 135.712 28.524 136.096 27.636C136.6 26.484 137.008 25.428 137.32 24.468C137.656 23.508 137.956 22.548 138.22 21.588C138.484 20.628 138.748 19.596 139.012 18.492C139.3 17.292 139.72 16.428 140.272 15.9C140.848 15.348 141.676 15.072 142.756 15.072C143.836 15.072 144.688 15.384 145.312 16.008C145.936 16.632 146.2 17.568 146.104 18.816C146.032 20.16 145.876 21.372 145.636 22.452C145.42 23.532 145.204 24.384 144.988 25.008C144.796 25.632 144.7 25.944 144.7 25.944C145.924 26.16 147.016 26.676 147.976 27.492C148.96 28.308 149.74 29.304 150.316 30.48C150.892 31.632 151.192 32.856 151.216 34.152C151.264 35.712 150.916 36.9 150.172 37.716C149.428 38.508 148.48 38.904 147.328 38.904ZM174.656 33.504C173.72 33.504 172.748 33.444 171.74 33.324C170.756 33.18 169.904 32.868 169.184 32.388C168.464 31.884 168.02 31.104 167.852 30.048C167.732 29.256 167.768 28.596 167.96 28.068C168.152 27.516 168.404 27.096 168.716 26.808C169.028 26.496 169.28 26.292 169.472 26.196L169.148 25.584C168.308 25.584 167.888 25.032 167.888 23.928C167.888 23.448 168.02 23.076 168.284 22.812C168.572 22.524 168.944 22.38 169.4 22.38H184.988C185.204 22.38 185.36 22.356 185.456 22.308C185.552 22.236 185.6 22.092 185.6 21.876C185.6 21.684 185.552 21.564 185.456 21.516C185.384 21.444 185.228 21.408 184.988 21.408H171.416C170.312 21.408 169.496 21.108 168.968 20.508C168.44 19.908 168.176 19.212 168.176 18.42C168.176 17.604 168.44 16.92 168.968 16.368C169.496 15.792 170.312 15.504 171.416 15.504H185.636C186.836 15.504 187.772 15.636 188.444 15.9C189.116 16.14 189.584 16.572 189.848 17.196C190.136 17.82 190.28 18.684 190.28 19.788V21.732C190.28 23.124 189.98 24.144 189.38 24.792C188.78 25.416 187.76 25.728 186.32 25.728H172.28C171.824 25.728 171.68 25.908 171.848 26.268C171.968 26.484 172.148 26.628 172.388 26.7C172.652 26.748 173.228 26.772 174.116 26.772H187.364C188.756 26.772 189.716 27.096 190.244 27.744C190.796 28.368 191.072 29.148 191.072 30.084C191.072 30.972 190.796 31.764 190.244 32.46C189.716 33.156 188.756 33.504 187.364 33.504H181.424V33.9C181.424 34.692 181.892 35.088 182.828 35.088H191.252C192.356 35.088 193.172 35.4 193.7 36.024C194.228 36.624 194.492 37.44 194.492 38.472C194.492 39.504 194.228 40.332 193.7 40.956C193.172 41.58 192.356 41.892 191.252 41.892H168.284C167.228 41.892 166.412 41.58 165.836 40.956C165.284 40.332 165.008 39.504 165.008 38.472C165.008 37.44 165.284 36.624 165.836 36.024C166.412 35.4 167.252 35.088 168.356 35.088H177.32V33.504H174.656ZM220.692 16.764C220.692 15.78 221.016 14.988 221.664 14.388C222.312 13.764 223.188 13.452 224.292 13.452C225.372 13.452 226.224 13.764 226.848 14.388C227.472 15.012 227.784 15.828 227.784 16.836V22.452L228.288 22.668C228.456 21.924 228.744 21.348 229.152 20.94C229.584 20.508 230.16 20.292 230.88 20.292C231.624 20.292 232.236 20.58 232.716 21.156C233.22 21.708 233.472 22.476 233.472 23.46C233.472 24.468 233.208 25.248 232.68 25.8C232.152 26.352 231.552 26.628 230.88 26.628C230.304 26.628 229.824 26.484 229.44 26.196C229.056 25.884 228.756 25.512 228.54 25.08C228.396 24.816 228.228 24.72 228.036 24.792C227.868 24.84 227.784 25.032 227.784 25.368V31.632C227.784 32.544 227.46 33.312 226.812 33.936C226.164 34.56 225.324 34.872 224.292 34.872C223.26 34.872 222.396 34.56 221.7 33.936C221.028 33.312 220.692 32.544 220.692 31.632V16.764ZM209.064 31.776C206.808 31.776 205.14 31.236 204.06 30.156C203.004 29.052 202.476 27.72 202.476 26.16C202.476 25.032 202.692 24.072 203.124 23.28C203.556 22.488 204.108 21.996 204.78 21.804L204.456 20.976C203.856 20.976 203.34 20.676 202.908 20.076C202.476 19.452 202.26 18.672 202.26 17.736C202.26 16.776 202.524 15.972 203.052 15.324C203.58 14.652 204.36 14.316 205.392 14.316H215.04C216.192 14.316 217.104 14.7 217.776 15.468C218.448 16.212 218.784 17.22 218.784 18.492V27.024C218.784 28.488 218.376 29.652 217.56 30.516C216.768 31.356 215.64 31.776 214.176 31.776H209.064ZM205.968 22.776C206.088 23.232 206.268 23.532 206.508 23.676C206.748 23.82 207.096 23.892 207.552 23.892H212.304C212.736 23.892 213.024 23.82 213.168 23.676C213.336 23.532 213.42 23.28 213.42 22.92V22.128C213.42 21.792 213.336 21.552 213.168 21.408C213.024 21.24 212.736 21.156 212.304 21.156H206.832C206.448 21.156 206.148 21.252 205.932 21.444C205.716 21.612 205.656 21.852 205.752 22.164L205.968 22.776ZM205.104 38.508C205.08 38.1 205.068 37.788 205.068 37.572C205.092 37.332 205.116 36.888 205.14 36.24C205.308 34.08 206.448 33 208.56 33C209.616 33 210.42 33.24 210.972 33.72C211.548 34.2 211.836 34.836 211.836 35.628C211.836 36.012 211.932 36.336 212.124 36.6C212.316 36.84 212.82 36.96 213.636 36.96H224.328C225.504 36.96 226.416 37.272 227.064 37.896C227.712 38.496 228.036 39.42 228.036 40.668C228.036 41.844 227.712 42.756 227.064 43.404C226.416 44.052 225.504 44.376 224.328 44.376H211.836C210.372 44.376 209.148 44.196 208.164 43.836C207.18 43.5 206.436 42.9 205.932 42.036C205.428 41.196 205.152 40.02 205.104 38.508ZM251.403 16.8C251.403 15.816 251.727 14.988 252.375 14.316C253.023 13.644 253.899 13.308 255.003 13.308C256.083 13.308 256.935 13.656 257.559 14.352C258.183 15.024 258.495 15.864 258.495 16.872V25.584L259.071 25.764C259.263 24.972 259.599 24.348 260.079 23.892C260.559 23.412 261.171 23.172 261.915 23.172C262.755 23.172 263.451 23.496 264.003 24.144C264.555 24.768 264.831 25.608 264.831 26.664C264.831 27.768 264.531 28.632 263.931 29.256C263.331 29.856 262.659 30.156 261.915 30.156C261.291 30.156 260.763 29.988 260.331 29.652C259.923 29.316 259.599 28.92 259.359 28.464C259.191 28.176 258.999 28.08 258.783 28.176C258.591 28.248 258.495 28.452 258.495 28.788V41.136C258.495 42.048 258.171 42.816 257.523 43.44C256.875 44.064 256.035 44.376 255.003 44.376C253.971 44.376 253.107 44.064 252.411 43.44C251.739 42.816 251.403 42.048 251.403 41.136V16.8ZM242.475 39.66C240.123 39.66 238.239 39.084 236.823 37.932C235.431 36.78 234.615 34.98 234.375 32.532C234.207 30.708 234.111 28.932 234.087 27.204C234.063 25.452 234.111 23.844 234.231 22.38C234.351 20.916 234.531 19.692 234.771 18.708C235.371 16.356 236.775 15.18 238.983 15.18C240.207 15.18 241.155 15.576 241.827 16.368C242.499 17.136 242.835 18.012 242.835 18.996C242.835 20.772 241.983 22.224 240.279 23.352C239.583 23.808 238.935 24.336 238.335 24.936C237.735 25.536 237.435 26.364 237.435 27.42C237.435 28.332 237.735 29.076 238.335 29.652C238.935 30.228 239.787 30.516 240.891 30.516H245.823C247.359 30.516 248.511 30.924 249.279 31.74C250.071 32.532 250.467 33.66 250.467 35.124C250.467 38.148 248.931 39.66 245.859 39.66H242.475ZM291.223 44.376C290.359 44.376 289.639 44.112 289.063 43.584C288.511 43.08 288.235 42.336 288.235 41.352V28.464H287.119V41.352C287.119 42.24 286.843 42.936 286.291 43.44C285.763 43.944 285.091 44.196 284.275 44.196C283.459 44.196 282.775 43.944 282.223 43.44C281.695 42.936 281.431 42.24 281.431 41.352V16.404C281.431 15.492 281.695 14.796 282.223 14.316C282.775 13.812 283.459 13.56 284.275 13.56C285.091 13.56 285.763 13.812 286.291 14.316C286.843 14.796 287.119 15.492 287.119 16.404V24.972H287.587C287.803 24.972 287.959 24.948 288.055 24.9C288.175 24.852 288.235 24.672 288.235 24.36V16.296C288.235 15.312 288.511 14.568 289.063 14.064C289.639 13.56 290.359 13.308 291.223 13.308C292.111 13.308 292.831 13.56 293.383 14.064C293.935 14.568 294.211 15.312 294.211 16.296V41.352C294.211 42.336 293.935 43.08 293.383 43.584C292.831 44.112 292.111 44.376 291.223 44.376ZM266.779 19.644C266.779 18.612 267.055 17.748 267.607 17.052C268.183 16.356 269.095 16.008 270.343 16.008H275.599C277.063 16.008 278.131 16.404 278.803 17.196C279.475 17.988 279.811 19.104 279.811 20.544C279.811 23.568 279.655 26.328 279.343 28.824C279.031 31.296 278.455 33.42 277.615 35.196C276.775 36.948 275.563 38.256 273.979 39.12C273.043 39.624 272.107 39.912 271.171 39.984C270.259 40.032 269.431 39.84 268.687 39.408C267.967 38.976 267.427 38.304 267.067 37.392C266.467 35.928 266.515 34.62 267.211 33.468C267.907 32.292 269.047 31.452 270.631 30.948C271.687 30.612 272.683 30.168 273.619 29.616C274.579 29.064 275.347 28.392 275.923 27.6C276.523 26.784 276.823 25.836 276.823 24.756C276.823 24.348 276.691 24.024 276.427 23.784C276.187 23.544 275.875 23.424 275.491 23.424L270.343 23.388C269.095 23.388 268.183 23.028 267.607 22.308C267.055 21.564 266.779 20.676 266.779 19.644Z" fill="#DDAC7E"/>
<g clip-path="url(#clip0_766_520)">
<path d="M346.532 13.3759C345.952 13.3759 345.433 13.0552 345.174 12.5377C344.276 10.7415 342.471 9.62585 340.462 9.62585H337.871V5.4446C337.871 4.4621 336.892 3.7496 335.968 4.08335C333.799 4.86335 332.246 6.93898 332.246 9.37836V12.7534L330.439 17.7615C330.382 17.919 330.296 18.0577 330.204 18.189L310.839 4.3571C309.997 3.75523 308.826 3.94835 308.224 4.79398C307.622 5.63585 307.817 6.80773 308.661 7.4096L324.891 19.0027L319.119 19.0065C317.081 19.0065 315.206 19.6815 313.667 20.7915C312.579 20.3021 309.748 18.7009 309.748 15.2509C309.748 14.2159 308.908 13.3759 307.873 13.3759C306.838 13.3759 305.998 14.214 305.998 15.2509C305.998 19.914 309.022 22.464 311.072 23.6602C310.252 25.0534 309.748 26.6546 309.75 28.3834L309.754 43.3871C309.754 46.4865 312.277 49.0084 315.377 49.0084C318.476 49.0084 321 46.4865 321 43.3852V39.6315L330.375 39.6259V43.3777C330.375 46.4771 332.897 49.0009 336.009 49.0009C339.122 49.0009 341.632 46.479 341.632 43.3777V38.1915C341.632 37.4077 341.715 36.6221 341.878 35.8534L343.869 26.4896C347.835 26.2984 351.002 23.0115 351.002 18.999V18.0615C351.002 14.6227 348.332 13.374 346.536 13.374L346.532 13.3759ZM319.121 35.8834C318.086 35.8834 317.246 36.7234 317.246 37.7584V43.3852C317.246 44.4184 316.406 45.2584 315.373 45.2584C314.34 45.2584 313.5 44.4184 313.5 43.3852L313.496 28.3815C313.496 25.2802 316.018 22.7565 319.117 22.7546L326.621 22.7509V35.8777L319.117 35.8834H319.121ZM337.879 38.1915V43.3777C337.879 44.4109 337.039 45.2509 335.994 45.2509C334.961 45.2509 334.121 44.4109 334.121 43.3777V37.7509C334.121 37.254 333.924 36.7759 333.572 36.4234C333.219 36.0727 332.743 35.8759 332.246 35.8759H330.373V23.0209L339.686 28.1002L338.203 35.0752C337.986 36.099 337.875 37.1471 337.875 38.1934L337.879 38.1915ZM347.248 19.0009C347.248 21.069 345.566 22.7509 343.498 22.7509C342.319 22.7509 341.257 23.3921 340.672 24.3652L333.279 20.3321C333.557 19.9346 333.797 19.5052 333.967 19.0346L336.009 13.3759H340.462C341.042 13.3759 341.561 13.6965 341.82 14.214C342.718 16.0102 344.524 17.1259 346.53 17.1259C347.246 17.1259 347.246 17.8065 347.246 18.0634V19.0009H347.248Z" fill="black"/>
</g>
<defs>
<clipPath id="clip0_766_520">
<rect width="45" height="45" fill="white" transform="translate(306 4)"/>
</clipPath>
</defs>
</svg>
