<svg width="1285" height="74" viewBox="0 0 1285 74" fill="none" xmlns="http://www.w3.org/2000/svg">
<path d="M0 5L1284 1" stroke="#929292"/>
<path d="M1 73L1285 69" stroke="#929292"/>
<path d="M16.0003 45.67C15.8103 45.67 15.6203 45.6 15.4703 45.45L8.95027 38.93C7.89027 37.87 7.89027 36.13 8.95027 35.07L15.4703 28.55C15.7603 28.26 16.2403 28.26 16.5303 28.55C16.8203 28.84 16.8203 29.32 16.5303 29.61L10.0103 36.13C9.53027 36.61 9.53027 37.39 10.0103 37.87L16.5303 44.39C16.8203 44.68 16.8203 45.16 16.5303 45.45C16.3803 45.59 16.1903 45.67 16.0003 45.67Z" fill="#292D32"/>
<path d="M611.082 28.5H613.362V29.06C613.362 32.38 610.602 35.1 605.842 35.76L604.882 33.7C609.042 33.18 611.082 31.02 611.082 29.06V28.5ZM611.522 28.5H613.802V29.06C613.802 31 615.842 33.18 619.982 33.7L619.022 35.76C614.262 35.1 611.522 32.36 611.522 29.06V28.5ZM611.082 38.36H613.722V41.18H611.082V38.36ZM604.062 36.72H620.802V38.82H604.062V36.72ZM605.922 40.6H618.782V46.78H616.122V42.68H605.922V40.6ZM622.48 42.44H639.24V44.62H622.48V42.44ZM629.44 38.32H632.08V43.02H629.44V38.32ZM629.34 29.28H631.66V30.62C631.66 34.56 628.8 38.04 623.96 38.92L622.86 36.7C627.08 36.02 629.34 33.18 629.34 30.62V29.28ZM629.86 29.28H632.18V30.62C632.18 33.24 634.44 36.02 638.68 36.7L637.58 38.92C632.72 38.02 629.86 34.62 629.86 30.62V29.28ZM649.801 29.26H651.981V30.9C651.981 34.58 650.381 37.82 646.861 39.04L645.441 36.94C648.541 35.9 649.801 33.42 649.801 30.9V29.26ZM650.341 29.26H652.501V31.16C652.501 33.38 653.741 35.54 656.641 36.44L655.261 38.5C651.921 37.38 650.341 34.5 650.341 31.16V29.26ZM657.661 28.26H660.321V39.2H657.661V28.26ZM659.581 32.54H662.781V34.74H659.581V32.54ZM654.281 39.62C658.121 39.62 660.541 40.96 660.541 43.2C660.541 45.46 658.121 46.78 654.281 46.78C650.421 46.78 648.001 45.46 648.001 43.2C648.001 40.96 650.421 39.62 654.281 39.62ZM654.281 41.68C651.921 41.68 650.641 42.18 650.641 43.2C650.641 44.24 651.921 44.72 654.281 44.72C656.641 44.72 657.901 44.24 657.901 43.2C657.901 42.18 656.641 41.68 654.281 41.68ZM671.44 34.48H674.5V36.64H671.44V34.48ZM667.48 29.86H669.52V32.98C669.52 37.18 668.36 41.28 665.4 43.1L663.8 41.1C666.52 39.42 667.48 36.12 667.48 32.98V29.86ZM668.06 29.86H670.06V32.86C670.06 35.88 670.84 38.96 673.36 40.6L671.92 42.68C668.98 40.86 668.06 36.86 668.06 32.86V29.86ZM677.52 28.26H680.06V46.78H677.52V28.26ZM673.76 28.54H676.24V45.94H673.76V28.54Z" fill="#352018"/>
</svg>
