<svg width="150" height="150" viewBox="0 0 150 150" fill="none" xmlns="http://www.w3.org/2000/svg">
<mask id="mask0_569_711" style="mask-type:alpha" maskUnits="userSpaceOnUse" x="0" y="0" width="150" height="150">
<path d="M75.75 84.5625C75.625 84.5625 75.4375 84.5625 75.3125 84.5625C75.125 84.5625 74.875 84.5625 74.6875 84.5625C60.5 84.125 49.875 73.0625 49.875 59.4375C49.875 45.5625 61.1875 34.25 75.0625 34.25C88.9375 34.25 100.25 45.5625 100.25 59.4375C100.188 73.125 89.5 84.125 75.9375 84.5625C75.8125 84.5625 75.8125 84.5625 75.75 84.5625ZM75 43.5625C66.25 43.5625 59.1875 50.6875 59.1875 59.375C59.1875 67.9375 65.875 74.875 74.375 75.1875C74.5625 75.125 75.1875 75.125 75.8125 75.1875C84.1875 74.75 90.75 67.875 90.8125 59.375C90.8125 50.6875 83.75 43.5625 75 43.5625Z" fill="#292D32"/>
<path d="M75.0002 142.187C58.1877 142.187 42.1252 135.937 29.6877 124.562C28.5627 123.562 28.0627 122.062 28.1877 120.625C29.0002 113.187 33.6252 106.25 41.3127 101.125C59.9377 88.75 90.1252 88.75 108.688 101.125C116.375 106.312 121 113.187 121.813 120.625C122 122.125 121.438 123.562 120.313 124.562C107.875 135.937 91.8127 142.187 75.0002 142.187ZM38.0002 119.375C48.3752 128.062 61.4377 132.812 75.0002 132.812C88.5627 132.812 101.625 128.062 112 119.375C110.875 115.562 107.875 111.875 103.438 108.875C88.0627 98.625 62.0002 98.625 46.5002 108.875C42.0627 111.875 39.1252 115.562 38.0002 119.375Z" fill="#292D32"/>
<path d="M75 142.188C37.9375 142.188 7.8125 112.062 7.8125 75C7.8125 37.9375 37.9375 7.8125 75 7.8125C112.062 7.8125 142.188 37.9375 142.188 75C142.188 112.062 112.062 142.188 75 142.188ZM75 17.1875C43.125 17.1875 17.1875 43.125 17.1875 75C17.1875 106.875 43.125 132.812 75 132.812C106.875 132.812 132.812 106.875 132.812 75C132.812 43.125 106.875 17.1875 75 17.1875Z" fill="#292D32"/>
</mask>
<g mask="url(#mask0_569_711)">
<rect x="-50" y="-56.25" width="318.75" height="281.25" fill="#352018"/>
</g>
</svg>
