<svg width="30" height="30" viewBox="0 0 30 30" fill="none" xmlns="http://www.w3.org/2000/svg">
<path d="M11.1856 11.0953C11.1856 11.6385 10.5219 12.5969 9.32115 12.5969C8.12043 12.5969 7.45668 11.6385 7.45668 11.0953C7.45668 10.5521 8.12043 10.1109 9.32115 10.1109C10.5219 10.1109 11.1856 10.5509 11.1856 11.0953ZM20.508 23.7837C21.7088 23.7837 22.3725 22.8254 22.3725 22.2822C22.3725 21.739 21.7088 21.2978 20.508 21.2978C19.3073 21.2978 18.6436 21.7378 18.6436 22.2822C18.6436 22.8266 19.3073 23.7837 20.508 23.7837ZM9.72637 18.8118H8.91718C3.41697 18.8118 2.8927e-07 16.3867 2.8927e-07 12.4825C2.8927e-07 11.5428 0.483522 10.362 1.28773 9.23582C0.513353 8.90767 2.8927e-07 8.22652 2.8927e-07 7.00342C-0.0012427 5.13894 4.00366 0.166992 5.54496 0.166992C6.67484 0.166992 7.42311 0.621925 8.54305 1.44975C8.79537 1.42862 9.05143 1.40998 9.3224 1.40998C9.59337 1.40998 9.84942 1.42862 10.1018 1.44975C11.2204 0.621925 11.97 0.166992 13.0998 0.166992C14.6399 0.166992 18.646 5.13894 18.646 7.00342C18.646 8.22652 18.1327 8.90767 17.3583 9.23582C18.1613 10.362 18.646 11.5416 18.646 12.4825C18.646 16.3867 15.2291 18.8118 9.72885 18.8118H9.72637ZM16.1576 12.4825C16.1576 12.1133 15.7524 10.9462 14.5019 9.69573C14.2745 9.4695 14.1439 9.16249 14.1377 8.84179C14.1241 8.33963 13.8655 3.89595 9.32115 3.89595C4.7768 3.89595 4.51826 8.33963 4.50458 8.84677C4.49588 9.16373 4.36537 9.47075 4.14163 9.69573C2.89119 10.9462 2.48597 12.1133 2.48597 12.4825C2.48597 16.0486 7.4082 16.3258 8.91718 16.3258H9.72637C11.2354 16.3258 16.1576 16.0486 16.1576 12.4825ZM29.0896 13.5962L28.5874 11.0506C28.4395 10.2364 27.5023 9.84488 26.8187 10.3122L24.237 12.9076C23.6689 12.6416 23.0798 12.4415 22.4744 12.3048C21.7697 12.1457 21.091 12.6627 21.0114 13.3799C21.0114 13.3911 21.009 13.4011 21.0077 13.4123C20.9369 14.0424 21.357 14.5993 21.9723 14.7534C23.0922 15.0344 23.9648 15.5626 24.4694 15.9517C25.0561 16.3097 27.4004 17.9827 27.3432 21.8832C27.2972 25.0118 24.7019 27.5139 21.5733 27.5139H19.5161C16.3763 27.5139 13.7636 25.0379 13.6716 21.9205C13.6716 21.2344 13.1147 20.6775 12.4286 20.6775C11.7425 20.6775 11.1856 21.2344 11.1856 21.9205C11.3087 26.389 15.0165 29.9999 19.5199 29.9999H21.5845C26.1574 29.9999 29.8391 26.2585 29.8304 21.6868C29.8242 17.6782 29.1207 13.7615 29.0896 13.5975V13.5962Z" fill="white"/>
</svg>
