<svg width="30" height="30" viewBox="0 0 30 30" fill="none" xmlns="http://www.w3.org/2000/svg">
<path d="M26.8652 6.21398C26.4812 6.21398 26.1369 6.00148 25.9654 5.6585C25.3701 4.468 24.1732 3.7286 22.8422 3.7286H21.1246V0.95741C21.1246 0.306242 20.4759 -0.165979 19.8632 0.0552194C18.4252 0.572177 17.3962 1.94783 17.3962 3.56457V5.8014L16.1981 9.12062C16.1608 9.22501 16.1037 9.31697 16.0428 9.40395L3.20699 0.236652C2.64897 -0.162251 1.87221 -0.0342541 1.47327 0.526198C1.07432 1.08416 1.20358 1.86084 1.76284 2.25975L12.5206 9.94328L8.69525 9.94577C7.34432 9.94577 6.1015 10.3931 5.08115 11.1288C4.36032 10.8045 2.48367 9.74321 2.48367 7.45666C2.48367 6.7707 1.92689 6.21398 1.24086 6.21398C0.554827 6.21398 -0.00195312 6.76946 -0.00195312 7.45666C-0.00195312 10.5472 2.0027 12.2373 3.3611 13.0301C2.81799 13.9534 2.48367 15.0147 2.48492 16.1604L2.4874 26.1044C2.4874 28.1586 4.16023 29.83 6.2146 29.83C8.26897 29.83 9.9418 28.1586 9.9418 26.1032V23.6153L16.1559 23.6116V26.0982C16.1559 28.1524 17.8274 29.825 19.8905 29.825C21.9536 29.825 23.6177 28.1536 23.6177 26.0982V22.6609C23.6177 22.1415 23.6724 21.6208 23.7805 21.1113L25.1004 14.9053C27.7289 14.7786 29.828 12.6001 29.828 9.94079V9.31945C29.828 7.04036 28.0583 6.21273 26.8677 6.21273L26.8652 6.21398ZM8.6965 21.1312C8.01046 21.1312 7.45368 21.6879 7.45368 22.3739V26.1032C7.45368 26.7879 6.8969 27.3446 6.21211 27.3446C5.52732 27.3446 4.97054 26.7879 4.97054 26.1032L4.96806 16.1592C4.96806 14.1038 6.63964 12.4311 8.69401 12.4299L13.6677 12.4274V21.1275L8.69401 21.1312H8.6965ZM21.1296 22.6609V26.0982C21.1296 26.7829 20.5728 27.3397 19.8806 27.3397C19.1958 27.3397 18.639 26.7829 18.639 26.0982V22.3689C18.639 22.0396 18.5085 21.7227 18.2749 21.4891C18.0412 21.2567 17.7255 21.1262 17.3962 21.1262H16.1546V12.6064L22.3277 15.9728L21.3446 20.5956C21.2004 21.2741 21.1271 21.9688 21.1271 22.6622L21.1296 22.6609ZM27.3399 9.94204C27.3399 11.3127 26.2251 12.4274 24.8543 12.4274C24.0726 12.4274 23.3691 12.8524 22.9814 13.4974L18.081 10.8243C18.2649 10.5609 18.424 10.2763 18.5371 9.96441L19.8905 6.21398H22.8422C23.2262 6.21398 23.5705 6.42648 23.742 6.76946C24.3373 7.95995 25.5341 8.69935 26.8639 8.69935C27.3387 8.69935 27.3387 9.15045 27.3387 9.32069V9.94204H27.3399Z" fill="white"/>
</svg>
