<svg width="71" height="19" viewBox="0 0 71 19" fill="none" xmlns="http://www.w3.org/2000/svg">
<path d="M4.70313 11.52H7.36313V14.52H4.70313V11.52ZM12.8031 0.26H15.4631V18.78H12.8031V0.26ZM0.423125 15.7L0.103125 13.56C3.46313 13.54 7.94313 13.54 11.8431 13.02L12.0231 14.94C8.00313 15.68 3.70313 15.7 0.423125 15.7ZM0.463125 2.3H11.6031V4.38H0.463125V2.3ZM6.02313 5.12C8.76313 5.12 10.6631 6.52 10.6631 8.58C10.6631 10.66 8.76313 12.06 6.02313 12.06C3.32313 12.06 1.42313 10.66 1.42313 8.58C1.42313 6.52 3.32313 5.12 6.02313 5.12ZM6.02313 7.12C4.82313 7.12 3.96313 7.64 3.96313 8.58C3.96313 9.54 4.82313 10.06 6.02313 10.06C7.26313 10.06 8.12313 9.54 8.12313 8.58C8.12313 7.64 7.26313 7.12 6.02313 7.12ZM4.70313 0.339999H7.36313V3.5H4.70313V0.339999ZM23.2216 9.76H25.8816V13.82H23.2216V9.76ZM31.3416 0.26H34.0016V14.28H31.3416V0.26ZM20.6616 16.34H34.4016V18.46H20.6616V16.34ZM20.6616 12.96H23.3216V16.9H20.6616V12.96ZM18.6616 10.56L18.3416 8.44C21.7216 8.44 26.2416 8.4 30.1216 7.9L30.2816 9.8C26.3416 10.46 22.0016 10.56 18.6616 10.56ZM27.8416 11.02H31.9216V12.84H27.8416V11.02ZM24.3016 0.899999C27.0016 0.899999 28.9016 2.24 28.9016 4.2C28.9016 6.18 27.0016 7.5 24.3016 7.5C21.5816 7.5 19.6816 6.18 19.6816 4.2C19.6816 2.24 21.5816 0.899999 24.3016 0.899999ZM24.3016 2.84C23.0616 2.84 22.2016 3.3 22.2016 4.2C22.2016 5.1 23.0616 5.56 24.3016 5.56C25.5216 5.56 26.3816 5.1 26.3816 4.2C26.3816 3.3 25.5216 2.84 24.3016 2.84ZM48.64 0.239999H51.32V18.76H48.64V0.239999ZM50.62 7.32H53.88V9.5H50.62V7.32ZM43.78 2.16H46.38C46.38 7.72 44.26 12.48 38.1 15.58L36.62 13.56C41.48 11.04 43.78 7.64 43.78 2.62V2.16ZM37.64 2.16H45.14V4.3H37.64V2.16ZM67.9184 0.26H70.5984V10.22H67.9184V0.26ZM58.2784 11.02H60.8984V12.74H67.9584V11.02H70.5984V18.58H58.2784V11.02ZM60.8984 14.78V16.46H67.9584V14.78H60.8984ZM60.5184 1.02C63.3984 1.02 65.5384 2.84 65.5384 5.4C65.5384 7.96 63.3984 9.78 60.5184 9.78C57.6384 9.78 55.4784 7.96 55.4784 5.4C55.4784 2.84 57.6384 1.02 60.5184 1.02ZM60.5184 3.22C59.0984 3.22 58.0784 4.04 58.0784 5.4C58.0784 6.78 59.0984 7.58 60.5184 7.58C61.9184 7.58 62.9384 6.78 62.9384 5.4C62.9384 4.04 61.9184 3.22 60.5184 3.22Z" fill="#DDAC7E"/>
</svg>
