<svg width="22" height="24" viewBox="0 0 22 24" fill="none" xmlns="http://www.w3.org/2000/svg">
<g filter="url(#filter0_dd_569_963)">
<path d="M10.9998 8.49992C8.8865 8.49992 7.1665 6.77992 7.1665 4.66658C7.1665 2.55325 8.8865 0.833252 10.9998 0.833252C13.1132 0.833252 14.8332 2.55325 14.8332 4.66658C14.8332 6.77992 13.1132 8.49992 10.9998 8.49992ZM10.9998 1.83325C9.43984 1.83325 8.1665 3.10659 8.1665 4.66658C8.1665 6.22658 9.43984 7.49992 10.9998 7.49992C12.5598 7.49992 13.8332 6.22658 13.8332 4.66658C13.8332 3.10659 12.5598 1.83325 10.9998 1.83325Z" fill="#292D32"/>
<path d="M16.7268 15.1667C16.4534 15.1667 16.2268 14.94 16.2268 14.6667C16.2268 12.3667 13.8801 10.5 11.0001 10.5C8.1201 10.5 5.77344 12.3667 5.77344 14.6667C5.77344 14.94 5.54677 15.1667 5.27344 15.1667C5.0001 15.1667 4.77344 14.94 4.77344 14.6667C4.77344 11.82 7.56677 9.5 11.0001 9.5C14.4334 9.5 17.2268 11.82 17.2268 14.6667C17.2268 14.94 17.0001 15.1667 16.7268 15.1667Z" fill="#292D32"/>
</g>
<defs>
<filter id="filter0_dd_569_963" x="-1" y="0" width="24" height="24" filterUnits="userSpaceOnUse" color-interpolation-filters="sRGB">
<feFlood flood-opacity="0" result="BackgroundImageFix"/>
<feColorMatrix in="SourceAlpha" type="matrix" values="0 0 0 0 0 0 0 0 0 0 0 0 0 0 0 0 0 0 127 0" result="hardAlpha"/>
<feOffset dy="4"/>
<feGaussianBlur stdDeviation="2"/>
<feComposite in2="hardAlpha" operator="out"/>
<feColorMatrix type="matrix" values="0 0 0 0 0 0 0 0 0 0 0 0 0 0 0 0 0 0 0.25 0"/>
<feBlend mode="normal" in2="BackgroundImageFix" result="effect1_dropShadow_569_963"/>
<feColorMatrix in="SourceAlpha" type="matrix" values="0 0 0 0 0 0 0 0 0 0 0 0 0 0 0 0 0 0 127 0" result="hardAlpha"/>
<feOffset dy="4"/>
<feGaussianBlur stdDeviation="2"/>
<feComposite in2="hardAlpha" operator="out"/>
<feColorMatrix type="matrix" values="0 0 0 0 0 0 0 0 0 0 0 0 0 0 0 0 0 0 0.25 0"/>
<feBlend mode="normal" in2="effect1_dropShadow_569_963" result="effect2_dropShadow_569_963"/>
<feBlend mode="normal" in="SourceGraphic" in2="effect2_dropShadow_569_963" result="shape"/>
</filter>
</defs>
</svg>
