<svg width="337" height="33" viewBox="0 0 337 33" fill="none" xmlns="http://www.w3.org/2000/svg">
<path d="M18.9496 4.764C18.9496 3.78 19.2736 2.988 19.9216 2.388C20.5696 1.764 21.4456 1.452 22.5496 1.452C23.6296 1.452 24.4816 1.764 25.1056 2.388C25.7296 3.012 26.0416 3.828 26.0416 4.836V10.776L26.5456 10.992C26.7136 10.248 27.0016 9.672 27.4096 9.264C27.8416 8.832 28.4176 8.616 29.1376 8.616C29.8816 8.616 30.4936 8.904 30.9736 9.48C31.4776 10.032 31.7296 10.8 31.7296 11.784C31.7296 12.792 31.4656 13.572 30.9376 14.124C30.4096 14.676 29.8096 14.952 29.1376 14.952C28.5616 14.952 28.0816 14.808 27.6976 14.52C27.3136 14.208 27.0136 13.836 26.7976 13.404C26.6536 13.14 26.4856 13.044 26.2936 13.116C26.1256 13.164 26.0416 13.356 26.0416 13.692V19.632C26.0416 20.544 25.7176 21.312 25.0696 21.936C24.4216 22.56 23.5816 22.872 22.5496 22.872C21.5176 22.872 20.6536 22.56 19.9576 21.936C19.2856 21.312 18.9496 20.544 18.9496 19.632V4.764ZM7.53763 20.028C5.80963 20.028 4.42963 19.74 3.39763 19.164C2.38963 18.588 1.68163 17.832 1.27363 16.896C0.865625 15.936 0.709625 14.904 0.805625 13.8C0.877625 13.08 0.985625 12.516 1.12963 12.108C1.29763 11.676 1.45363 11.304 1.59763 10.992C1.74163 10.68 1.81363 10.32 1.81363 9.912L1.77763 5.484C1.77763 4.428 2.05363 3.636 2.60563 3.108C3.18163 2.58 3.87763 2.316 4.69363 2.316C5.53363 2.316 6.21763 2.544 6.74563 3C7.29763 3.432 7.57363 4.092 7.57363 4.98V7.14H10.9576V4.98C10.9576 4.116 11.2576 3.456 11.8576 3C12.4576 2.544 13.1776 2.316 14.0176 2.316C14.8576 2.316 15.5656 2.58 16.1416 3.108C16.7176 3.612 17.0056 4.404 17.0056 5.484V14.592C17.0056 16.44 16.6216 17.808 15.8536 18.696C15.1096 19.584 13.8736 20.028 12.1456 20.028H7.53763ZM3.50563 12.036C3.64963 12.348 3.84163 12.54 4.08163 12.612C4.34563 12.684 4.80163 12.72 5.44963 12.72H10.4896C10.8976 12.72 11.1616 12.684 11.2816 12.612C11.4016 12.516 11.4616 12.312 11.4616 12V11.604C11.4616 11.34 11.4016 11.172 11.2816 11.1C11.1616 11.004 10.8976 10.956 10.4896 10.956H4.00963C3.69763 10.956 3.48163 11.016 3.36163 11.136C3.24163 11.256 3.24163 11.436 3.36163 11.676L3.50563 12.036ZM3.36163 26.508C3.33763 26.1 3.32563 25.788 3.32563 25.572C3.34963 25.332 3.37363 24.888 3.39763 24.24C3.56563 22.08 4.70563 21 6.81763 21C7.87363 21 8.67763 21.24 9.22963 21.72C9.80563 22.2 10.0936 22.836 10.0936 23.628C10.0936 24.012 10.1896 24.336 10.3816 24.6C10.5736 24.84 11.0776 24.96 11.8936 24.96H22.5856C23.7616 24.96 24.6736 25.272 25.3216 25.896C25.9696 26.496 26.2936 27.42 26.2936 28.668C26.2936 29.844 25.9696 30.756 25.3216 31.404C24.6736 32.052 23.7616 32.376 22.5856 32.376H10.0936C8.62963 32.376 7.40563 32.196 6.42163 31.836C5.43763 31.5 4.69363 30.9 4.18963 30.036C3.68563 29.196 3.40963 28.02 3.36163 26.508ZM40.337 27.192C39.041 27.192 37.865 27.024 36.809 26.688C35.777 26.352 34.949 25.812 34.325 25.068C33.701 24.324 33.389 23.34 33.389 22.116C33.389 21.276 33.521 20.58 33.785 20.028C34.049 19.452 34.361 19.008 34.721 18.696C35.081 18.36 35.393 18.12 35.657 17.976C35.921 17.832 36.053 17.76 36.053 17.76L35.693 17.148C35.213 17.052 34.757 16.812 34.325 16.428C33.917 16.02 33.713 15.36 33.713 14.448C33.713 13.536 33.941 12.864 34.397 12.432C34.877 11.976 35.489 11.748 36.233 11.748H44.585C44.897 11.748 45.113 11.7 45.233 11.604C45.353 11.484 45.413 11.256 45.413 10.92C45.413 10.584 45.353 10.368 45.233 10.272C45.113 10.176 44.885 10.128 44.549 10.128H37.277C36.365 10.128 35.585 9.84 34.937 9.264C34.289 8.688 33.965 7.836 33.965 6.708C33.965 5.58 34.277 4.74 34.901 4.188C35.549 3.612 36.329 3.324 37.241 3.324H44.297C45.761 3.324 46.829 3.72 47.501 4.512C48.197 5.28 48.545 6.372 48.545 7.788V9.444C48.809 8.94 49.181 8.544 49.661 8.256C50.165 7.944 50.717 7.788 51.317 7.788C51.581 7.788 51.821 7.8 52.037 7.824C52.253 7.824 52.445 7.848 52.613 7.896V4.8C52.613 3.816 52.937 2.988 53.585 2.316C54.233 1.644 55.109 1.308 56.213 1.308C57.293 1.308 58.133 1.656 58.733 2.352C59.357 3.024 59.669 3.864 59.669 4.872V29.136C59.669 30.048 59.345 30.816 58.697 31.44C58.073 32.064 57.245 32.376 56.213 32.376C55.181 32.376 54.317 32.064 53.621 31.44C52.949 30.816 52.613 30.048 52.613 29.136V22.008C52.229 22.08 51.797 22.116 51.317 22.116C50.981 22.116 50.669 22.08 50.381 22.008C50.477 22.32 50.525 22.704 50.525 23.16C50.525 25.848 49.037 27.192 46.061 27.192H40.337ZM37.205 17.976C37.349 18.264 37.505 18.504 37.673 18.696C37.841 18.864 38.105 18.996 38.465 19.092C38.849 19.164 39.413 19.2 40.157 19.2H46.061C46.469 19.2 46.853 19.236 47.213 19.308C47.597 19.356 47.945 19.428 48.257 19.524C48.233 19.428 48.209 19.32 48.185 19.2C48.185 19.08 48.185 18.96 48.185 18.84C48.185 17.856 48.485 17.064 49.085 16.464C49.685 15.84 50.429 15.528 51.317 15.528C51.821 15.528 52.253 15.564 52.613 15.636V14.268C52.229 14.34 51.797 14.376 51.317 14.376C50.717 14.376 50.165 14.232 49.661 13.944C49.181 13.656 48.809 13.248 48.545 12.72V12.972C48.545 14.436 48.257 15.504 47.681 16.176C47.105 16.824 46.085 17.148 44.621 17.148H37.925C37.613 17.148 37.385 17.22 37.241 17.364C37.097 17.508 37.085 17.712 37.205 17.976ZM70.2811 17.508C70.2811 16.548 70.5691 15.816 71.1451 15.312C71.7451 14.784 72.4771 14.52 73.3411 14.52H82.7011V13.44H78.5971C77.8051 13.44 77.0491 13.344 76.3291 13.152C75.6331 12.936 75.0691 12.588 74.6371 12.108C74.2051 11.604 73.9651 10.92 73.9171 10.056C73.8931 9.36 74.0131 8.772 74.2771 8.292C74.5411 7.812 74.8531 7.44 75.2131 7.176C75.5971 6.888 75.9091 6.732 76.1491 6.708V6.672C75.4531 6.672 74.8891 6.42 74.4571 5.916C74.0491 5.412 73.8451 4.8 73.8451 4.08C73.8451 3.36 74.0731 2.748 74.5291 2.244C74.9851 1.716 75.6691 1.452 76.5811 1.452H93.0331C94.0171 1.452 94.7131 1.728 95.1211 2.28C95.5291 2.808 95.7331 3.432 95.7331 4.152C95.7331 4.872 95.5291 5.508 95.1211 6.06C94.7131 6.612 94.0171 6.888 93.0331 6.888H79.4611C78.8371 6.888 78.5971 7.044 78.7411 7.356C78.8611 7.572 79.0411 7.716 79.2811 7.788C79.5211 7.836 79.9291 7.86 80.5051 7.86H92.9611C94.1611 7.86 94.9651 8.124 95.3731 8.652C95.8051 9.18 96.0211 9.864 96.0211 10.704C96.0211 11.544 95.8051 12.216 95.3731 12.72C94.9651 13.2 94.1611 13.44 92.9611 13.44H86.5891C86.6611 14.16 87.1051 14.52 87.9211 14.52H96.9571C97.7731 14.52 98.4451 14.796 98.9731 15.348C99.5011 15.876 99.7651 16.596 99.7651 17.508C99.7651 18.42 99.5011 19.164 98.9731 19.74C98.4451 20.316 97.7731 20.604 96.9571 20.604H73.2331C72.4171 20.604 71.7211 20.328 71.1451 19.776C70.5691 19.224 70.2811 18.468 70.2811 17.508ZM85.0771 32.772C82.1731 32.772 79.8811 32.508 78.2011 31.98C76.5451 31.476 75.3691 30.792 74.6731 29.928C74.0011 29.04 73.6651 28.068 73.6651 27.012C73.6651 26.172 73.8211 25.416 74.1331 24.744C74.4691 24.048 75.0451 23.448 75.8611 22.944C76.6771 22.44 77.8291 22.056 79.3171 21.792C80.8291 21.528 82.7491 21.396 85.0771 21.396C87.3811 21.396 89.2651 21.528 90.7291 21.792C92.2171 22.056 93.3691 22.44 94.1851 22.944C95.0251 23.448 95.6131 24.048 95.9491 24.744C96.2851 25.416 96.4531 26.172 96.4531 27.012C96.4531 28.068 96.1171 29.04 95.4451 29.928C94.7731 30.792 93.6091 31.476 91.9531 31.98C90.2971 32.508 88.0051 32.772 85.0771 32.772ZM80.0011 24.78C80.0011 24.972 80.1211 25.14 80.3611 25.284C80.6251 25.404 81.1051 25.5 81.8011 25.572C82.4971 25.62 83.5051 25.644 84.8251 25.644C86.7691 25.644 88.0891 25.572 88.7851 25.428C89.5051 25.284 89.8651 25.068 89.8651 24.78C89.8651 24.396 89.5051 24.144 88.7851 24.024C88.0891 23.904 86.7691 23.844 84.8251 23.844C83.5051 23.844 82.4971 23.88 81.8011 23.952C81.1051 24 80.6251 24.096 80.3611 24.24C80.1211 24.36 80.0011 24.54 80.0011 24.78ZM119.497 4.764C119.497 3.78 119.821 2.988 120.469 2.388C121.117 1.764 121.993 1.452 123.097 1.452C124.177 1.452 125.029 1.764 125.653 2.388C126.277 3.012 126.589 3.828 126.589 4.836V10.776L127.093 10.992C127.261 10.248 127.549 9.672 127.957 9.264C128.389 8.832 128.965 8.616 129.685 8.616C130.429 8.616 131.041 8.904 131.521 9.48C132.025 10.032 132.277 10.8 132.277 11.784C132.277 12.792 132.013 13.572 131.485 14.124C130.957 14.676 130.357 14.952 129.685 14.952C129.109 14.952 128.629 14.808 128.245 14.52C127.861 14.208 127.561 13.836 127.345 13.404C127.201 13.14 127.033 13.044 126.841 13.116C126.673 13.164 126.589 13.356 126.589 13.692V19.632C126.589 20.544 126.265 21.312 125.617 21.936C124.969 22.56 124.129 22.872 123.097 22.872C122.065 22.872 121.201 22.56 120.505 21.936C119.833 21.312 119.497 20.544 119.497 19.632V4.764ZM108.085 20.028C106.357 20.028 104.977 19.74 103.945 19.164C102.937 18.588 102.229 17.832 101.821 16.896C101.413 15.936 101.257 14.904 101.353 13.8C101.425 13.08 101.533 12.516 101.677 12.108C101.845 11.676 102.001 11.304 102.145 10.992C102.289 10.68 102.361 10.32 102.361 9.912L102.325 5.484C102.325 4.428 102.601 3.636 103.153 3.108C103.729 2.58 104.425 2.316 105.241 2.316C106.081 2.316 106.765 2.544 107.293 3C107.845 3.432 108.121 4.092 108.121 4.98V7.14H111.505V4.98C111.505 4.116 111.805 3.456 112.405 3C113.005 2.544 113.725 2.316 114.565 2.316C115.405 2.316 116.113 2.58 116.689 3.108C117.265 3.612 117.553 4.404 117.553 5.484V14.592C117.553 16.44 117.169 17.808 116.401 18.696C115.657 19.584 114.421 20.028 112.693 20.028H108.085ZM104.053 12.036C104.197 12.348 104.389 12.54 104.629 12.612C104.893 12.684 105.349 12.72 105.997 12.72H111.037C111.445 12.72 111.709 12.684 111.829 12.612C111.949 12.516 112.009 12.312 112.009 12V11.604C112.009 11.34 111.949 11.172 111.829 11.1C111.709 11.004 111.445 10.956 111.037 10.956H104.557C104.245 10.956 104.029 11.016 103.909 11.136C103.789 11.256 103.789 11.436 103.909 11.676L104.053 12.036ZM103.909 26.508C103.885 26.1 103.873 25.788 103.873 25.572C103.897 25.332 103.921 24.888 103.945 24.24C104.113 22.08 105.253 21 107.365 21C108.421 21 109.225 21.24 109.777 21.72C110.353 22.2 110.641 22.836 110.641 23.628C110.641 24.012 110.737 24.336 110.929 24.6C111.121 24.84 111.625 24.96 112.441 24.96H123.133C124.309 24.96 125.221 25.272 125.869 25.896C126.517 26.496 126.841 27.42 126.841 28.668C126.841 29.844 126.517 30.756 125.869 31.404C125.221 32.052 124.309 32.376 123.133 32.376H110.641C109.177 32.376 107.953 32.196 106.969 31.836C105.985 31.5 105.241 30.9 104.737 30.036C104.233 29.196 103.957 28.02 103.909 26.508ZM160.277 32.376C159.245 32.376 158.381 32.064 157.685 31.44C157.013 30.816 156.677 30.048 156.677 29.136V4.8C156.677 3.816 157.001 2.988 157.649 2.316C158.297 1.644 159.173 1.308 160.277 1.308C161.357 1.308 162.209 1.656 162.833 2.352C163.457 3.024 163.769 3.864 163.769 4.872V13.584L164.345 13.764C164.537 12.972 164.873 12.348 165.353 11.892C165.833 11.412 166.445 11.172 167.189 11.172C168.029 11.172 168.725 11.496 169.277 12.144C169.829 12.768 170.105 13.608 170.105 14.664C170.105 15.768 169.805 16.632 169.205 17.256C168.605 17.856 167.933 18.156 167.189 18.156C166.565 18.156 166.037 17.988 165.605 17.652C165.197 17.316 164.873 16.92 164.633 16.464C164.465 16.176 164.273 16.08 164.057 16.176C163.865 16.248 163.769 16.452 163.769 16.788V29.136C163.769 30.048 163.445 30.816 162.797 31.44C162.149 32.064 161.309 32.376 160.277 32.376ZM139.325 7.608C139.325 6.576 139.601 5.7 140.153 4.98C140.729 4.26 141.641 3.9 142.889 3.9H150.017C151.457 3.9 152.513 4.296 153.185 5.088C153.857 5.88 154.193 6.996 154.193 8.436C154.193 11.484 153.965 14.256 153.509 16.752C153.077 19.248 152.321 21.384 151.241 23.16C150.161 24.912 148.685 26.196 146.813 27.012C145.853 27.444 144.893 27.672 143.933 27.696C142.973 27.72 142.121 27.516 141.377 27.084C140.633 26.628 140.081 25.944 139.721 25.032C139.169 23.568 139.205 22.224 139.829 21C140.453 19.776 141.605 18.936 143.285 18.48C144.149 18.264 145.037 17.988 145.949 17.652C146.861 17.316 147.713 16.92 148.505 16.464C149.321 15.984 149.969 15.432 150.449 14.808C150.953 14.184 151.205 13.464 151.205 12.648C151.205 12.24 151.085 11.928 150.845 11.712C150.605 11.472 150.281 11.352 149.873 11.352L142.889 11.316C141.641 11.316 140.729 10.956 140.153 10.236C139.601 9.516 139.325 8.64 139.325 7.608ZM174.14 7.824C174.116 7.128 174.128 6.432 174.176 5.736C174.224 5.016 174.272 4.44 174.32 4.008C174.44 2.976 174.824 2.256 175.472 1.848C176.12 1.416 176.876 1.2 177.74 1.2C178.724 1.2 179.432 1.404 179.864 1.812C180.32 2.22 180.548 2.688 180.548 3.216C180.548 3.624 180.5 3.948 180.404 4.188C180.332 4.428 180.248 4.632 180.152 4.8C180.08 4.968 180.044 5.196 180.044 5.484C180.044 6.18 180.656 6.528 181.88 6.528H193.868C194.852 6.528 195.608 6.78 196.136 7.284C196.664 7.788 196.928 8.568 196.928 9.624C196.928 10.584 196.664 11.328 196.136 11.856C195.608 12.384 194.852 12.648 193.868 12.648H179.612C178.388 12.648 177.416 12.516 176.696 12.252C175.976 11.988 175.436 11.628 175.076 11.172C174.716 10.716 174.476 10.2 174.356 9.624C174.236 9.048 174.164 8.448 174.14 7.824ZM170.828 16.68C170.828 15.72 171.116 14.976 171.692 14.448C172.268 13.92 172.988 13.656 173.852 13.656H197.468C198.284 13.656 198.956 13.932 199.484 14.484C200.036 15.036 200.312 15.768 200.312 16.68C200.312 17.568 200.036 18.312 199.484 18.912C198.956 19.488 198.284 19.776 197.468 19.776H173.744C172.928 19.776 172.232 19.5 171.656 18.948C171.104 18.396 170.828 17.64 170.828 16.68ZM185.624 32.772C182.72 32.772 180.428 32.484 178.748 31.908C177.092 31.356 175.916 30.612 175.22 29.676C174.548 28.74 174.212 27.72 174.212 26.616C174.212 25.728 174.368 24.924 174.68 24.204C175.016 23.484 175.592 22.872 176.408 22.368C177.224 21.84 178.376 21.444 179.864 21.18C181.376 20.892 183.296 20.748 185.624 20.748C187.928 20.748 189.812 20.892 191.276 21.18C192.764 21.444 193.916 21.84 194.732 22.368C195.572 22.872 196.16 23.484 196.496 24.204C196.832 24.924 197 25.728 197 26.616C197 27.72 196.664 28.74 195.992 29.676C195.32 30.612 194.156 31.356 192.5 31.908C190.844 32.484 188.552 32.772 185.624 32.772ZM180.548 24.312C180.548 24.528 180.668 24.708 180.908 24.852C181.172 24.972 181.652 25.068 182.348 25.14C183.044 25.212 184.052 25.248 185.372 25.248C187.316 25.248 188.636 25.176 189.332 25.032C190.052 24.864 190.412 24.624 190.412 24.312C190.412 23.928 190.052 23.676 189.332 23.556C188.636 23.412 187.316 23.34 185.372 23.34C184.052 23.34 183.044 23.376 182.348 23.448C181.652 23.52 181.172 23.628 180.908 23.772C180.668 23.892 180.548 24.072 180.548 24.312ZM215.82 13.296C214.932 13.608 214.02 13.596 213.084 13.26C212.172 12.924 211.548 12.252 211.212 11.244C210.756 9.996 210.816 8.964 211.392 8.148C211.968 7.308 212.772 6.648 213.804 6.168C215.292 5.472 216.528 4.872 217.512 4.368C218.496 3.864 219.432 3.324 220.32 2.748C220.968 2.292 221.652 1.872 222.372 1.488C223.092 1.08 223.812 0.827999 224.532 0.731999C225.276 0.635999 225.984 0.815999 226.656 1.272C227.256 1.656 227.676 2.172 227.916 2.82C228.18 3.444 228.288 4.068 228.24 4.692C228.192 5.316 227.988 5.82 227.628 6.204C227.364 6.516 227.136 6.756 226.944 6.924C226.776 7.068 226.692 7.14 226.692 7.14L227.052 8.112C227.7 7.464 228.48 6.984 229.392 6.672C230.328 6.36 231.252 6.264 232.164 6.384C233.076 6.48 233.832 6.876 234.432 7.572C234.84 8.028 235.104 8.544 235.224 9.12C235.368 9.672 235.392 10.2 235.296 10.704C235.176 11.376 234.888 11.964 234.432 12.468C234 12.972 233.4 13.284 232.632 13.404C231.744 13.548 230.916 13.44 230.148 13.08C229.404 12.72 228.804 12.24 228.348 11.64C227.82 10.92 227.352 10.344 226.944 9.912C226.56 9.48 226.164 9.18 225.756 9.012C225.348 8.82 224.832 8.724 224.208 8.724C223.488 8.724 222.768 8.916 222.048 9.3C221.352 9.66 220.656 10.116 219.96 10.668C219.264 11.196 218.568 11.712 217.872 12.216C217.2 12.696 216.516 13.056 215.82 13.296ZM208.692 17.544C208.692 16.584 208.98 15.852 209.556 15.348C210.156 14.82 210.888 14.556 211.752 14.556H235.368C236.184 14.556 236.856 14.832 237.384 15.384C237.912 15.912 238.176 16.632 238.176 17.544C238.176 18.456 237.912 19.2 237.384 19.776C236.856 20.352 236.184 20.64 235.368 20.64H226.044C225.156 20.64 224.712 21.048 224.712 21.864V21.936H230.4C233.208 21.936 234.648 23.124 234.72 25.5C234.744 26.316 234.732 26.976 234.684 27.48C234.66 27.984 234.624 28.548 234.576 29.172C234.456 30.348 234.108 31.2 233.532 31.728C232.98 32.256 232.164 32.52 231.084 32.52C230.196 32.52 229.416 32.316 228.744 31.908C228.096 31.5 227.772 30.852 227.772 29.964V29.064C227.772 28.752 227.676 28.524 227.484 28.38C227.316 28.212 226.992 28.128 226.512 28.128H214.992C213.816 28.128 212.952 27.84 212.4 27.264C211.872 26.688 211.608 25.92 211.608 24.96C211.608 23.976 211.872 23.232 212.4 22.728C212.952 22.2 213.816 21.936 214.992 21.936H220.824V20.64H211.644C210.828 20.64 210.132 20.364 209.556 19.812C208.98 19.26 208.692 18.504 208.692 17.544ZM257.944 4.764C257.944 3.78 258.268 2.988 258.916 2.388C259.564 1.764 260.44 1.452 261.544 1.452C262.6 1.452 263.44 1.764 264.064 2.388C264.688 3.012 265 3.828 265 4.836V9.336L265.54 9.516C265.708 8.796 265.996 8.22 266.404 7.788C266.836 7.356 267.412 7.14 268.132 7.14C268.876 7.14 269.488 7.428 269.968 8.004C270.472 8.58 270.724 9.36 270.724 10.344C270.724 11.328 270.46 12.108 269.932 12.684C269.404 13.236 268.804 13.512 268.132 13.512C267.532 13.512 267.04 13.356 266.656 13.044C266.296 12.732 266.008 12.372 265.792 11.964C265.648 11.7 265.48 11.604 265.288 11.676C265.096 11.724 265 11.916 265 12.252V16.68C265 17.592 264.676 18.36 264.028 18.984C263.404 19.608 262.576 19.92 261.544 19.92C260.512 19.92 259.648 19.608 258.952 18.984C258.28 18.36 257.944 17.592 257.944 16.68V4.764ZM246.1 19.596C244.396 19.596 243.064 19.332 242.104 18.804C241.168 18.252 240.52 17.52 240.16 16.608C239.824 15.672 239.704 14.64 239.8 13.512C239.872 12.792 239.98 12.216 240.124 11.784C240.268 11.328 240.388 10.932 240.484 10.596C240.604 10.236 240.664 9.852 240.664 9.444L240.628 4.656C240.628 3.84 240.916 3.192 241.492 2.712C242.068 2.232 242.776 1.992 243.616 1.992C244.432 1.992 245.104 2.232 245.632 2.712C246.184 3.192 246.46 3.84 246.46 4.656V6.096H250.456V4.656C250.456 3.84 250.732 3.192 251.284 2.712C251.836 2.232 252.544 1.992 253.408 1.992C254.248 1.992 254.956 2.232 255.532 2.712C256.108 3.192 256.396 3.84 256.396 4.656V14.52C256.396 16.32 256.024 17.616 255.28 18.408C254.536 19.2 253.324 19.596 251.644 19.596H246.1ZM242.536 11.532C242.656 11.796 242.86 11.952 243.148 12C243.436 12.048 243.904 12.072 244.552 12.072H249.448C249.856 12.072 250.12 12.036 250.24 11.964C250.384 11.892 250.456 11.724 250.456 11.46V10.992C250.456 10.728 250.384 10.56 250.24 10.488C250.12 10.416 249.856 10.38 249.448 10.38H242.968C242.32 10.38 242.104 10.608 242.32 11.064L242.536 11.532ZM242.824 24.204C242.824 23.124 243.148 22.284 243.796 21.684C244.444 21.06 245.344 20.748 246.496 20.748H260.32C261.832 20.748 262.948 21.12 263.668 21.864C264.412 22.608 264.784 23.676 264.784 25.068C264.784 25.644 264.772 26.148 264.748 26.58C264.748 26.988 264.724 27.408 264.676 27.84C264.628 28.248 264.568 28.752 264.496 29.352C264.376 30.384 264.028 31.188 263.452 31.764C262.9 32.34 262.012 32.592 260.788 32.52C259.924 32.472 259.264 32.28 258.808 31.944C258.352 31.632 258.04 31.248 257.872 30.792C257.728 30.36 257.644 29.94 257.62 29.532C257.596 28.86 257.464 28.404 257.224 28.164C257.008 27.9 256.576 27.768 255.928 27.768H246.496C245.32 27.768 244.408 27.444 243.76 26.796C243.136 26.148 242.824 25.284 242.824 24.204ZM298.004 4.8C298.004 3.816 298.328 2.988 298.976 2.316C299.624 1.644 300.5 1.308 301.604 1.308C302.684 1.308 303.524 1.656 304.124 2.352C304.748 3.024 305.06 3.864 305.06 4.872V29.136C305.06 30.048 304.736 30.816 304.088 31.44C303.464 32.064 302.636 32.376 301.604 32.376C300.572 32.376 299.708 32.064 299.012 31.44C298.34 30.816 298.004 30.048 298.004 29.136V4.8ZM292.244 26.904C291.044 26.904 290.072 26.556 289.328 25.86C288.608 25.14 288.248 24.168 288.248 22.944C288.248 22.176 288.368 21.432 288.608 20.712C288.848 19.992 289.112 19.308 289.4 18.66C289.688 18.012 289.892 17.424 290.012 16.896C290.18 16.296 289.988 15.912 289.436 15.744C289.148 15.648 288.908 15.672 288.716 15.816C288.524 15.96 288.38 16.164 288.284 16.428C287.852 17.868 287.432 19.212 287.024 20.46C286.616 21.684 286.1 22.968 285.476 24.312C285.02 25.32 284.36 25.98 283.496 26.292C282.632 26.58 281.708 26.568 280.724 26.256C279.764 25.944 279.056 25.392 278.6 24.6C278.168 23.808 278.072 22.836 278.312 21.684C278.552 20.7 278.924 19.668 279.428 18.588C279.932 17.508 280.376 16.524 280.76 15.636C281.288 14.484 281.72 13.428 282.056 12.468C282.392 11.508 282.692 10.548 282.956 9.588C283.22 8.628 283.484 7.596 283.748 6.492C284.036 5.292 284.468 4.428 285.044 3.9C285.62 3.348 286.46 3.072 287.564 3.072C288.668 3.072 289.532 3.384 290.156 4.008C290.78 4.632 291.056 5.568 290.984 6.816C290.912 8.16 290.756 9.372 290.516 10.452C290.276 11.532 290.048 12.384 289.832 13.008C289.64 13.632 289.544 13.944 289.544 13.944C290.792 14.16 291.908 14.676 292.892 15.492C293.9 16.308 294.692 17.304 295.268 18.48C295.868 19.632 296.18 20.856 296.204 22.152C296.252 23.712 295.892 24.9 295.124 25.716C294.38 26.508 293.42 26.904 292.244 26.904ZM309.887 13.296C310.199 12.624 310.475 12.024 310.715 11.496C310.979 10.944 311.231 10.392 311.471 9.84C311.735 9.288 312.035 8.652 312.371 7.932C312.731 7.212 313.163 6.348 313.667 5.34C314.147 4.356 314.687 3.528 315.287 2.856C315.887 2.184 316.811 1.872 318.059 1.92C319.211 1.944 320.111 2.316 320.759 3.036C321.431 3.732 321.683 4.68 321.515 5.88C321.395 6.984 321.167 7.836 320.831 8.436C320.495 9.036 320.327 9.336 320.327 9.336C321.239 9.216 322.127 9.288 322.991 9.552C323.855 9.792 324.611 10.188 325.259 10.74C325.187 10.548 325.139 10.344 325.115 10.128C325.091 9.888 325.079 9.648 325.079 9.408C325.079 8.448 325.331 7.632 325.835 6.96C326.363 6.288 327.035 5.952 327.851 5.952C328.091 5.952 328.295 5.976 328.463 6.024C328.655 6.048 328.835 6.084 329.003 6.132V4.764C329.003 3.78 329.327 2.988 329.975 2.388C330.623 1.764 331.499 1.452 332.603 1.452C333.683 1.452 334.535 1.764 335.159 2.388C335.783 3.012 336.095 3.828 336.095 4.836V15.42C336.095 16.332 335.771 17.1 335.123 17.724C334.475 18.348 333.635 18.66 332.603 18.66C331.571 18.66 330.707 18.348 330.011 17.724C329.339 17.1 329.003 16.332 329.003 15.42V12.792C328.643 12.912 328.271 12.972 327.887 12.972C327.647 12.972 327.419 12.936 327.203 12.864C327.011 12.792 326.819 12.708 326.627 12.612C326.723 12.852 326.795 13.104 326.843 13.368C326.915 13.632 326.963 13.896 326.987 14.16C327.107 15.648 326.771 16.752 325.979 17.472C325.211 18.168 324.299 18.516 323.243 18.516C322.187 18.516 321.311 18.228 320.615 17.652C319.919 17.052 319.571 16.26 319.571 15.276C319.571 14.508 319.679 13.884 319.895 13.404C320.111 12.924 320.267 12.456 320.363 12C320.507 11.4 320.339 11.052 319.859 10.956C319.355 10.812 318.971 11.1 318.707 11.82C318.323 12.828 317.975 13.668 317.663 14.34C317.375 14.988 317.027 15.732 316.619 16.572C316.067 17.7 315.311 18.396 314.351 18.66C313.415 18.9 312.467 18.792 311.507 18.336C310.619 17.904 309.995 17.244 309.635 16.356C309.275 15.468 309.359 14.448 309.887 13.296ZM318.599 32.376C317.231 32.376 316.091 32.28 315.179 32.088C314.267 31.92 313.583 31.524 313.127 30.9C312.695 30.276 312.503 29.28 312.551 27.912C312.599 26.784 312.791 25.944 313.127 25.392C313.463 24.816 313.979 24.444 314.675 24.276C315.395 24.084 316.307 23.988 317.411 23.988H330.407C330.599 23.988 330.731 23.976 330.803 23.952C330.875 23.904 330.911 23.796 330.911 23.628C330.911 23.364 330.743 23.232 330.407 23.232H316.043C315.443 23.232 314.915 23.088 314.459 22.8C314.003 22.512 313.775 22.02 313.775 21.324C313.775 20.58 314.003 20.076 314.459 19.812C314.915 19.524 315.443 19.38 316.043 19.38H332.063C332.927 19.38 333.623 19.44 334.151 19.56C334.703 19.68 335.111 19.944 335.375 20.352C335.639 20.736 335.771 21.372 335.771 22.26C335.771 23.508 335.543 24.3 335.087 24.636C334.631 24.972 333.875 25.14 332.819 25.14H316.907C316.619 25.14 316.415 25.164 316.295 25.212C316.175 25.26 316.115 25.38 316.115 25.572C316.115 25.764 316.175 25.872 316.295 25.896C316.415 25.92 316.619 25.932 316.907 25.932H333.035C334.451 25.932 335.423 26.196 335.951 26.724C336.503 27.228 336.779 28.032 336.779 29.136C336.779 30.168 336.491 30.96 335.915 31.512C335.339 32.088 334.271 32.376 332.711 32.376H318.599Z" fill="#DDAC7E"/>
</svg>
